<svg version="1" xmlns="http://www.w3.org/2000/svg" viewBox="0 0 800 800" enable-background="new 0 0 800 800"><g stroke="#fff" fill="none"><circle cx="428.6" cy="320.8" r="156.3"/><path d="M698.1 640.4l-106-160.1c40.2-41.2 65-97.4 65-159.5 0-126.2-102.3-228.5-228.5-228.5s-228.5 102.3-228.5 228.5 102.3 228.5 228.5 228.5c26 0 51-4.4 74.4-12.4l107.1 161.9s10.6 16 26.6 5.4l56-37.1c0-.1 16-10.7 5.4-26.7zM202 458.2v-41.7c0-14.1-57.2-23.1-67.6-26.8s-12.3-5.9-12.3-14.5.9-9.5 9.1-16.3c8.2-6.8 20-25.9 20-51.3s-20.4-44.9-44.9-44.9-44.9 19.5-44.9 44.9 11.8 44.5 20 51.3c8.2 6.8 9.1 7.7 9.1 16.3 0 8.6-1.8 10.9-12.2 14.5s-67.6 12.7-67.6 26.8v41.7h191.3zM693.7 478h95.7v-41.7c0-14.1-57.2-23.1-67.6-26.8-10.4-3.6-12.2-5.9-12.2-14.5s.9-9.5 9.1-16.3c8.2-6.8 20-25.9 20-51.3s-20.4-44.9-44.9-44.9c-5.9 0-11.5 1.1-17.3 3.9 4.1 20.2 6.6 40.5 6.6 61.4 0 48-12 91.4-34.1 130 .8.2 44.7.2 44.7.2zM455.2 403.9v-20.2c23.4-12.5 39.7-41.1 39.7-74.2 0-44.8-29.7-81.1-66.3-81.1-36.6 0-66.3 36.3-66.3 81.1 0 33.2 16.3 61.7 39.7 74.2v20c-48.1 1.3-63.1 12.2-63.1 12.2 22.9 22.9 54.5 37 89.6 37 35.1 0 66.7-14.2 89.6-37-.1-.1-8-9.8-62.9-12z"/></g></svg>