<svg version="1" xmlns="http://www.w3.org/2000/svg" viewBox="0 0 800 800" enable-background="new 0 0 800 800"><path fill="#F29100" d="M0 .2h799.6v799.8h-799.6v-799.8z"/><path fill="#fff" d="M238.7 561.3c14.3 14.3 23 33.7 23.1 55.2-.1 21.5-8.8 40.9-23 55.1h-.1c-14.3 14.2-33.7 22.9-55.4 22.9s-41.1-8.7-55.3-23c-14.2-14.2-23-33.6-23-55.1s8.8-41 23-55.3c14.3-14.2 33.7-23 55.3-23 21.6.2 41.1 9 55.4 23.2zm-133.7-255.6v112.7c73.5.1 143.1 29 195.2 81.1 52.1 52 80.9 121.7 81 195.5v.2h113.2c-.2-107.4-43.8-204.6-114.4-275.2-70.5-70.5-167.7-114.3-275-114.3zm.2-200.7v112.7c263 .2 476.8 214.3 476.9 477.6h112.9c-.1-162.7-66.2-310.1-173-417.1-106.9-107-254.2-173.2-416.8-173.2z"/></svg>