<svg version="1" xmlns="http://www.w3.org/2000/svg" viewBox="0 0 800 800" enable-background="new 0 0 800 800"><path fill="#F29100" d="M0 .2h799.6v799.8h-799.6z"/><path fill="#fff" d="M211.1 588.8c16.7 16.7 26.9 39.4 27 64.6-.1 25.2-10.3 47.9-26.9 64.5h-.1c-16.7 16.6-39.5 26.8-64.9 26.8-25.4 0-48.1-10.2-64.8-26.9-16.6-16.6-26.9-39.3-26.9-64.5 0-25.2 10.3-48 26.9-64.7 16.7-16.6 39.4-26.9 64.8-26.9 25.4.2 48.2 10.5 64.9 27.1zm0-.1zm-129.7 129.3zm-26.8-428.4v131.9c86.1.1 167.6 33.9 228.5 95 61 60.9 94.7 142.5 94.8 228.9v.2h132.5c-.1-125.7-51.2-239.6-133.8-322.2-82.5-82.6-196.4-133.8-322-133.8zm.2-235v131.9c307.9.2 558.2 250.9 558.4 559.2h132.2c-.1-190.5-77.5-363.1-202.6-488.3-125.1-125.3-297.6-202.8-488-202.8z"/></svg>