<svg xmlns="http://www.w3.org/2000/svg" viewBox="0 0 58 50">
  
  <g>
    <path d="M17.2,33.7a1,1,0,0,1-.69-.27L3.93,21.86a1.19,1.19,0,0,1-.25-.35,11.16,11.16,0,0,1-3.6-7.94C.08,6.35,8,.48,17.7.48S35.32,6.35,35.32,13.57a1,1,0,0,1-2,0c0-6.11-7-11.07-15.61-11.07S2.1,7.46,2.1,13.57a9.17,9.17,0,0,0,3.4,6.87,1.07,1.07,0,0,1,.25.35L16.19,30.4V25.85a1.08,1.08,0,0,1,0-.4,1,1,0,0,1,1-.83h.25a14.23,14.23,0,0,0,1.73,0,1,1,0,1,1,.13,2c-.36,0-.71,0-1.07,0v6a1,1,0,0,1-.61.92.93.93,0,0,1-.4.09"/>
    <path d="M41.36,42.06V46.5l10.44-9.6a1.07,1.07,0,0,1,.25-.35,9.2,9.2,0,0,0,3.4-6.88c0-6.11-7-11.07-15.6-11.07s-15.61,5-15.61,11.07,7,11.07,15.61,11.07h.53a1,1,0,0,1,1,.82.91.91,0,0,1,0,.52m-1,7.74a.9.9,0,0,1-.4-.09,1,1,0,0,1-.61-.92v-6c-9.48-.2-17.12-6-17.12-13.08s7.91-13.09,17.63-13.09,17.62,5.87,17.62,13.09a11.16,11.16,0,0,1-3.6,7.94,1.07,1.07,0,0,1-.25.35L41,49.53a1,1,0,0,1-.68.27"/>
    <path d="M17.77,17.77a1.49,1.49,0,1,1-1.49,1.48,1.5,1.5,0,0,1,1.49-1.48m.09-10.44c2.32,0,4.6,1.07,4.6,3.62,0,2.36-2.7,3.27-3.28,4.12-.43.63-.29,1.52-1.49,1.52a1.16,1.16,0,0,1-1.16-1.21c0-2.16,3.18-2.65,3.18-4.43,0-1-.66-1.55-1.74-1.55-2.32,0-1.42,2.39-3.18,2.39a1.08,1.08,0,0,1-1.17-1.11c0-1.77,2-3.35,4.24-3.35"/>
    <path d="M42.37,36.72h-4a1,1,0,0,1,0-2h1v-5h-1a1,1,0,1,1,0-2h2a1,1,0,0,1,1,1v6h1a1,1,0,1,1,0,2"/>
    <path d="M41.36,25.14a1.51,1.51,0,1,1-1.5-1.51,1.51,1.51,0,0,1,1.5,1.51"/>
  </g>
</svg>
