<svg xmlns="http://www.w3.org/2000/svg" viewBox="0 0 51 49">
  
  <g>
    <path d="M21,19h8a2,2,0,0,0,2-2V15a2,2,0,0,0-2-2H21a2,2,0,0,0-2,2v2A2,2,0,0,0,21,19Zm0-4h8v2H21Z"/>
    <path d="M48.06,7.43H33.84V2a2,2,0,0,0-2-2H19.13a2,2,0,0,0-2,2V7.43H2.94A3,3,0,0,0,0,10.4V46a3,3,0,0,0,2.94,3H48.06A3,3,0,0,0,51,46V10.4a3,3,0,0,0-2.94-3ZM19.13,2H31.88V7.43H19.13ZM2.94,9.4H48.06a1,1,0,0,1,1,1V23.26H41.68v-3a2,2,0,0,0-2-2H36.78a2,2,0,0,0-2,2v3H16.18v-3a2,2,0,0,0-2-2H11.28a2,2,0,0,0-2,2v3H2V10.4a1,1,0,0,1,1-1ZM36.78,20.29h2.94v7.92H36.78Zm-25.5,0h2.94v7.92H11.28ZM2,46V25.24H9.32v3a2,2,0,0,0,2,2h2.94a2,2,0,0,0,2-2v-3h8.33V47H2.94a1,1,0,0,1-1-1Zm46.1,1H26.48V25.24h8.34v3a2,2,0,0,0,2,2h2.94a2,2,0,0,0,2-2v-3H49V46a1,1,0,0,1-1,1Z"/>
  </g>
</svg>
