<svg xmlns="http://www.w3.org/2000/svg" viewBox="0 0 51.2 50.2">
  
  <g>
    <path d="M50.56,19l-2.12-1,.43-.87A2.77,2.77,0,0,0,49,15.3,2.35,2.35,0,0,0,47.68,14L18,.31A2.57,2.57,0,0,0,16.24.22,2.37,2.37,0,0,0,15,1.53L10,12.87a2.52,2.52,0,0,0,1.19,3.22l8.07,3.66a3.4,3.4,0,0,0,1.87,3.66l2.63,1.22L18.71,37.19H10.3V26.73a.81.81,0,0,0-.85-.87H1a.81.81,0,0,0-.85.87v22.5A.81.81,0,0,0,1,50.1h8.5a.81.81,0,0,0,.85-.87V38.85h8.92a.74.74,0,0,0,.76-.52l5.35-13.08,2.21,1a3.7,3.7,0,0,0,1.36.27,2.82,2.82,0,0,0,1.19-.27,3.38,3.38,0,0,0,1.36-1l9.35,4.27a1.81,1.81,0,0,0,.93.17,3.13,3.13,0,0,0,.85-.17,2.38,2.38,0,0,0,1.28-1.31l.42-.87,2.13,1a.48.48,0,0,0,.34.09.59.59,0,0,0,.33-.09,2.48,2.48,0,0,0,.52-.44l3.48-7.93a.9.9,0,0,0-.51-1ZM8.6,48.36H1.8V27.6H8.6ZM29.5,24.73a1.67,1.67,0,0,1-1.28,0l-6.37-3a1.56,1.56,0,0,1-.85-1,.56.56,0,0,1-.08-.35l8.92,4.1c-.17.09-.26.18-.34.18Zm12.91,3a.68.68,0,0,1-.34.35.52.52,0,0,1-.51,0L11.91,14.43a.64.64,0,0,1-.34-.87L16.5,2.23a.62.62,0,0,1,.34-.35.52.52,0,0,1,.51,0L47,15.48a.68.68,0,0,1,.34.35.59.59,0,0,1,0,.52Zm3.91-1.22L45,25.86l2.71-6.37L49,20.1Z"/>
    <path d="M9.45,50.2H1a.91.91,0,0,1-.95-1V26.73a.91.91,0,0,1,1-1h8.5a.91.91,0,0,1,1,1V37.09h8.24l5-12.41-2.54-1.17a3.5,3.5,0,0,1-1.94-3.7l-8-3.63A2.6,2.6,0,0,1,10,12.83L14.88,1.49A2.48,2.48,0,0,1,16.2.13a2.6,2.6,0,0,1,1.87.09L47.72,13.91A2.45,2.45,0,0,1,49,15.27,2.77,2.77,0,0,1,49,17.18l-.38.78,2,.92A1,1,0,0,1,51.18,20l-3.54,8a2.2,2.2,0,0,1-.51.43.7.7,0,0,1-.38.1.58.58,0,0,1-.4-.11l-2-.91-.38.79a2.48,2.48,0,0,1-1.33,1.35,3.18,3.18,0,0,1-.89.18,1.94,1.94,0,0,1-1-.18l-9.27-4.24a3.46,3.46,0,0,1-1.35,1,3.12,3.12,0,0,1-1.23.27,3.82,3.82,0,0,1-1.39-.27l-2.12-1-5.32,13a.83.83,0,0,1-.85.58H10.4V49.23A.91.91,0,0,1,9.45,50.2ZM1,26a.71.71,0,0,0-.75.77v22.5A.71.71,0,0,0,1,50h8.5a.71.71,0,0,0,.75-.77V38.75h9a.64.64,0,0,0,.66-.45l5.4-13.19,2.31,1.09a3.6,3.6,0,0,0,1.31.26,2.87,2.87,0,0,0,1.15-.26,3.25,3.25,0,0,0,1.32-1l.05-.07.07,0,9.35,4.27a1.74,1.74,0,0,0,.89.16,2.78,2.78,0,0,0,.82-.17,2.27,2.27,0,0,0,1.22-1.25l.47-1,2.24,1a.43.43,0,0,0,.27.06.5.5,0,0,0,.29-.08,2.22,2.22,0,0,0,.46-.39h0L51,19.89a.8.8,0,0,0-.46-.83h0l-2.21-1,.47-1a2.57,2.57,0,0,0,.07-1.76,2.26,2.26,0,0,0-1.21-1.24L18,.4A2.47,2.47,0,0,0,16.27.32a2.28,2.28,0,0,0-1.21,1.25L10.13,12.91A2.41,2.41,0,0,0,11.27,16l8.14,3.69v.08a3.27,3.27,0,0,0,1.81,3.55l2.72,1.26,0,.09L18.77,37.29H10.2V26.73A.71.71,0,0,0,9.45,26ZM8.7,48.46h-7v-21h7Zm-6.8-.2H8.5V27.7H1.9ZM41.82,28.2a.66.66,0,0,1-.3-.07L11.87,14.53a.76.76,0,0,1-.39-1L16.41,2.19a.78.78,0,0,1,.38-.4.64.64,0,0,1,.6,0L47,15.39a.73.73,0,0,1,.39.4.66.66,0,0,1,0,.61L42.5,27.73a.82.82,0,0,1-.38.4A.66.66,0,0,1,41.82,28.2ZM17.09,1.91a.42.42,0,0,0-.21.06.57.57,0,0,0-.29.3L11.66,13.6a.56.56,0,0,0,.29.75L41.6,28A.47.47,0,0,0,42,28a.65.65,0,0,0,.29-.3l4.92-11.34a.46.46,0,0,0,0-.44.62.62,0,0,0-.3-.3L17.31,2A.49.49,0,0,0,17.09,1.91ZM46.37,26.6l-1.54-.69,0-.09,2.76-6.46,1.55.69,0,.09Zm-1.28-.79,1.18.53,2.63-6.19-1.17-.52ZM28.86,25a1.79,1.79,0,0,1-.67-.14l-6.38-3a1.63,1.63,0,0,1-.89-1,.61.61,0,0,1-.1-.4V20.3l9.24,4.24-.18.1-.15.09a.42.42,0,0,1-.21.09A1.74,1.74,0,0,1,28.86,25ZM21,20.61a.19.19,0,0,0,0,.12l0,0a1.44,1.44,0,0,0,.79.9l6.38,3a1.45,1.45,0,0,0,1.19,0h0a.57.57,0,0,0,.12-.07h0Z"/>
  </g>
</svg>
