<svg xmlns="http://www.w3.org/2000/svg" viewBox="0 0 39 39">
  
  <path d="M2.36,25.21A8.08,8.08,0,0,0,13.79,36.64L22,28.48a8.09,8.09,0,0,0,0-11.43,1.15,1.15,0,1,0-1.63,1.63,5.74,5.74,0,0,1,0,8.16L12.16,35A5.77,5.77,0,0,1,4,26.84l8.16-8.16a1.18,1.18,0,0,0,.35-.82,1.15,1.15,0,0,0-.34-.82,1.17,1.17,0,0,0-.83-.34,1.12,1.12,0,0,0-.81.35L2.37,25.21ZM17.05,10.52a8.09,8.09,0,0,0,0,11.43,1.16,1.16,0,0,0,.82.35A1.14,1.14,0,0,0,19,21.13a1.1,1.1,0,0,0-.35-.81,5.74,5.74,0,0,1,0-8.16L26.84,4A5.77,5.77,0,1,1,35,12.15l-8.16,8.16h0a1.13,1.13,0,0,0-.34.82,1.1,1.1,0,0,0,.33.82,1.17,1.17,0,0,0,.83.34,1.16,1.16,0,0,0,.82-.35l8.16-8.16A8.08,8.08,0,0,0,25.21,2.36l-8.16,8.16Z"/>
</svg>
