<svg xmlns="http://www.w3.org/2000/svg" viewBox="0 0 54 54">
  
  <g>
    <polygon points="5 20 7 20 7 22 5 22 5 20"/>
    <polygon points="8 20 10 20 10 22 8 22 8 20"/>
    <polygon points="12 20 14 20 14 22 12 22 12 20"/>
    <polygon points="15 20 17 20 17 22 15 22 15 20"/>
    <polygon points="20 20 22 20 22 22 20 22 20 20"/>
    <polygon points="5 24 17 24 17 26 5 26 5 24"/>
    <polygon points="19 24 22 24 22 26 19 26 19 24"/>
    <polygon points="44 5 46 5 46 7 44 7 44 5"/>
    <path d="M10.2,14.2h1.6V16H15V14.2H13.4V12.4H15V10.6H13.4V8.8H15V7H11.8V8.8H10.2V7H7V8.8H8.6v1.8H7v1.8H8.6v1.8H7V16h3.2Zm1.6-3.6v1.8H10.2V10.6Z"/>
    <path d="M54,29.53A15.11,15.11,0,0,0,50.63,20V1.69A1.69,1.69,0,0,0,48.94,0H1.69A1.69,1.69,0,0,0,0,1.69v27a1.69,1.69,0,0,0,1.69,1.69h22A15.12,15.12,0,0,0,35.44,44.3V54h1.69V48.09H40.5V54h1.69V44.3A15.2,15.2,0,0,0,54,29.53ZM1.69,1.69H48.94V18.23A15.12,15.12,0,0,0,23.71,28.69h-22ZM40.5,46.41H37.13V44.63a10.52,10.52,0,0,0,1.68.09,10.64,10.64,0,0,0,1.69-.09ZM38.81,43A13.42,13.42,0,0,1,25.4,30.37h1.68a11.79,11.79,0,0,0,23.55-.84v-.84H48.94v.84a10.1,10.1,0,0,1-20.17.84h7.51V28.69H28.77a10.17,10.17,0,0,1,10-9.29V17.72a11.74,11.74,0,0,0-11.73,11H25.4A13.48,13.48,0,0,1,38.81,16a13.24,13.24,0,0,1,10.13,4.64V27h1.69V23a13.16,13.16,0,0,1,1.68,6.5A13.54,13.54,0,0,1,38.81,43Z"/>
    <polygon points="17 7 19 7 19 9 17 9 17 7"/>
    <polygon points="38 29 40 29 40 31 38 31 38 29"/>
    <polygon points="41 29 43 29 43 31 41 31 41 29"/>
  </g>
</svg>
