<svg xmlns="http://www.w3.org/2000/svg" viewBox="0 0 53 50">
  
  <g>
    <path d="M50.87,30.37h0c-2.2-1.27-4.46-2.51-6.43-3.46L31.78,20.82a4.34,4.34,0,0,0,.32-1.7,2.71,2.71,0,0,0-1.51-2.4h0a0,0,0,0,1,0,0h0a3.88,3.88,0,0,0-3.18.11,5.33,5.33,0,0,0-1,.58,3.22,3.22,0,0,0-1.23-1.28,3.29,3.29,0,0,0-.93-.35l.13-.22a1.73,1.73,0,0,0-.65-2.37l-1.05-.59L24,10.74l.36.21a1.78,1.78,0,0,0,2.45-.68l1.34-2.4a1.91,1.91,0,0,0-.66-2.54L19,.25A1.7,1.7,0,0,0,17.6.06h0a1.79,1.79,0,0,0-1.1.85L15.17,3.33a1.9,1.9,0,0,0,.65,2.53l.11.07-1,1.44,1.73.84.9-1.31,4.79,2.86L21,11.66,15.3,8.44A1.8,1.8,0,0,0,14,8.27h0a1.78,1.78,0,0,0-1.08.8L8.44,16.54a1.73,1.73,0,0,0,.66,2.37l.3.17-.76,1.1-.88-.53a1.73,1.73,0,0,0-1.36-.18h0a1.76,1.76,0,0,0-1.09.86L4,22.73a1.91,1.91,0,0,0,.66,2.54l8.51,5.08a1.78,1.78,0,0,0,2.45-.67l1.34-2.41a1.92,1.92,0,0,0-.65-2.54l-6-3.58L11.07,20l4.66,2.61-.8,1.16,1.73.84.73-1.06.15.08A1.82,1.82,0,0,0,20,23l1-1.77a3.2,3.2,0,0,0,.82.69,3.34,3.34,0,0,0,2.13.4,2.64,2.64,0,0,0,1.43,2,3.53,3.53,0,0,0,2.31.2.88.88,0,0,0,.3.39l6.23,4.58,1.55,1.15h0A.83.83,0,0,0,37,30.43a.92.92,0,0,0-.24-1.27L35.22,28l-5.8-4.27a6.34,6.34,0,0,0,1.47-1.37L43.7,28.55c1.91.92,4.14,2.15,6.31,3.4a2.72,2.72,0,0,1,.93,3.69h0v0a2.36,2.36,0,0,1-3.27,1.08h0q-3.19-1.92-6.21-4.14h0a.89.89,0,0,0-.65-.17.86.86,0,0,0-.57.38,1,1,0,0,0-.14.68.93.93,0,0,0,.37.59c2,1.49,4.13,2.89,6.29,4.19h0l.07,0h0l0,0a4.08,4.08,0,0,0,5.58-1.86A4.64,4.64,0,0,0,50.87,30.37ZM17.77,4.88l-1.05-.62,1.33-2.4h0s0,0,0,0l8.52,5.08-1.34,2.4h0L18.61,5.39l.05-.07ZM14,28.74s0,0,0,0L5.52,23.66l1.34-2.4h0l8.52,5.08Zm4.39-6.59h0l0,0,.27-.39-1.73-.84-.21.29L10,17.41l4.44-7.48h0l8.44,4.74L22.08,16a3.37,3.37,0,0,0-1.48,1.35,3.41,3.41,0,0,0-.44,1.88Zm4.36-1.88a1.46,1.46,0,0,1-.68-.87l1.05-1.76A1.45,1.45,0,0,1,25,18.86l-.09.1h0l0,0a5.84,5.84,0,0,0-.68,1.34A1.42,1.42,0,0,1,22.79,20.27Zm3.64,2.52c-.23-.11-.43-.38-.46-.93a3.79,3.79,0,0,1,.07-.62,2.59,2.59,0,0,0,.39-.53,3.39,3.39,0,0,0,.36-1,5,5,0,0,1,1.59-1.34,1.3,1.3,0,0,1,1.18-.1h0c.23.11.43.38.45.92a2.72,2.72,0,0,1-.2,1.09.85.85,0,0,0-.45.62.82.82,0,0,0,0,.27h0a4.36,4.36,0,0,1-1.71,1.49A1.42,1.42,0,0,1,26.43,22.79Z"/>
    <path d="M14.7,48.08H11.94a.94.94,0,0,0-.66.28,1,1,0,0,0,0,1.36.94.94,0,0,0,.66.28H14.7a.92.92,0,0,0,.66-.28,1,1,0,0,0,0-1.36A.92.92,0,0,0,14.7,48.08Z"/>
    <path d="M23,43.28H20.85a3.55,3.55,0,0,0-3.53-3H6.52a3.48,3.48,0,0,0-3.48,3H.92a.94.94,0,0,0-.92,1V49a.94.94,0,0,0,.92,1H9.19a.94.94,0,0,0,.66-.28,1,1,0,0,0,0-1.36.94.94,0,0,0-.66-.28H1.84V45.2H3.19a.93.93,0,0,0,1.38,0H19.31a.94.94,0,0,0,1.39,0h1.35v2.88H17.46a.91.91,0,0,0-.66.28,1,1,0,0,0,0,1.36.91.91,0,0,0,.66.28H23a.94.94,0,0,0,.92-1v-4.8A.94.94,0,0,0,23,43.28ZM6.57,42H17.32A1.77,1.77,0,0,1,19,43.28H4.86A1.76,1.76,0,0,1,6.57,42Z"/>
    <path d="M38.82,30.6a.75.75,0,1,0,0,1.49.77.77,0,0,0,.53-.22.78.78,0,0,0,.21-.53.73.73,0,0,0-.21-.52A.77.77,0,0,0,38.82,30.6Z"/>
  </g>
</svg>
