<svg xmlns="http://www.w3.org/2000/svg" viewBox="0 0 44.4 45.4">
  
  <g>
    <path d="M43.64,40.52h-.55A2.76,2.76,0,0,0,40.37,38H30.26a2.77,2.77,0,0,0-2.78,2.52h-.72a.74.74,0,0,0-.76.78v3.33a.73.73,0,0,0,.76.77H43.64a.73.73,0,0,0,.76-.77V41.3A.74.74,0,0,0,43.64,40.52Zm-14.59,0a1.29,1.29,0,0,1,1.21-1H40.31a1.27,1.27,0,0,1,1.23,1Zm-1.52,3.27V42H42.87v1.78Z"/>
    <path d="M30.28,21.27a2.27,2.27,0,0,0-.12,2.78,2.54,2.54,0,0,0,1.46.87h.29a2,2,0,0,0,1.32-.44l10.32-7.92A2.27,2.27,0,0,0,44,13.47a2.56,2.56,0,0,0-1.43-.87,2,2,0,0,0-1.23.22l-7-9.18a1.94,1.94,0,0,0,.5-1.15A2.15,2.15,0,0,0,34.34.86,2.25,2.25,0,0,0,31.27.42L21,8.34a2.67,2.67,0,0,0-.87,1.45,2.18,2.18,0,0,0,.45,1.64,2.6,2.6,0,0,0,1.46.88h.29a2.3,2.3,0,0,0,1-.24l2.34,3.14L1.57,31.84A3.67,3.67,0,0,0,.06,34.2a3.47,3.47,0,0,0,.66,2.74A3.44,3.44,0,0,0,3.2,38.4h.42a3.55,3.55,0,0,0,2.29-.85L28.56,19Zm-2.7-3.52L4.91,36.39a2,2,0,0,1-1.5.46A2.13,2.13,0,0,1,2,36.06a1.86,1.86,0,0,1-.41-1.55,2.18,2.18,0,0,1,.83-1.36l24.19-16.7Zm3.88,4.43,10.31-7.9a.72.72,0,0,1,.4-.14h.09a.77.77,0,0,1,.43.26.64.64,0,0,1-.13.93L32.25,23.24a1.08,1.08,0,0,1-.49.14.77.77,0,0,1-.43-.26A.65.65,0,0,1,31.46,22.18ZM33.12,4.59,40,13.68l-8.64,6.58-6.83-9.09Zm.18-2.31a.79.79,0,0,1-.27.44l-10.3,7.9a.58.58,0,0,1-.47.09.8.8,0,0,1-.45-.26,1.08,1.08,0,0,1-.15-.48.82.82,0,0,1,.27-.46L32.24,1.66a.75.75,0,0,1,.4-.13.6.6,0,0,1,.52.25A1,1,0,0,1,33.3,2.28Z"/>
  </g>
</svg>
