<svg xmlns="http://www.w3.org/2000/svg" viewBox="0 0 49 50">
  
  <path d="M47.53,32.29C46.1,30,41.59,23.6,41.31,23.21A2.68,2.68,0,0,0,39.44,22a3.16,3.16,0,0,0-2.42.55,3.2,3.2,0,0,0-.93,4.35l1,2.06-5.34-2.17L26,14.69l3.25,1.67a3.66,3.66,0,0,0,5.12-1.22,3.71,3.71,0,0,0,.49-2.84,3.87,3.87,0,0,0-1.65-2.4c-.49-.34-9-6.13-12-8A13.46,13.46,0,0,0,8.24,1.43a14.36,14.36,0,0,0-7.31,8,14.56,14.56,0,0,0,.22,10.8L8,35a3.73,3.73,0,0,0,3.41,2.17A4.12,4.12,0,0,0,13,36.86a3.45,3.45,0,0,0,1.6-1.45l.88,1.89a3.58,3.58,0,0,0,2.14,2,3.34,3.34,0,0,0,1.27.22,4.32,4.32,0,0,0,1.43-.28l.66.23A3.45,3.45,0,0,0,20,40.64,3.05,3.05,0,0,0,20,43.15a2.8,2.8,0,0,0,1.65,1.62l11.5,4.56A10.67,10.67,0,0,0,36.8,50a12.31,12.31,0,0,0,11.06-7.3,11,11,0,0,0-.33-10.41ZM18.15,37.64A2,2,0,0,1,17,36.58L14.85,32a.17.17,0,0,0-.06-.11L10.22,22a.8.8,0,0,0-1.1-.39.81.81,0,0,0-.38,1.12l4.56,9.8a2.08,2.08,0,0,1-1,2.79,2,2,0,0,1-2.75-1L2.69,19.54A12.76,12.76,0,0,1,8.9,3a12,12,0,0,1,11.39.39c3,1.84,11.94,7.91,12,8a2.14,2.14,0,0,1,.93,1.33A2.41,2.41,0,0,1,33,14.3a2.15,2.15,0,0,1-1.32.95A2.31,2.31,0,0,1,30,15a.05.05,0,0,1-.05-.06l-6-3.12a.83.83,0,0,0-.88.06,8.59,8.59,0,0,1-10.45-.78.85.85,0,0,0-1.21,0,.88.88,0,0,0,0,1.22,10.32,10.32,0,0,0,12.1,1.34l5.78,12.25-1.93-.94a3.15,3.15,0,0,0-2.81.28L22,19.65a.78.78,0,0,0-1.1-.39.81.81,0,0,0-.39,1.11l2.86,6.13c-.05.05-.05.11-.11.22A3.08,3.08,0,0,0,23,28.28l-.83-.34a3.17,3.17,0,0,0-2.64.17l-1.81-3.9a.8.8,0,0,0-1.1-.39.82.82,0,0,0-.39,1.12l2,4.4a2.5,2.5,0,0,0-.17.39,3.07,3.07,0,0,0-.05,2.5,3.14,3.14,0,0,0,1.26,1.45,3.58,3.58,0,0,0-.93,1.23,3,3,0,0,0-.06,2.5l.17.34c-.17-.06-.22-.11-.33-.11ZM46.37,42c-2.25,5-7.81,7.52-12.65,5.79l-11.5-4.56a1.32,1.32,0,0,1-.72-.73,1.46,1.46,0,0,1,.06-1.17,1.61,1.61,0,0,1,2-.89l7.65,3.06a.85.85,0,0,0,1.1-.5.87.87,0,0,0-.5-1.11l-7.64-3-.11,0-3.86-1.56a1.23,1.23,0,0,1-.44-.56,1.46,1.46,0,0,1,.06-1.17,1.62,1.62,0,0,1,.93-.89c.34-.11,8.7,3.06,8.7,3.06a.85.85,0,0,0,1.1-.5.87.87,0,0,0-.5-1.11l-9.84-3.9a1.32,1.32,0,0,1-.72-.73,1.46,1.46,0,0,1,.06-1.17,2.17,2.17,0,0,1,.66-.78,1.61,1.61,0,0,1,1.32-.17L33,33.9a.84.84,0,0,0,1.1-.5.86.86,0,0,0-.49-1.11l-8-3.23a1.37,1.37,0,0,1-.77-.78,1.44,1.44,0,0,1,0-1.06,1.73,1.73,0,0,1,.55-.67,1.4,1.4,0,0,1,1.44-.22l11.82,5a.84.84,0,0,0,.94-.22.88.88,0,0,0,.11-.95S37.4,26,37.4,25.94a1.51,1.51,0,0,1,.5-2.06,1.77,1.77,0,0,1,1.16-.28,1.39,1.39,0,0,1,.82.56c.06.06,4.73,6.74,6.16,9a9.16,9.16,0,0,1,.33,8.8Z"/>
</svg>
