<svg xmlns="http://www.w3.org/2000/svg" viewBox="0 0 51 38">
  
  <g>
    <path d="M50.8,31.4a.83.83,0,0,0-.65-.31H46.59a2.34,2.34,0,0,0,.16-.86V2.59A2.57,2.57,0,0,0,44.2,0H6.8A2.57,2.57,0,0,0,4.25,2.59V30.23a2.34,2.34,0,0,0,.16.86H.85a.83.83,0,0,0-.65.31.88.88,0,0,0-.19.7l.85,5.18A.86.86,0,0,0,1.7,38H49.3a.86.86,0,0,0,.84-.72L51,32.1A.88.88,0,0,0,50.8,31.4ZM6,2.59a.85.85,0,0,1,.85-.86H44.2a.84.84,0,0,1,.6.25.86.86,0,0,1,.25.61V30.23a.86.86,0,0,1-.25.61.84.84,0,0,1-.6.25H6.8A.86.86,0,0,1,6,30.23ZM48.58,36.27H2.42l-.57-3.45h47.3Z"/>
    <polygon points="8 36 9 36 11 36 11 33 9 33 8 33 6 33 3 33 3 36 6 36 8 36"/>
    <rect x="44" y="33" width="3" height="3"/>
    <path d="M26.46,18.81a2.5,2.5,0,1,0-2.73-.54A2.51,2.51,0,0,0,26.46,18.81Zm-1.55-2.9a.83.83,0,0,1,1.42.59.82.82,0,0,1-.83.83h0a.83.83,0,0,1-.59-1.42Z"/>
    <path d="M35.46,18.81a2.5,2.5,0,1,0-2.73-.54A2.51,2.51,0,0,0,35.46,18.81Zm-1.55-2.9a.83.83,0,0,1,1.42.59.82.82,0,0,1-.83.83h0a.83.83,0,0,1-.59-1.42Z"/>
    <path d="M17.46,18.81a2.5,2.5,0,1,0-2.73-.54A2.51,2.51,0,0,0,17.46,18.81Zm-1.55-2.9a.83.83,0,0,1,1.42.59.82.82,0,0,1-.83.83h0a.83.83,0,0,1-.59-1.42Z"/>
  </g>
</svg>
