<svg xmlns="http://www.w3.org/2000/svg" viewBox="0 0 57 49">
  
  <g>
    <path d="M49,29a.92.92,0,0,0-.65.26,8.82,8.82,0,0,1-6.27,2.62.88.88,0,0,0-.88.75c-.84,6.28,1,10.19,3.06,12.45A10.45,10.45,0,0,0,48.77,48a.9.9,0,0,0,.46,0,10.45,10.45,0,0,0,4.5-2.89c2.1-2.26,3.9-6.17,3.06-12.45a.89.89,0,0,0-.89-.75,8.8,8.8,0,0,1-6.26-2.61A.87.87,0,0,0,49,29Zm0,2.06a10.71,10.71,0,0,0,6.1,2.53c.58,5.44-1,8.51-2.68,10.33A8,8,0,0,1,49,46.21a8,8,0,0,1-3.41-2.29C43.9,42.1,42.33,39,42.91,33.56A10.24,10.24,0,0,0,49,31.06Z"/>
    <path d="M2.63,0A2.66,2.66,0,0,0,0,2.67V45.33A2.66,2.66,0,0,0,2.63,48H26.25V46.22H2.63a.87.87,0,0,1-.88-.89V2.67a.87.87,0,0,1,.88-.89H32.38a.86.86,0,0,1,.87.89v9.78H35V2.67A2.66,2.66,0,0,0,32.38,0Z"/>
    <path d="M17.5,39A2.5,2.5,0,1,0,20,41.5,2.51,2.51,0,0,0,17.5,39Zm0,1.67a.83.83,0,1,1-.83.83A.82.82,0,0,1,17.5,40.67Z"/>
    <path d="M14.9,4a.85.85,0,0,0-.64.29,1.1,1.1,0,0,0,0,1.42A.85.85,0,0,0,14.9,6h6.2a.85.85,0,0,0,.64-.29,1.1,1.1,0,0,0,0-1.42A.85.85,0,0,0,21.1,4Z"/>
    <path d="M31.57,15A2.64,2.64,0,0,0,29,17.69V46.31A2.65,2.65,0,0,0,31.57,49h12V47.21h-12a.88.88,0,0,1-.86-.9V17.69a.88.88,0,0,1,.86-.9H44.43a.88.88,0,0,1,.86.9V29.31H47V17.69A2.65,2.65,0,0,0,44.43,15Z"/>
    <path d="M39,45a1,1,0,0,1-.29.71A1,1,0,0,1,37,45a1,1,0,0,1,.29-.71,1,1,0,0,1,1.42,0A1,1,0,0,1,39,45Z"/>
    <path d="M35.81,18a.73.73,0,0,0-.57.29,1.17,1.17,0,0,0,0,1.42.73.73,0,0,0,.57.29h2.38a.73.73,0,0,0,.57-.29,1.17,1.17,0,0,0,0-1.42.73.73,0,0,0-.57-.29Z"/>
  </g>
</svg>
