<svg xmlns="http://www.w3.org/2000/svg" viewBox="0 0 44.2 48.2">
  
  <g>
    <path d="M43.71,36.92,36.16,26,36.1,26l-1.49,1,7.61,11a.89.89,0,0,1,.06.94.9.9,0,0,1-.8.49H2.72a.9.9,0,0,1-.8-.49A.89.89,0,0,1,2,38L9.53,27.08,9.59,27,8.1,26l-7.61,11A2.72,2.72,0,0,0,2.72,41.2H41.48a2.72,2.72,0,0,0,2.23-4.28Z"/>
    <rect x="4" y="43" width="36.2" height="2.2"/>
    <rect x="7" y="46" width="31.2" height="2.2"/>
    <path d="M24.69,29.43a6.81,6.81,0,0,1-6,.41,7.17,7.17,0,0,1-4-4.77l0-.09-1.73.5,0,.1a9.06,9.06,0,0,0,5,6,7.9,7.9,0,0,0,3,.66v4h2.2V32a10,10,0,0,0,2.33-.89,7.15,7.15,0,0,0,3.38-4.57,7.55,7.55,0,0,0-.62-5.75c-1.53-2.47-4.42-3.19-7-3.82h-.05c-.82-.21-1.59-.4-2.29-.64a4.55,4.55,0,0,1-2.87-2.74A4.59,4.59,0,0,1,17,9.47a5.66,5.66,0,0,1,4.2-2.6A8.42,8.42,0,0,1,27.7,9.6l.07.07L29,8.35,29,8.28A11.06,11.06,0,0,0,23.2,5.13V0H21V5.05a7.52,7.52,0,0,0-5.46,3.36,6.35,6.35,0,0,0-1.15,5.68,6.32,6.32,0,0,0,4,3.91c.81.28,1.7.5,2.5.7,2.32.58,4.72,1.18,5.86,3a5.7,5.7,0,0,1,.4,4.29A5.35,5.35,0,0,1,24.69,29.43Z"/>
  </g>
</svg>
