<svg xmlns="http://www.w3.org/2000/svg" viewBox="0 0 42 46">
  
  <g>
    <path d="M38.72,5.59H41.2v19.8A20,20,0,0,1,21,45.2,20,20,0,0,1,.8,25.39V5.59H3.28a34.84,34.84,0,0,0,17-4.44L20.9.83h.2l.58.32A34.87,34.87,0,0,0,38.72,5.59Zm-.27,2.7A37.71,37.71,0,0,1,21,3.88,37.71,37.71,0,0,1,3.55,8.29v17.1A17.3,17.3,0,0,0,21,42.49a17.3,17.3,0,0,0,17.45-17.1Z" stroke="#fff" stroke-width="0.4"/>
    <path d="M21.87,31.68V34.2H19.13V31.68a3.56,3.56,0,0,1-2.33-3.3,3.7,3.7,0,0,1,7.4,0A3.57,3.57,0,0,1,21.87,31.68ZM20.5,29.3a.93.93,0,1,0-1-.92A1,1,0,0,0,20.5,29.3Z" stroke="#edf5f6" stroke-width="0.4"/>
    <path d="M12.13,16.28h0v-.2a8.37,8.37,0,0,1,16.74,0v3.53A3.66,3.66,0,0,1,31.2,23V34.54a3.68,3.68,0,0,1-3.7,3.66h-14a3.68,3.68,0,0,1-3.7-3.66V23a3.68,3.68,0,0,1,2.33-3.39ZM28.47,34.54V23a1,1,0,0,0-1-.95h-14a1,1,0,0,0-1,.95V34.54a1,1,0,0,0,1,1h14A1,1,0,0,0,28.47,34.54Zm-13.6-15.2H26.13V16.08a5.63,5.63,0,0,0-11.26,0Z" stroke="#edf5f6" stroke-width="0.4"/>
  </g>
</svg>
