<svg xmlns="http://www.w3.org/2000/svg" viewBox="0 0 40.5 40.5">
  
  <path d="M39.77,12.86H30L22,9.12a.75.75,0,0,0-.44-.07.68.68,0,0,0-.2.07l-7.67,3.74H3A18.74,18.74,0,0,1,20.25,1.45,18.94,18.94,0,0,1,33.87,7.14h-2.2a.74.74,0,0,0-.51.21.73.73,0,0,0-.22.52.69.69,0,0,0,.22.51.77.77,0,0,0,.52.22h3.81a.73.73,0,0,0,.72-.73V4.07A.69.69,0,0,0,36,3.51a.7.7,0,0,0-.58-.19.73.73,0,0,0-.64.74V6A20.42,20.42,0,0,0,20.25,0h0A20.27,20.27,0,0,0,0,20.25V26a.74.74,0,0,0,.73.71h6A2.76,2.76,0,0,0,7.45,28l.17.13,0,0,.15.1.36.26.82.61.48.35L12,31.29l4.26,3a2.4,2.4,0,0,0,2.82,0,3,3,0,0,0,1.66.48,19.08,19.08,0,0,0,5.71-1.52,29.68,29.68,0,0,0,5.73-2.8,2.28,2.28,0,0,0,1.19-1.92,2.35,2.35,0,0,0-.29-1.13,4.44,4.44,0,0,0-.52-.73h5.28A18.76,18.76,0,0,1,20.25,39.05,19,19,0,0,1,6.61,33.36H8.83a.75.75,0,0,0,.51-.21.72.72,0,0,0,.21-.52.73.73,0,0,0-.21-.52.87.87,0,0,0-.52-.21H5a.43.43,0,0,0-.16,0,.71.71,0,0,0-.59.72v3.81a.72.72,0,0,0,.2.52.75.75,0,0,0,1,0,.78.78,0,0,0,.21-.52V34.52a20.42,20.42,0,0,0,14.51,6A20.12,20.12,0,0,0,39.48,26.29a.45.45,0,0,0,.06-.19,20,20,0,0,0,1-5.85V13.58A.73.73,0,0,0,39.77,12.86ZM19.31,30.76l.08-.07-.32-.15s-1.9-1.59-3.85-3.21l-1.1-.9-1.66-1.37c-.78-.64-1.3-1.07-1.45-1.18a2.7,2.7,0,0,0-4.22,1.36H1.45v-5a18.57,18.57,0,0,1,1-5.94h9.66a2.25,2.25,0,0,0-.16.85,2.43,2.43,0,0,0,2.3,2.48,2.29,2.29,0,0,0,.59-.09l5.71-2.17,10.69,12h0l.1.12a4.77,4.77,0,0,1,.5.65.73.73,0,0,1,.11.43c0,.29,0,.4-.47.69l-.08.05a29.92,29.92,0,0,1-5.44,2.62,20.29,20.29,0,0,1-5.19,1.42,1.17,1.17,0,0,1-.81-.22A2.36,2.36,0,0,0,19.31,30.76Zm-9.94-6a1.23,1.23,0,0,1,.76.24s.64.52,1.4,1.16l1,.84,1.73,1.42,3.84,3.18.07.07a.89.89,0,0,1,.36.59.87.87,0,0,1-.18.65.89.89,0,0,1-1.29.2l-4.25-3L9.86,28,9,27.32l-.13-.1L8.56,27l-.09-.06a1.26,1.26,0,0,1-.35-.89A1.24,1.24,0,0,1,9.37,24.79Zm11.1-10.93-6,2.27h0l-.07,0-.2,0a1.08,1.08,0,0,1-.85-1,.86.86,0,0,1,.42-.74l7.89-3.85,7.88,3.67a.73.73,0,0,0,.3.07h9.2v5.94a18,18,0,0,1-.76,5h-7L21.27,14A.73.73,0,0,0,20.47,13.86Z"/>
</svg>
