<svg xmlns="http://www.w3.org/2000/svg" viewBox="0 0 47.5 47.49">
  
  <g>
    <path d="M12.75,7a12.72,12.72,0,0,0-.82,25.41V45.8h-1.3a.85.85,0,1,0,0,1.69h4.24a.85.85,0,1,0,0-1.69H13.62V32.39A12.71,12.71,0,0,0,12.75,7Zm.87,23.7v-7.9L18,18.56a.85.85,0,0,0-.57-1.46.81.81,0,0,0-.6.24l-3.18,3.09V16.11a.85.85,0,1,0-1.69,0v8.15L8.7,21.12a.85.85,0,0,0-1.17,1.22l4.4,4.28V30.7a11.1,11.1,0,1,1,1.69,0Z"/>
    <path d="M47.26,30l-9.18-9.34V16.29l8,8.14a.85.85,0,0,0,1.17,0,.84.84,0,0,0,0-1.18l-9.18-9.34V9.57l8,8.15a.85.85,0,0,0,1.17,0,.84.84,0,0,0,0-1.18L38.08,7.2V2.86l8,8.14a.83.83,0,1,0,1.18-1.17L37.84.24a.85.85,0,0,0-1.18,0L27.24,9.82a.85.85,0,0,0,0,1.19.83.83,0,0,0,.58.24h0a.79.79,0,0,0,.58-.25l8-8.14V7.2l-9.18,9.34a.85.85,0,0,0,0,1.18.82.82,0,0,0,.59.24h0a.82.82,0,0,0,.59-.25l8-8.14v4.34l-9.18,9.34a.85.85,0,0,0,0,1.18.83.83,0,0,0,.59.25h0a.86.86,0,0,0,.59-.25l8-8.14v4.33L27.24,30a.83.83,0,1,0,1.18,1.18l8-8.14V45.82H35.18a.84.84,0,0,0,0,1.67h4.14a.84.84,0,0,0,0-1.67H38.08V23l8,8.14a.85.85,0,0,0,1.18,0A.85.85,0,0,0,47.26,30Z"/>
  </g>
</svg>
