<svg xmlns="http://www.w3.org/2000/svg" viewBox="0 0 33 33">
  
  <g>
    <path d="M16.5,33A16.5,16.5,0,1,1,33,16.5,16.52,16.52,0,0,1,16.5,33Zm0-31.2A14.7,14.7,0,1,0,31.2,16.5,14.72,14.72,0,0,0,16.5,1.8Z"/>
    <path d="M11.5,32a1,1,0,0,1-1-.9V7.9a1.07,1.07,0,0,1,1-.9,1,1,0,0,1,1,.9V31.1A1,1,0,0,1,11.5,32Z"/>
    <path d="M7,13a1.85,1.85,0,0,1-.7-.2.91.91,0,0,1,0-1.2l4.5-4.3a.74.74,0,0,1,.7-.3,1.85,1.85,0,0,1,.7.2l4.5,4.3a.91.91,0,0,1,0,1.2,1,1,0,0,1-1.3,0L11.6,9.1,7.8,12.7A2,2,0,0,1,7,13Z"/>
    <path d="M22.5,27a1,1,0,0,1-1-.9V2.9a1.07,1.07,0,0,1,1-.9,1,1,0,0,1,1,.9V26.1A.92.92,0,0,1,22.5,27Z"/>
    <path d="M22.6,27a1.85,1.85,0,0,1-.7-.2l-4.6-4.3a.75.75,0,0,1,0-1.2,1,1,0,0,1,1.3,0l3.9,3.6,3.9-3.6a1,1,0,0,1,1.3,0,.82.82,0,0,1,0,1.2l-4.6,4.3c0,.1-.2.2-.5.2Z"/>
  </g>
</svg>
