<svg version="1" xmlns="http://www.w3.org/2000/svg" viewBox="0 0 907 154" enable-background="new 0 0 907 154"><path fill="#876E4C" d="M482.1 87c-.8 6.5-2.3 11.4-4.6 14.6-.4.6-3 1.7-7.9 3.1-4.9 1.5-12 2.2-21.4 2.2-12.2 0-22.5-4.3-30.9-13-8.5-8.7-12.7-19.2-12.7-31.4s4.9-22.6 14.6-31.2 21.3-12.9 34.6-12.9c6.3 0 11.1.5 14.3 1.6s6.7 1.8 10.3 2.3c1 .1 1.7 1.9 2.1 5.5s.7 6.8.7 9.5c.1 2.7 0 4.5-.2 5.2s-.7 1-1.3.9c-1.8-.2-3-1.8-3.5-4.8-.5-4-2.1-7.2-4.7-9.5-4.6-4.4-11.5-6.7-20.6-6.7s-16.9 3.7-23.2 11.2c-6.3 7.4-9.5 16.1-9.5 26 0 7.2 1.4 14.1 4.1 20.6s6.7 11.9 12.1 16.2c5.4 4.3 11.4 6.4 18.2 6.4 11.2 0 19.5-5.3 25.1-15.8.4-.6 1-1.2 1.9-1.6.9-.5 1.4-.8 1.5-.8.1-.1.2-.1.3-.1.4 0 .7.8.7 2.5zm25.5-67l23.1-1c17.4 0 30.3 3.8 38.6 11.5 8.4 7.7 12.6 17.7 12.6 30.1s-4.6 23.1-13.8 32-20.3 13.4-33.2 13.4c-.3 0-4-.2-11.1-.5s-12.8-.5-17-.5l-14.2.7c-2.6 0-3.9-.5-3.9-1.5s1.6-1.8 4.8-2.3c3.2-.6 5.4-1.5 6.8-2.9 1.3-1.4 2-3.7 2-6.8v-58.8c0-3-.7-5.2-2-6.6-1.3-1.3-3.6-2.3-6.8-2.9-3.2-.6-4.8-1.5-4.8-2.7 0-1 1.3-1.4 3.9-1.4l14 .3 1-.1zm5.4 69.2c0 5.1 2.1 8.5 6.3 10 3.8 1.4 8.4 2.1 13.9 2.1 10.5 0 19.1-3.6 25.8-10.8 6.7-7.2 10-16.7 10-28.3 0-11.7-3.8-21.1-11.4-28.3-7.6-7.2-16.3-10.9-26.2-10.9-8.6 0-13.7.6-15.4 1.8-2 1.3-3 3.4-3 6.1v58.3zm95.6-69.3l15-.8c10.2 0 18.5 2.1 25 6.3s9.7 9.7 9.7 16.7c0 8.5-2.7 15.6-8 21.3s-12.9 8.5-22.8 8.5c-1.8 0-3.3-.3-4.4-.8-1.1-.5-1.7-1.1-1.7-1.7 0-.3.2-.7.7-1s1-.5 1.4-.5l2 .3c1.4.2 2.7.3 4.2.4 10.9 0 16.3-7.8 16.3-23.4 0-7.7-2-13.3-6.1-17s-9.5-5.5-16.5-5.5c-5.8 0-8.6 1.8-8.6 5.5v62.2c0 6.5 3 10.3 9.1 11.4 3 .5 4.5 1.3 4.5 2.3s-1.3 1.5-3.9 1.5c-2.6 0-5.1-.2-7.4-.5-2.3-.3-4.3-.5-5.8-.5l-17.6.9c-2.6 0-3.9-.5-3.9-1.5s1.6-1.8 4.9-2.3c3.2-.6 5.6-1.6 7.2-3 1.5-1.4 2.3-3.7 2.3-6.9v-54.9c0-4.2-.6-7.3-1.7-9.3-1.1-2-3.2-3.3-6.3-3.8s-4.7-1.4-4.7-2.6c0-1 1.3-1.4 3.9-1.4l13.2.1zm74.6 0l15-.8c10.2 0 18.5 2.1 25 6.3s9.7 9.7 9.7 16.7c0 8.5-2.7 15.6-8 21.3s-12.9 8.5-22.8 8.5c-1.8 0-3.3-.3-4.4-.8-1.1-.5-1.7-1.1-1.7-1.7 0-.3.2-.7.7-1s1-.5 1.4-.5l2 .3c1.4.2 2.7.3 4.2.4 10.9 0 16.3-7.8 16.3-23.4 0-7.7-2-13.3-6.1-17s-9.5-5.5-16.5-5.5c-5.8 0-8.6 1.8-8.6 5.5v62.2c0 6.5 3 10.3 9.1 11.4 3 .5 4.5 1.3 4.5 2.3s-1.3 1.5-3.9 1.5c-2.6 0-5.1-.2-7.4-.5-2.3-.3-4.3-.5-5.8-.5l-17.6.9c-2.6 0-3.9-.5-3.9-1.5s1.6-1.8 4.9-2.3c3.2-.6 5.6-1.6 7.2-3 1.5-1.4 2.3-3.7 2.3-6.9v-54.9c0-4.2-.6-7.3-1.7-9.3-1.1-2-3.2-3.3-6.3-3.8s-4.7-1.4-4.7-2.6c0-1 1.3-1.4 3.9-1.4l13.2.1z" enable-background="new"/><g fill="#343434"><path d="M141.5 91.9c-.1.2-.2.3-.4.4"/><path d="M145.1 63.6c.4 0 .8-.3.8-.8 0-.4-.3-.8-.8-.8-.4 0-.8.4-.8.8.1.5.4.8.8.8zm35.1-32h-27.3v22.1c0 2.1.9 4 2.1 4.6l10.5 6.3c.2.3.6.4 1 .4.3 0 .6-.1.9-.3l10.7-6.4c1.3-.6 2.1-2.4 2.1-4.6v-22.1zm-18.2 6.4h-2.4v-5.6h2.4v5.6zm-1.7 1.9l.3-.4-.2-.4h.4l.3-.5.3.5h.4l-.2.4.3.4-.4.1v.5l-.4-.3-.4.3v-.5l-.4-.1zm-6.6 7.1v-5.4h2.9v5.4h-2.9zm.5-7.8h.4l.3-.5.3.5h.4l-.2.4.3.4-.4.1v.5l-.4-.3-.4.3v-.6h-.5l.3-.4-.1-.4zm3.2 5.5h.4l.3-.5.3.5h.4l-.2.4.3.4-.4.1v.5l-.4-.3-.4.3v-.5l-.4-.1.3-.4-.2-.4zm1.9-4.4c0-.1-.2-.2-.3-.2-.3 0-.4.4-.6.4-.2 0-.3 0-.3-.2 0-.1.3-.3.4-.4-1.8 0-1.8.8-2.1.8-.5 0 .4-.9.6-1.1-.4-.1-.6-.5-1-.7.2-.3.3-.2.5 0 0-.2.1-.4.6-.4.8 0 .6.8.7.8.1 0 0-.8.5-.8.8 0 1.8 2 .9 2-.2.2.1-.1.1-.2zm-2-5.9l.3-.4-.2-.4h.4l.3-.5.3.5h.4l-.2.4.3.4-.4.1v.5l-.4-.3-.4.3v-.5l-.4-.1zm-.8-2.1v5.7h-2.9v-5.6h2.9v-.1zm5.5 29.2l-6.5-3.9c-1.1-.7-1.6-2.1-1.8-3.6v-6.2h8.3v13.7zm-2.4-14.5v-5.4h2.4v5.4h-2.4zm10.8 14.9l-3 1.8h-.1c-.2.2-.5.3-.8.3s-.6-.1-.8-.3l-3-1.8v-14.2h7.7v14.2zm0-14.9h-7.7v-14.7h7.7v14.7zm9 6.9c-.1 1.6-.7 2.9-1.8 3.6l-6.5 3.9v-13.7h8.3v6.2zm0-6.9h-8.3v-14.7h8.3v14.7zm-17.9 5.8c0-.1-1 .3-.8.3 0-.3.6-.9.8-1.1 0-.4-.5 0-1 .2 1.6-2.2.6-1.3-.3-1.2 1.4-1.5 1-1.5 0-1 .8-.6 1-1.4.9-1.6-.8 1-1.4.8-1.4 1.8 0 .6-.2 1.6-.5 2-.4.4-.1-1.6-1.2-1.6-.3 0-1.2 0-1.4.4.2 0 .5.5.5.8 0 .2.2.8-.2.8s-.8-.8-.8-1.1v-.8c0-.9-1.4-2.1-2-2.1 0 .6.8.8.8 1.5l-.8-.3s.5.5.5.8l-.6.3c0 .3.3.3.4.6-.2-.1-.4 0-.5.1 0 .1.1.2.3.4-.1.1-.2.3-.2.8 0 1.7 1.1 2.6 1.9 2.6.6 0 .5-.4.5-.6 0 .3.3-.2.3.4l-.5.8c0 .6.9 0 .9.7 0 .8-.1.8-.1 1.1 0 .2.9-.3.9-.4.2.1.2.7.6.7.3 0 .3-.7.5-.7-.1 0 .8.6.8.3 0-.8-.3-.5-.3-1s1.1-.4.9-.7c-.2-.2-.3-.1-.4-.5 0 .1-.9-1.3.2-.6 1.3.4 1.4-2 1.3-2.1zm29.2 5.7c.5 0 .9-.4.9-.8s-.4-.8-.9-.8-.9.4-.9.8c0 .5.4.8.9.8zm-3.7 2.2c.5 0 .9-.4.9-.8s-.4-.8-.9-.8-.9.4-.9.8.5.8.9.8zm-43.1 5c.5 0 .9-.4.9-.8s-.4-.8-.9-.8-.9.4-.9.8.4.8.9.8zm2.8.2c.5 0 .9-.4.9-.8s-.4-.8-.9-.8-.9.4-.9.8.4.8.9.8zm77.7-37.6c1.3 1.6 1.6 4.1.7 5.9-.5 0-.4-.7-.5-1.1-1-1.8-1.7-4-.9-6 .6 0 .3.8.7 1.2zm-114 2.1c-.3 1.2-.3 2.7 0 3.8-.2.2-.2-.2-.4-.2-1.9-1.3-1-4-1.5-5.9.1-.1.3-.2.5-.1.8.6 1.2 1.4 1.4 2.4zm118.1.2c.3.5-.2 1.1-.6 1.3-.4.1-.9-.1-1.2-.5-.1-.5.1-1 .6-1.3.4-.1.9 0 1.2.5zm-121 2.1c-.1.4-.2.9-.6 1.1-.3 0-.7 0-.9-.2-.3-.2-.3-.7-.2-1 .2-.3.6-.4.9-.4s.6.1.8.5zm122.8.8c.1.3.1.5 0 .8-.3.4-.8.6-1.3.4-.3-.2-.4-.5-.5-.8.1-.4.5-.7.8-.9.5 0 .7.2 1 .5zm-2.7 0c.4.2.1.7 0 1-.2.2-.6.6-1 .5-.2-.2-.5-.2-.6-.6 0-.5.2-1 .7-1.1.4-.1.6.1.9.2zm-3.5.7c0 .5 0 1.2-.6 1.3-.6.2-1-.3-1.1-.7 0-.5.2-1 .7-1.2.5.1.8.4 1 .6zm-111.4.3c.1.5-.3.8-.6 1-.3.1-.8-.2-1-.5-.3-.3.1-.6.2-.9.5-.5 1.2-.1 1.4.4zm-2.9.1c0 .4-.2.8-.5.9-.4.1-.8-.1-1-.4-.2-.5.1-.9.4-1.1.6-.2.9.3 1.1.6zm102.8.2c.5 1 .9 2.2 1 3.5-.2.9.1 2.1-.5 2.7-.7-.2-.7-1.1-1.1-1.5-.9-1.7-.1-3.7.2-5.3.3-.1.3.4.4.6zm-105 .6c.1.6-.3.9-.6 1.2-.6.1-1-.3-1.2-.7 0-.5.2-1 .6-1.2.5 0 .9.3 1.2.7zm112.5 1.4c.6 1.4.7 3.1.2 4.6l-.3.2c-.7-1.3-1.6-2.5-2-3.9 0-1 .2-1.9.6-2.7.3-.2.5 0 .7.3.1.6.4 1.2.8 1.5zm6-.9c0 .5-.2 1-.7 1.2-.5.1-.9 0-1.1-.6-.1-.5.1-.9.5-1.2.6-.3 1.1.2 1.3.6zm-116.2 1.5c0 .4-.3.8-.7.9-.4.3-.7-.2-1-.3-.1-.4-.2-.7 0-1.1.1-.3.5-.3.8-.4.3.2.8.4.9.9zm2-.2c.2.5-.3.7-.5 1-.6.2-.9-.2-1.1-.6-.1-.5.2-.8.5-1.1.6-.1.9.2 1.1.7zm115.6-.2c0 .6-1 1.3-1.1 1.9-.5 1.3-1.7 2.2-2.9 2.7-.3.2-.7.6-1.1.6-.1-1 .8-1.8 1.3-2.7.9-1.3 2.3-2.1 3.8-2.5zm-118.6 2c.7.8 1.1 1.5 2 2.2.1.2-.1.5-.3.5-2.3-.1-3.9-2.5-5.1-4.2.1-.5.8-.1 1.1-.1.8.6 1.7.8 2.3 1.6zm119.2.7c-.1 2.1-1.1 4.2-2.9 5.2-.5.2-1.1.7-1.6.4 1-2.1 2.5-3.7 4.2-5.6h.3zm-9.1 1.4c.1.7-.2 1.2-.8 1.4-.5 0-.9-.4-1.1-.8 0-.5.2-.9.7-1.1.1-.1.4-.1.6-.1.2.1.4.4.6.6zm-112.7.4c.9.6 1.7 1.5 2.6 2.2-.6.4-1.4 0-2.1 0-1.6-.6-2.7-2-4.4-2.4.1-.5.7-.3 1-.5 1 0 1.9.5 2.9.7zm51-14.2c-2.7-1.1-4.4 1.7-7.1 1.4-.3.2-.2.5-.4.8-.1.1-.4 0-.5 0-.1-1.2-.5-2.2-.7-3.3-.3-.5-.1-1.2-.4-1.6-1.5-4.2 3.7-1 4.8-3.5.9-2.1-1.8-2.3-2.6-3.8v-.6c-.8-.8-1.6-1-2.1-2 .3-1.2.5-2.5.1-3.7 0-.3-.2-.7-.7-.5-.9 1.3-1.6 2.2-2.4 3.5-.9-.7-1.8-1.5-2.8-2.1-.7-.1-1.4-.8-2.2-.5-.1.3 0 .5.1.7 0 1.9 1 3.4 2.3 4.7l.1.7c-.9 2-.6 4.2-.9 6.3-2.1 5.5-5.6 10.7-10.3 14.5-2.7 3.1-6 6-6.4 10.3-.1.7.1 1.5-.4 2-1.6-.6-3.1-1.3-4.4-2.3-2.2-1.5-5.3-1.3-6.8-4.1-.6-1.1.1-2.2.7-3 1.6-1.5 1.4-4.3.5-6.1-.2-.1-.2.2-.4.2-.1 2.8-2.4 4.8-1.5 7.9.2.9.7 1.5.9 2.3l-1.1-.2c-1.1-.1-2.1-.6-3.2-.4-2.2 1-5.2-.2-7 1.8-.3.1-.7.1-.6.5 1.1 0 2.1.3 3.1.2 1.7.3 2.8-1.1 3.9-1.7h.3c.5-.5 1.3-.2 1.9-.3 3 .3 5.3 1.8 7.8 3.3v.2c-1 .4-2.1.7-3 1.3-1.1.8-2.3 1.9-2.7 3.2-.8 1.2.2 2.2.7 3.3 0 .5.1 1.1.5 1.3 1.5-1.6.1-3.7.3-5.5.4-1.4 1.7-2.1 3.1-2.5 2.7-1.2 4.7 1.1 6.9 2.3-.1 2.2.2 4.3-.2 6.5-.7.2-1.5.4-2.2.3-3.8.3-6.7 2.3-10.1 3.5-1.5.5-3.3.5-4.9 1.1 1.2.3 2.4-.1 3.7-.1 4.7-.7 8.2-4.3 13.3-3.7l.1.1c-.6 1.2-1.3 2.2-2.2 3.1-.2-.5-.2-1-.7-1.3-.4-.2-.8 0-1.1.4-.2.2-.2.5 0 .7.2.4.6.5 1 .7-.1.4-.6.6-.9 1-1.3 2.2-4.1 1.3-5.6 2.9-.2.3-1.1.5-.7 1.1 1.8.2 3.6-.3 4.9-1.3 1.8-2 3.6-3.8 5.4-5.7.3 1.5-.1 3.1-1.1 4.4-.4-.2-.8-.6-1.3-.7-.5.1-.8.6-.9 1 .2.3.4.7.7 1-1.6 1.2-3.7 1.3-5.5 1.8-3.5.4-6.9.7-10.4.8-1.7-.1-3.6.5-5.1 0-1.8.3-3.8-.2-5.2.8-.2.2.1.5.1.7 2.2 1.4 5.2.3 7.7.7h18.8c1.4 0 2.8-.1 3.9-.7 2.4-1.4 3.8-3.9 5-6.3.5-.9.8-1.9 1-2.9.5-1.6 2-2.8 3.6-2.9.2 2.5-.2 5-.8 7.3-.3 1.5-1.3 3-.7 4.6.1.8 1 .8 1.6.9 5.8-.1 11.5-.3 17.6.1 1.1.2 2.1.5 3.2.5.1-.1.4-.2.3-.5-.1-.5-.5-1.2-1.1-1.3-.1-.3-.5-.2-.7-.4-3-1.7-6.7-.8-10.3-.8-1.9.2-3.7.5-5.3-.5-.7-.9-.2-3.6-.2-3.6 0-1.1 2.6-8.6 2.9-9.3.1-.7.4-1.4.3-2.2.4-1 .3-2.2.3-3.3.2-1.5 1-3 1.5-4.5l.8-2.2c.3-.9.4-1.8 1-2.5 1.5 1 3.1 1 3.8 2.7l.7 4c0 .2.2.7.5.4 1.2-.8.9-2.6.9-3.9.3-1.5-.8-2.2-1.2-3.5-.3-.2-.9-1.4-.9-1.4-.2-1.1-2.5-1.8-2-3.1.3-1.1.6-2.1 1.6-2.7.2.1.2.2.2.3l.6-.4.1-4c1.5 0 3.8.2 5.4.2.4.1.8.5 1.2.5l.4-.5 3.8-.7c-1.5-.3-2.5-2.2-4-2.2zm4.2 1.7c.1 0 .2 0 .4-.1l-.4.1zm-41.5 13.4c0 .6-.3.9-.7 1.1-.4-.1-.7-.2-.9-.6-.2-.5.3-.9.7-1.1.3.1.8.2.9.6zm-3.1 0c.3.3.3.8.2 1.1-.3.3-.9.5-1.2.1-.3-.3-.6-.6-.3-1 .3-.3.9-.6 1.3-.2zM219.5 43.7c.2.5-.2.9-.6 1.1-.5-.1-1.1-.2-1.1-.9 0-.4.4-.6.7-.7.4-.1.8.2 1 .5zm2.5-.1c.1.2.5.6.1.9-.2.1-.3.2-.5.4-.5.1-1-.1-1.1-.6s.3-.8.7-1c.3-.1.6.1.8.3zm-117.1.6c-.2.6-.7.8-1.3.6-.1-.1-.3-.4-.4-.6 0-.3.1-.7.5-.8.7 0 1.1.3 1.2.8zm16.1.8c-.1.4-.5.7-.8.9-.5 0-.8-.3-1.1-.7 0-.4.2-.9.6-1 .5-.1 1.1.3 1.3.8zm-2.8-.3c.1.1.3.5.1.8-.3.2-.7.7-1.2.4-.3-.2-.6-.4-.5-.9.2-.2.4-.5.7-.6.4-.1.6.1.9.3zm111.1.6c0 .4-.4.8-.6.9-.4.1-.8.1-1.1-.2-.3-.1-.2-.5-.2-.7.2-.3.6-.5.9-.6.5 0 .7.3 1 .6zm3 .4c-.1.4-.5.8-.9.9-.3 0-.8-.1-.7-.6 0-.3.2-.7.4-.8.5-.2 1.1 0 1.2.5zm-121.9.7c.1.6-.1 1-.6 1.2-.3.2-.7-.1-.9-.2-.2-.2-.4-.6-.2-1 .1-.4.5-.3.8-.5.4 0 .6.1.9.5zm2.3.4c.1.4-.3.5-.4.8-.2.1-.6.3-.9.1-.3-.3-.7-.7-.4-1.2.5-.6 1.5-.3 1.7.3zm113.8-.2c0 .5-.4.8-.7 1.1-.4.1-.9-.2-1-.6 0-.4.2-.7.5-.9.5-.1.9 0 1.2.4zm3.9.7c-.1.4-.1.9-.5 1.2-.4.1-.9 0-1.2-.2s-.3-.7-.2-1c.2-.4.7-.7 1.1-.6l.8.6zm-121.8 1.1c.2.4-.2.5-.4.7-.3.2-.7.1-1-.1-.3-.2-.2-.7-.1-.9.4-.9 1.3-.3 1.5.3zm118.8.8c.2 0 .1.3 0 .4-1.1.6-2.9.7-3.8-.2-.6-.5-1.3-.7-1.9-1.1.2-.6 1.1-.6 1.7-.7 1.4.3 2.5 1.6 4 1.6zm-116.5-.4c.1.4-.2.5-.3.8-.2.3-.6.2-.8.1-.4-.3-.6-.8-.3-1.2.4-.5 1.1-.2 1.4.3zm4.1.3c.2.4-.1.8-.5 1.1-.3.2-.6-.1-.9-.1-.2-.3-.7-.7-.2-1.1.4-.8 1.3-.4 1.6.1zm55.1 2c-.1 1-1.7-.1-1.4 1.1.2.9.4 2 1 2.7.4.6.2 1.6.2 2.4-.4.7-1.1 1.2-1.8 1.5-1.4-.1-3.3.7-4-1-.3-.7-.8-1.5-.8-2.3l.4-.2c0-.3-.4-.5-.3-.8 1.5-.3-.6-1.6.7-1.7 1.1 1.1 2.9.8 3.8 2 .2.2.4.4.7.6-.2-1.1-.7-2.3-.9-3.5-.1-.6.1-1.2.5-1.6.8-.6 1.5.3 1.9.8zm-50.9-.3c.1.5-.2.8-.5 1-.4.2-.7-.3-.9-.5-.1-.5.2-.7.5-1 .3.1.7.2.9.5zm29.4.5c.6 1.9.4 3.8-.6 5.4 0 .4.1 1-.4 1-1.3-1.8-.3-4.3.2-6.1.1-.6.7-.8.8-.3zm40.8.9c.7 1.3.7 3.1.1 4.5l-.4.4c-.5-1.1-1-2.2-1.1-3.4.2-.9.5-1.6.6-2.5.6-.2.6.6.8 1zm-66.5.5c-.3.6-1.1.7-1.6 1.1-1.2.9-2.8 1.1-4.2.8 1.2-1.7 3.1-2.7 5.4-2.2l.4.3zm-19.5 1.8c1.8 1.3 2.2 3 3.3 4.7.1.2.6.2.4.6-.4.3-.8-.3-1.3-.2-1.8-.8-2.9-2.8-2.9-4.9 0-.2.3-.2.5-.2zm84.1 1.5c.1.5 0 1-.4 1.1-.5.1-1-.1-1.1-.6-.1-.3.1-.5.2-.8.4-.4 1.1-.2 1.3.3zm20.1 2.5c0-.9.2-1.8.3-2.6.1-.3.2-.6.2-1 1.2-1.5 3.5-1.1 5.3-.9.7.4 1.6.3 2.4.5.3-.2.8-.3 1.2-.2 1.5-.8.5-2.6.6-4l-.6-1.4c-.1-.3-.3-.6-.4-1l-.8-1.3c-.8-2.1-2.4-3.3-3.7-5-2.4-3.2-6.3-4.9-10-6.2-3.8-1.3-7.6.4-11 1.6-1-.3-1.6-1.1-1.9-2-.2-1.8.2-3.6.9-5.1.1-1.2 1-2.1 1.3-3.2.9-2.7 1.8-5.3 2-8.2.1-1.8-1.2-3-2.6-3.8-.9-.2-2-.2-2.6.5-.6 1.3-2 2.2-3.1 2.8-.1.8.9.3 1.2.6 1.1.2 2.2-.1 3.1.5.1 1.9-1 3.5-2 4.9-1.6 2.4-3.3 4.8-4.3 7.5l-.2-.2.2 11.7c1.5 2.5 3.4 5.4 6.3 6.4 1.5 1.3 3.4 2.7 5.5 1.6 1.1-.3 1.2 1.2 1.7 1.8.6 1.8-.7 3-.8 4.6l-1.2 2.6c-1.4 2.8-2.7 5.8-4.9 8.1-.7 0-1.1.8-1.9.8-.4.5-1.2.1-1.6.3-1.5.6-3.6.2-4.6 1.6.1.1.2.2.4.2 2.9 0 6.2.2 9.2.1.4-.1.7-.5.8-.9-.4-.8.1-1.5.5-2.1.2-1.2 1-1.9 1.3-3 1-2 2.1-3.9 3.2-5.9l1.5-2.4c.3-.8.9-1.8 1.5-2.7.4-.4.6-.8.9-1.3.1-.5-.2-.7-.5-1 .3-.3.9-.2 1.3-.3 1.2.7 2.4 1.9 2.7 3.2l.4 1.3.2.6-.1 1.6.2 1.5c.2 2.3-.2 4.6-.4 7-.8 2.8-4 2.5-6.3 3.1-.6.4-1.7.2-1.7 1.2 2.8.6 6 .2 8.9.2.5-.2.6-.6.8-1.1.1-.6.7-1.2.5-1.8-.5-.7 0-1.7-.2-2.6.1-.2.1-.6 0-.9.4-1.4.3-3.1.6-4.4l.3-1.9zm23.5-1.9c-1.5 2.1-3.1 4.6-5.8 5.4-.2 0-.4.1-.5-.1 1.6-1.7 2.5-4.4 5-5 .3-.3.9-.5 1.3-.3zm-130.1 2.4c-.2.2 0 .6-.5.7-.4.2-.8-.1-1-.4-.2-.5.2-1 .6-1.1.5.2.9.3.9.8zm13.8.7c.1.4-.3.4-.6.5-2 .7-4 .1-5.5-1.4 0-.2 0-.4.2-.4 2 .4 4.2.1 5.9 1.3zm-11.1-.7c.1.2.1.5.1.7-.3.4-.7.5-1.2.4-.3-.1-.4-.3-.6-.6 0-.5.4-.8.8-.9.3.1.6.2.9.4zm44.6.3c.1.4-.3.7-.6.9-.4.1-.8-.1-1-.4-.2-.3 0-.8.3-.9.5-.1 1.1-.1 1.3.4zm84.5.2c.1.5-.3.7-.6 1-.3.1-.6 0-.9-.1-.1-.2-.3-.4-.2-.8.2-.4.6-.6 1.1-.6.2.2.4.2.6.5zm3.2-.2c.3.4 0 .8-.2 1.1s-.6.4-.9.3c-.3-.3-.7-.4-.7-.9 0-.4.4-.7.7-.8.5-.2.7.3 1.1.3zm-137 1.4c0 .3-.2.5-.3.8-.2.1-.5.3-.8.2-.3-.2-.6-.4-.7-.8.1-.4.4-.8.9-1 .4.2.8.3.9.8zm100.3 0c.1.2.1.4.1.6-.3.4-.7.7-1.1.5-.3-.3-.6-.6-.5-1 .3-.6 1.2-.7 1.5-.1zm-92.6.7c-.1.3-.2.7-.7.7-.4.1-.6-.3-.8-.5 0-.4-.1-.9.4-1.1.6-.2 1.1.3 1.1.9zm-4.6.1c.1.5-.2.8-.5 1.1-.6.2-1.1-.2-1.3-.7.1-.4.4-1 .9-1.1.5 0 .7.4.9.7zm100.4-.1c.1.5-.1 1-.5 1.2-.6.2-1.1-.3-1.3-.7.2-.4.3-.9.9-1 .3 0 .6.1.9.5zm-98.1.2c.1.3-.1.5-.2.7-.2 0-.4.3-.7.2-.2-.2-.6-.3-.6-.7 0-.5.3-.7.6-.9.4 0 .7.3.9.7zm125.8.4c-.1.4-.4.6-.8.8-.4.1-.6-.2-.9-.4-.2-.2-.2-.6 0-.9.4-.8 1.7-.5 1.7.5zm3.6.2c-.1.5-.7.8-1.2.8-.4-.2-.9-.5-.6-1.1.2-.2.3-.4.6-.4.7-.3 1.1.2 1.2.7zm-22.6.3c.2.6-.3.8-.7 1.1-.3 0-.6-.2-.9-.4-.1-.5.1-1 .7-1.3.4.1.6.3.9.6zm-13.1.6c.2.1.1.4.1.6-.3.2-.7.7-1.1.4-.3-.2-.6-.5-.5-.9.3-.6 1.3-.7 1.5-.1zm2.7.3c.1.4 0 .6-.4.8-.3.3-.7 0-1.1-.1-.1-.2-.2-.5-.1-.7.1-.2.4-.3.6-.4.5 0 .9 0 1 .4zm-80.8.1c.3.3 0 .6-.1.9-.2.3-.8.5-1.2.2-.5-.2-.4-.8-.3-1.2.3-.1.3-.4.7-.4.4 0 .6.2.9.5zm96.3.1c.1.5-.4.7-.7.8-.6.2-.9-.2-1.1-.6 0-.3.3-.5.4-.7.7-.3 1.1.2 1.4.5zm-2.5 0c.2.5-.3.7-.5 1-.3.1-.8.1-1.1-.2-.3-.1-.3-.4-.3-.7.3-.2.4-.5.8-.6.4 0 .9.2 1.1.5zm21.4.6c.1.7-.8.3-1.1.5-2 1.2-4.6.3-6.5-.4.1-.6.9-.4 1.2-.6 2.1-1.3 4.1.3 6.2.4l.2.1zm-130.3-.6l-.2.3c-1.8 1.1-4 1.8-6.1 1.1l-.2-.3c1.8-1.3 4.1-1.6 6.4-1.3l.1.2zm116.3.4c0 .4-.2.7-.5.9-.5.1-1.1 0-1.2-.5-.1-.4.2-.8.6-.9.3 0 .9 0 1.1.5zm-107.8.2c-.2.4-.1.8-.6 1s-1.1-.2-1.2-.6c-.1-.5.2-.7.5-.9.6-.4 1 0 1.3.5zm-3.4.2c.1.3-.1.5-.2.8-.2.3-.7.2-1 .1-.3-.3-.7-.6-.5-1.2.3-.2.4-.4.8-.5.4.1.8.3.9.8zm114.5 1.1c0 .4-.4.8-.8.9-.4.1-.7-.2-.9-.5-.1-.3-.1-.7.2-.9.1-.1.4-.1.6-.2.5 0 .8.3.9.7zm-118-.5c.2.4-.2.5-.2.8-.1.8-.7 1.3-1 2.1-.9 1.1-2.2 1.1-3.5 1.4l-.2-.4c1.4-1.8 2.9-3.2 4.9-3.9zm115.6 1c.1.6-.4.7-.7.9-.4 0-.8-.2-1-.6-.1-.5.3-.7.6-1 .6 0 1 .4 1.1.7zm-110.1 0c0 .1.1.2.1.2 0 .5-.4.7-.7.9-.4 0-.8-.1-1.1-.5-.2-.4 0-1 .5-1.1.5.1 1.1.1 1.2.5zm118.9 1.5l1.1-.7c.5-.1.9.2 1.1.5.2.6-.2.9-.6 1.1-.3.2-1.1-.3-1 .3.3.2.6.6.7 1-.1.2-.4.1-.6.1-1.4-.6-2.9-1.5-3.4-3-.2-.4-1.1-.8-.6-1.2 1.4-.1 2.5 1 3.3 1.9zm4.6-1.5c.2.2.1.7 0 .9-.2.5-1 .3-1.4.2-.2-.2-.5-.5-.4-.9.2-.3.4-.5.7-.6.4 0 .7.2 1.1.4zm-17.3 2.6c.4.5.9 1.3 1.1 1.9-.1.1-.3.1-.4.1-1.6-.9-3.7-1.9-4.3-3.8-.1-.2-.5-.4-.5-.8 1.2-.2 2.4.7 3.3 1.3l.8 1.3zm-108.9-1.8c.2.4-.2.8-.4 1-.5.1-.8-.1-1.1-.4-.3-.5.3-1 .7-1.2.3-.1.6.3.8.6zm114.8 1.1c0 .3-.3.5-.5.7-.4 0-.8.2-1.1-.1-.1-.2-.3-.6-.1-.9.6-.7 1.4-.2 1.7.3zm11.9.6c.1.6-.3 1-.7 1.2-.5.1-.9-.2-1.1-.4-.2-.3-.1-.6 0-.9.3-.3.8-.5 1.2-.3.2.1.4.2.6.4zm-33 6.7c0 .6-1.1.4-1.5.9-1.5.8-3.2.8-5 .7v-.3c1.8-1.5 4.3-2 6.5-1.3zm-69.4 2c0 .4-.3.7-.7.8-.3 0-.7-.2-.8-.5-.2-.6.3-.8.6-1.1.4.1.8.5.9.8zm68.6.6c-.1.4-.2.9-.7 1.1-.4.1-.7-.1-1.1-.3-.2-.2-.1-.5-.1-.8.4-.9 1.6-.9 1.9 0zm9.5.1c-1.2.8-2.5 1.7-4.1 1.7l-2.6-.1-.2-.2c1.6-1.9 4.4-1.9 6.9-1.7v.3zm-91.2 1.2c0 .4-.2.8-.6.9-.5.1-.8-.1-1-.4-.2-.4 0-.9.4-1.1.5-.4 1 .2 1.2.6zm2.4.5c.1.2-.1.4-.2.6-.3.1-.7.2-.9 0-.3-.2-.4-.5-.3-.8s.4-.2.6-.4c.3.1.7.2.8.6zm-18.2 4.8c-.5.6-1.2-.1-1.8-.4-1.7-1-1.6-2.8-3.3-3.9.2-.6.6 0 1 0 .3.2.7.4 1 .5 1.6.8 2 2.4 3.1 3.8zm138.8-18.6c-.8-1.4-2.1-2-3.6-2-1.2.1-2.1.9-2.7 2-.3 1.1.1 2 .9 2.6.3.1.8.1 1-.2.2-.6-.4-.6-.5-1.1-.2-.7.1-1.3.5-1.7.5-.5 1.3-.2 1.9-.2.6.4 1.1.7 1.4 1.4.3.8.3 1.7 0 2.5-.5 1.2-1.7 2.1-2.9 2.4-3.9.6-47.3.4-47.3.4-5.1.5-10.9-1-15.3 1.7-2 1-3 3.2-3.5 5.1-1.3 1.2-2.7 2.5-3.7 3.8l-.1-.1c.2-1.2.8-2.2 1-3.3.7-1 .7-2.2 1.2-3.3 1.8-2.9 3.5-5.9 6.3-8 1.2-1.6 3.3-1.3 5.1-1.3 2 .9 4.2 1.2 6.6 1 .1-.1.1-.2.1-.3l-2.5-1.5c-1.9-.9-3.7.3-5.7.1-.1-.1-.2-.1-.1-.3 1.8-1.3 3.9-2.3 5.9-3.2 1.7-.9 3.4-1.4 5.2-2.1.7 0 1.4-.6 2.1-.2l2.5-.7c.1.1.2.2.4.1 2.1-.7 4.9-.1 7.3-.1l.3.3 2.3.6c.9.1 1.3 1.1 2.1 1.2.5-.7-.5-1-.8-1.4 1.1-.2 2.2 0 3.2.5l-.5.5c-.3.5.1.9.6 1.1.3.1.6-.1.8-.2.6-.4 0-.9.1-1.3 3.5.6 6.9 1.5 10.2 2.9.9.3 1.8 1 2.8.9-1-.9-2.4-1.4-3.6-1.9-.8-.5-2-.5-2.6-1.2l.6-.3c1.6-.2 3-1.4 4.1-2.7.1-.3.6-.2.6-.6-.4-.5-1.1.1-1.7.1-2 .4-2.9 2.7-4.9 3.2l-7.3-1.8c-1.2-.2-2.5-.3-3.6-.8l-2.7-.2h-4.9c0-.1-.2-.1-.1-.3 1.7-.4 3.2-1.4 4.9-1.9l12.8-5.9c1.3-1.2 2.5-2.5 3.6-3.9 0-.4-.2-.8-.5-.9-.3-.1-.7-.1-1 .2-.6.4 0 1 0 1.5-.6.8-1.5 1.4-2.2 1.9-.2 0-13.1 5.9-13.1 5.9-1.9.8-3.8 1.7-5.8 2.1l-2.8.4c-.2.6-.7.9-1.2 1.1-.8.1-1.4.6-2.2.6-6.2 2.4-12.6 4.9-17.5 9.8.3-.6.4-1.3.5-2-.1-.7 0-1.5-.5-2.1-.1-.3-.5-1-.4-1.3l-.7.4c-.4 1.1-.8 3-.4 4.1.1.9.9 1.9.2 2.6-2.3 2.8-3.6 6.1-5.1 9.3-.6-.1-.9-.6-1.1-1.2 1.6-2.1 2.9-4.4 3.4-7 .3-.2.1-.9.4-1.2-.1-.8.4-1.5.1-2.2.3-1-1.4-2-.3-2.7l-.9.4c-2.1 2.7 1.1 6.7-1.3 9.3v.2c-.7.9-1 1.7-1.9 2.3-1.2-.5-1.6-1.8-2.2-2.7-1.1-1-1.1-3.1-.4-4.5.4-1.4-.3-2.6-.4-3.8l-.5-.3c-1.2 1.5-1.6 3.8-.7 5.6.5.9.5 2.1 1.2 2.8.4 1.4 1.3 2.3 2.1 3.6.2.5-.3.6-.5.8l-.9-1.4c-1.6-3.4-3.6-6-6.1-8.8-.1-.4-.5-.8-.3-1.3.9-.9 1.1-2.5.6-3.7-.1-.2-.4-.5-.3-.8l-.7-.6c.1 1.7-1 3.2-.5 4.9v.1c-4.9-3.7-10.3-7-15.9-9.6l-.4 1.2c1.4.4 5.1 2.6 5.1 2.6 1.7.6 3.2 1.6 4.8 2.5 6.5 3.6 10.8 9.6 13.7 16.2.1.5.5 1.1.2 1.6-1-1.5-2.4-2.4-3.6-3.7-.3-2.2-1.7-4.4-3.6-5.3-.7-1.1-2.2-1.2-3.4-1.5l-17.3-.1c-14.1-.2-27 .4-41 .2-2-.2-4.3-.9-4.9-2.9-.4-.7-.4-2 0-2.6.5-.9 1.5-1.2 2.4-1.3.8.1 1.3.8 1.6 1.3 0 .6-.5 1.2-.8 1.7 0 .2.2.6.6.4.6-.2 1.1-.9 1.3-1.5 0-.3.2-.8-.1-1.1-.3-1-1.3-1.7-2.2-2-1.2-.1-2.4.2-3.2 1.1-1.2 1-1.1 2.7-.8 4 .8 2.1 3 3.6 5.2 3.9l46.3.2c4.5.2 9.6-.5 14.2.4 1.7.5 3.4 1.8 3.9 3.7-.1.1-.2 0-.3 0-3.8-2.4-8.7-3.4-13.5-2.8-1.9-.1-3.6.6-5.3 1.1-.9.2-1.8-.2-2.3-.8-1.7-1.5-4.7-1.4-6.9-.9 0 .2-.1.3 0 .3 2.3-.2 3.7 1.8 5.8 2.1.5.1.9-.4 1.3 0-2.2 1.1-4.3 2.3-6.6 3-.7-.1-1.1-.8-1.7-1.2-.9-1-2.6-.6-3.8-.7-.4.1-.8-.2-1.1 0 .4.8 1.2 1.2 2.1 1.6 1.2.5 2.6 0 3.7.7l-1 .7c-2.2.9-4.1 2.9-6.6 2.7-2.6.3-5.3-.5-7.1-2.3-.8-1.9-2.7-2.9-4.8-2.8-.1.1-.3.1-.3.3 1.1.6 1.9 1.9 2.9 2.6.7.8 2 0 2.6.9.9.6 2.1 1.2 3.1 1.3.8.3 1.6.5 2.5.7l-.3.2c-4.3 1.4-9.3 1.6-14.2 1.4-1.4-.1-2.8-.5-4.2-.4.2.3.7.5 1.2.7-.4.2-.8.3-1.3.4-.6.1-1.2.2-1.8.5-.8 0-1.4.2-2.1.5-.8.9-1.8 1.8-2.7 2.2 0 .2 0 .5.2.5.9-.4 2.1-.1 2.9-.5 1.6-.1 2.5-1.9 3.7-2.6 1.3-1.1 3.2-.8 4.9-.6 1 .2-.1.6.2 1.3.4.3.7.7 1.3.6.1-.1.2-.2.3-.2.3-.4.2-.8 0-1.2.7-.4 1.6.1 2.3-.2 1.8 0 3.6-.4 5.4-.5.3 0 .6-.3.9 0-.1.4-.6.4-.4 1 .1.4.6.6 1 .7.5-.2.9-.5.7-1.2-.1-.3-.5-.4-.7-.5l3.1-1.1c.7-.1 1.4-.4 2-.7.6 0 1.1-.6 1.7-.4-.2.8-.6 1.6-1 2.3-.8 2.5-1.3 5.9 0 8.3l.3-.1c-1-2.5-.4-5.5.4-7.9.7-4.1 4.9-5.3 7.9-6.8l.1.2c-.8 2.1-2 4.1-1.8 6.7.1.4-.2.9 0 1.2.8-.4 1.3-1.4 1.8-2.2.3-2.1-.9-4.8 1.3-6.4 3.9-1.5 7.6-3.6 12.1-3.6.1.1.5-.1.5.2-1 1.1-2.3 2.1-2.8 3.4-1.5 2.1-1.5 5.7-.8 8.3.4 1.5-.9 2.3-1.5 3.5-.3.4-.4 1.1-.6 1.6l.9.1c.8-.9 1.6-1.9 1.6-3.2.1.5.5.9.9 1 .3-.5-.3-.9-.3-1.4.8-.4 1.1.5 1.7.7 1 .2 1.9.7 2.9.7l.3-.3c-1.1-1.6-3.1-1.9-4.9-2-1-1.6-1-3.6-.9-5.5.2-1 .4-2.1 1-3 .2-.7.9-1.3 1.3-1.8.9-.8 2-1.4 3-1.6h.1v.1c-1.3 1-1.4 2.4-2.2 3.7-.8 1.2-1.2 2.8-.4 4.2.3.6.1 1.6.8 2 .6-.9.7-2 1-2.9-.1-1.6-1.1-3.1-.2-4.6.5-1.2 1.5-1.7 2.6-2.1 2.6-.2 4.9 1.1 7.2 2.1.5.3 1.3.6 1.4 1.3-.1 1.3-.8 2.6-1.8 3.2-1.3.8-3.1.9-4.3 0-.7-.7-1-2-.8-2.9.5-.6 1.2-1.1 2.1-.8.5.2.9.7 1.5.4.2-.1.3-.5.2-.8-.5-.3-.7-1-1.4-1.1-.9-.1-2-.1-2.6.5-1 .9-1.4 2.2-1.1 3.4.3 1.5 1.5 2.6 2.9 3.1 2.2.5 4.5-.1 5.9-2 .6-.6.7-1.3 1.1-2.1 2.3 1.4 4 3.8 4.9 6.3 0 .8.2 1.7 0 2.4l1.7.1c-.1-.4 0-.8.1-1.2.6-3.2 2.6-5.8 4.9-7.9.8-.5.6.6.8 1 .7 1.8 2.4 3.1 4.1 3.7 2 .3 3.9-.1 5.1-1.7.6-1.2 1.4-2.8.3-4-.7-.8-1.6-1.3-2.6-1.3-1.3 0-2 .9-2.6 1.8 0 .4-.1.8.3 1 .2 0 .6 0 .7-.2.1-.7.7-1.1 1.3-1.4.5-.3 1.1 0 1.5.3.5.4.6 1.2.7 1.9-.1.9-.7 1.9-1.6 2.2-1.4.7-3.4.4-4.6-.4-.6-.6-.9-1.3-1.3-2.1-.1-.8-.4-1.4 0-2.2 2.1-1.3 4.3-2.1 6.8-2.4 1 .2 1.9.9 2.5 1.6 2.2 2.2-.5 5.5 1.1 8 .6-.1.6-.9.8-1.3.7-1.7-.2-3.6-.6-5.3-.6-1.1-.9-2-1.8-2.8.2-.1.3-.1.6-.1 1 .7 2.1 1.4 2.9 2.5 1.4 2.2 2.1 4.9 1.9 7.9-.4 1.4-1.9 2.1-3.1 2.6-.5.4-1.1 1-1.3 1.5.6.3 1.4 0 2-.2.9-.3 1.4-1.5 2.1-2l.1.3c0 .5-.2 1.3.2 1.4.2-.7.3-1.6.4-2.4.6.7.7 1.5.9 2.4.4.9 1.1 2 2.3 2.1.3-.4 0-.9-.1-1.3-.1-1.2-1.2-1.8-1.8-2.7-1.7-2.3-.9-5.9-2.2-8.5-.5-1.4-1.5-2.4-2.6-3.6l.2-.2c2.3 0 4.3.7 6.4 1.2 2.6 1.3 6.4 1 7.7 4.4.5 1.9 1.4 3.7 2.7 5.2l.1-.1c.3-.5.3-1.3 0-1.8-.3-2.4-2.4-3-3.5-5l.1-.2c1.1.3 2.3.6 3.5 1.1 3.8 1.1 6.5 4.8 7 8.7 0 3.1-.6 5.6-1.8 8.2-.2.4-.8.8-.4 1.2.5-.4.6-1 .9-1.4 1.6-2.6 2.4-6.3 1.6-9.6 0-.6-.8-1.1-.4-1.7.2.3.5.3.8.4.3-.2.7-.2.9-.5 0-.3.2-.6 0-.9-.3-.4-.9-.4-1.4-.3-.2.3-.5.7-.6 1.1-.5-.8-1-1.9-1.7-2.5l.1-.1c2.1.7 4.1 1.8 6.3 2.3.5.3 1 .5 1.7.5 1.9.7 3.9 1 5.9 1.5 1.4-.1 2.6.5 4 .2v-.1c-.5-.7-1.7 0-2.3-.5-3.3-.3-6.4-1.2-9.4-2.3 0-.1.2-.1.4-.1.5-.2.8-.7.8-1.2-.2-.3-.6-.5-1.1-.5-.3.1-.7.5-.7.8 0 .4.4.8.7.9-.1.1-.3.1-.4.1-1.5-.7-2.9-1.3-4.3-2l-1.5-.6c-1.1-.5-2.2-1.1-3.3-1.5-3-1.6-6.4-2.4-9.7-3.6l-2.1-.6c-1.2-.3-2.4-.6-3.6-1-4-1-9.5-1.1-13 1.1-.6-.2-.9.7-1.2.1 1-2.6 3.9-3.5 6.5-3.6 19.1-.2 37-.3 55.8-.6 2.2 0 4.3-.8 5.5-2.7.2-1.2.4-3.2-.2-4.5zm-75.7 17.7c-.2.6-.6 1.1-.5 1.7l-.2.1c.1-.7-.6-1.2-.4-1.9-.4-.6-.4-1.3-.7-1.9-.4-.8.4-1.1.7-1.6.7.3.9.9 1.4 1.5.2.7-.4 1.3-.3 2.1zm51.6-3c0 .1.3.2.2.4-1.7 1.5-4 1.9-6.4 2-.2 0-.4.2-.6.1-.1-.1-.2-.2-.1-.3 1.7-1.8 4.3-2.8 6.9-2.2zm-7.6.7c.2.7-.2 1.1-.8 1.3-.5 0-.8-.4-1.1-.8-.1-.4.2-.6.3-.8.5-.3 1.4-.3 1.6.3zm-90.6.1c.1.3 0 .8-.2 1s-.6.3-.9.2c-.3-.1-.5-.4-.6-.7 0-.4.2-.7.6-.9.4.1.8 0 1.1.4zm-8.5 3.2v.3c-1.1.2-2.2 0-3.1-.7-.7-1-1.4-1.9-2.5-2.4 0-.1-.3-.3 0-.4 2.4-.1 3.8 1.9 5.6 3.2zm114-3.2c-1.1 1.6-2.1 3.7-4 4.4-.3 0-.6.5-.9.2.8-1.8 2.4-3.8 4.2-4.6.2-.1.5-.1.7 0zm-102.7.6c.1.5-.3.6-.7.9-.4 0-.6-.2-.8-.5-.2-.5.2-.7.5-.9.4-.2.8.1 1 .5zm108.7.2c-.4.6-.2 1.5-.7 2.2-1 1.1-1.8 2.3-3.3 2.6-.2-.5.3-1 .6-1.4.7-1.4 1.6-3.1 3.1-3.7l.3.3zm-134.8.5c.1.3.3.7 0 1.1-.3.2-.7.3-1.1.2-.4-.2-.6-.8-.4-1.2.4-.5 1.2-.7 1.5-.1zm-2.7.6c.1.2.2.4.1.7-.1.2-.4.5-.7.6-.5.1-.9-.2-1.1-.6-.1-.4.1-.8.5-1 .5-.3 1-.1 1.2.3zm5.7.3c.1.4.2 1.1-.4 1.2-.7.3-1.1-.2-1.4-.6 0-.4.2-.8.6-1 .4-.1.8 0 1.2.4zm7.8.6c-.1.3 0 .8-.3.9-.2.2-.7.1-.9.1-.1-.3-.6-.5-.3-.9.2-.2.4-.4.7-.5.1.1.6 0 .8.4zm128.5.3c-.1.3-.3.8-.7.8s-.9-.1-1.1-.5c-.2-.5.2-.8.6-1 .5 0 1.1.2 1.2.7zm-8.7.2c0 .4-.4.7-.6.8-.7.3-1.2-.2-1.5-.7.1-.4.4-.7.8-.9.7 0 1 .4 1.3.8zm5.9-.1c0 .3-.2.7-.4.8-.4.1-.9.1-1.2-.2-.4-.4-.1-.7.2-1 .5-.2 1.3-.1 1.4.4zm-137.7.9c.1.5-.1 1-.6 1.2-.4 0-.9-.2-1.1-.7 0-.4.1-.9.5-1 .5-.2.9.1 1.2.5zm129.4.5c.1.5-.1 1-.7 1.3-.4.1-.6-.1-.9-.3-.2-.2-.4-.8 0-1 .4-.8 1.4-.5 1.6 0zm-103.8.5c.2.5-.4.6-.5.9-.2.1-.6.1-.7 0-.2-.3-.5-.6-.4-1 .2-.2.3-.4.6-.5.6-.1.7.3 1 .6zm114.1.4c.1.3-.2.5-.2.7-.3.2-.8.3-1.1.2-.4-.2-.4-.6-.4-1.1.3-.2.3-.4.7-.5.3 0 .8.2 1 .7zm-3 .1c.2.6-.3.9-.7 1-.2 0-.5-.1-.5.2 1.2.6 2 1.6 2.9 2.5v.4c-1.7 0-3.5-.5-4.7-1.8-.3-.2-.9-.2-1.3-.6.6-.6 1.8-.4 2.6-.4.6-.7-.7-1.2.1-1.7.3-.1.5-.3.9-.2.3.1.5.3.7.6zm-19.5.1c.1.2-.2.5-.2.8-.3.3-.7.3-1.1.2-.2-.3-.6-.6-.5-1.1.5-.8 1.7-.7 1.8.1zm-106.4 1.6c-.2.4-.3.7-.8.8-.4-.1-.7-.2-.9-.6l.2-.8c.6-.4 1.5-.1 1.5.6zm3.8-.6c0 .7-.7 1.1-1 1.7-.7 1.6-2 3-3.8 3.2-.2-.4.6-1 .8-1.4.8-1.6 2.3-2.5 3.7-3.5h.3zm101.5.7c0 .5-.4.9-.8 1.1-.4.1-.8-.2-1-.4-.4-.4-.1-.8 0-1.2.6-.5 1.4-.1 1.8.5zm3 .3c-.1.5-.4.9-.9 1.1-.1-.2-.3-.1-.5-.1-.3-.2-.6-.5-.6-.9.2-.2.3-.6.7-.7.4 0 1.1 0 1.3.6zm-97.1 0c.1.5-.3.8-.7 1-.4.1-.7-.2-.9-.6-.1-.4.3-.7.6-1 .5-.2.7.3 1 .6zm3.3.2c-.1.4-.4.7-.9.8-.3-.1-.7-.2-.9-.6 0-.5.3-.7.7-1 .5 0 1 .2 1.1.8zm104 3.3c.2.2.7.4.6.8-.8.3-1.4-.5-2.1-.7-1.2-1.2-2-2.4-2.5-3.8.4-.4.9.1 1.3.2 1.1.9 2.1 2.1 2.7 3.5zm1.7-3.3c.1.3.1.7-.1 1.1-.3.5-.9.4-1.3.3-.2-.3-.7-.7-.4-1.1.1-.4.6-.5.9-.6.4-.2.6.1.9.3zm-101.3 1.2c0 .4.1 1-.3 1.2-.4.1-1-.1-1.1-.6-.2-.6.3-.7.6-1 .3 0 .5.2.8.4zm89.2 3.1c.7 1 1.1 2.1 1.2 3.4-.1.3.2.7 0 .9h-.2c-2.1-1.5-2.6-3.7-3.4-5.9-.2-.1-.2-.3-.2-.5.5-.4.8.4 1.3.6l1.3 1.5zm-83-1.6c-.1 0 0 .1 0 0-1.9 1.4-4.5 2.2-6.7 1-.1-.1 0-.4.2-.4 1.4-.4 2.7-1.1 4.2-.9l2.3.3zm-10.9.2c-1.6 1-3.1 3-5.1 3.5-.4.1-.6.7-1.1.4.9-2.6 3.7-4 6.2-4.2v.3zm91.1 2.2c.1.4 0 .9-.4 1-.2.2-.7.2-.9 0-.4-.2-.4-.6-.4-1 .1-.3.5-.4.7-.5.4.1.8.1 1 .5zm-3.9.2c-.3.7-1.1 1.1-1.7 1.3-1.6.6-3.1-.2-4.5-.6 0-.4.5-.2.8-.5 1.6-.3 3.2-.7 4.8-.2.1-.1.4-.2.6 0zm-87.2 1.4c-.1.2-.2.6-.6.8-.3.1-.7 0-1-.2-.1-.3-.4-.5-.2-.9.1-.3.5-.4.8-.5.5.1.9.3 1 .8zm2.8.4c-.1.3-.3.7-.7.9-.4.1-.7-.1-1-.3-.1-.3-.3-.6-.1-1 .1-.2.4-.3.7-.4.5 0 .9.5 1.1.8zm87.4.5c0 .4-.1.6-.3.9s-.7.4-1.1.2c-.3-.1-.4-.4-.6-.7-.3-.4.2-.6.3-1 .6-.3 1.5-.1 1.7.6zm2.1-.1c0 .2.2.5.1.7-.3.2-.5.9-1.1.6-.3.1-.4-.3-.6-.4-.2-.5 0-1.2.6-1.3.5-.1.8.3 1 .4zm-91.2 1.4c.1.5-.1 1-.5 1.3-.5.1-1.2.1-1.4-.5 0-.5 0-1.1.6-1.4.5 0 1.1.1 1.3.6zm2.7-.2c-.1 1.3-.4 3-1.7 3.7-.8.1-1.5.9-2.3.4v-.2c1-1.4 2.8-2.5 4-3.9zm78.9 1.1c.2.3-.1.5-.3.8-.3.3-.8.2-1.1.1s-.4-.6-.2-1c.1-.3.4-.4.6-.5.4-.1.8.3 1 .6zm-74.1 2.3c.7 1.1.3 2.6.7 3.8-.8.1-1.2-.8-1.7-1.3-1.1-1.4-.9-3.4-1.4-5 .1-.1.2-.1.3-.1.7.5 1.2 1.4 1.8 2-.1.3.3.3.3.6zm76.5-1.9c0 .4-.4.5-.7.7-.3 0-.6-.2-.9-.4-.1-.5.2-.6.5-.9.5-.1 1 .1 1.1.6zm5.7 4.3c0 .1 0 .4-.3.3h-.2c-1.4-1.3-2.8-2.6-2.6-4.6h.3c1.3 1.1 2.7 2.3 2.8 4.3zm-3.6-1.6c0 .4-.2.7-.4.9-.5.1-1.3.1-1.4-.6 0-.5.5-.7.7-1 .5-.1.9.3 1.1.7zm-3.1 1.1c-.7 1.8-2.5 2.7-3.7 4-.2-.1-.1-.5-.1-.7.5-1.8 1.9-3.6 3.7-4.3.7 0-.1.6.1 1zm3.5 1.4c0 .4-.4.6-.7.9-.4 0-.8-.1-1.1-.5 0-.5.3-.6.6-.9.6-.1 1 .1 1.2.5zm-35.4-87.1c.6 0 1.2.5 1.2 1.2s-.5 1.2-1.2 1.2h-14.1c-.6 0-1.2-.5-1.2-1.2 0-.6.5-1.2 1.2-1.2h14.1zm-10 2.1c1.4 0 .1-1.7-.7-1.7h-1.4c-1.4 0-.1 1.7.7 1.7h1.4zm5.8 0c1.4 0 .1-1.7-.7-1.7h-1.4c-1.4 0-.1 1.7.7 1.7h1.4zm4.3-1.7h-.5c-1.4 0-.2 1.7.5 1.7.9 0 .9-1.7 0-1.7zm-1.3 15.8l2.7 1 2.7-1-1.1 4 2.1-.4-.7 2.4.7 2.3-1.9-.5.8 4.3-2.7-1-2.7 1 1.1-4.3-2.1.6.6-2.4-.6-2.3 2.1.3-1-4zm3.9 7.2c.6 0 .7-.8.7-1.6 0-1.6-1.3 0-2-1.5-.5 1.3-1.8.1-1.8 1.5 0 1 0 1.6 1 1.6h2.1zm-2.6-1.5c0 .6.8.2 1.5.2s1.5.4 1.5-.2c0-.9-.8-.6-1.5-.6s-1.5-.3-1.5.6zm-7.7.2v-.5l-.4-.1.3-.4-.2-.4.5.1.3-.5.2.5.5-.1-.2.4.3.4-.4.1v.5l-.4-.4-.5.4zm-2.1 2.7v-.5l-.4-.1.3-.4-.2-.4h.5l.3-.4.2.4h.5l-.2.4.4.4-.5.1v.5l-.4-.4-.5.4zm3.6-.4v-.5l-.5-.1.4-.3-.2-.4h.5l.2-.5.3.5h.5l-.2.4.3.3-.4.1v.5l-.5-.3-.4.3zm.4 2v-.3h-.2l.2-.2-.2-.2h.3l.2-.3.1.3h.3l-.1.2.2.2h-.3v.3l-.2-.1-.3.1zm-3.3 2.3v-.8l-.8-.2.7-.6-.4-.7.8.1.4-.8.5.8.8-.1-.4.7.7.6-.8.2v.8l-.8-.5-.7.5zm1.7-45.2l1.7 4.1 4.2-1.2-2.1 3.9 3.6 2.5-4.4.8.3 4.4-3.3-3-3.3 3 .3-4.4-4.4-.8 3.6-2.5-2.1-3.9 4.2 1.2 1.7-4.1zm-15.4 92.5c-.5.2-.7.3-.6.9l.6 2.5c.1.5.1 1.2-.2 1.7-.4.5-1.2.9-1.7 1-.4.1-1.3.3-2 0-.5-.2-.8-.4-1-1.3l-.6-2.7c-.2-.7-.4-.6-.9-.5v-.2l3.2-.8v.2c-.6.2-.9.3-.7 1l.6 2.6c.1.4.4 1.5 1.7 1.2 1.7-.4 1.4-1.6 1.3-2.1l-.6-2.4c-.1-.5-.3-.7-1.1-.6l-.1-.2 2.1-.5v.2zm4.8.5c-.3-.5-1.1-1.3-2.2-1.1-.5.1-1 .5-.8 1 .1.4.3.6 1.2.7l1.5.3c.4.1 1.2.4 1.4 1.2.2.7-.2 1.8-2 2.2-.9.2-1.4 0-1.7.1-.2 0-.2.2-.2.3l-.3.1-.4-2 .3-.1c.4.8 1.1 1.5 2.3 1.3 1.1-.3 1-1.1 1-1.2-.1-.5-.6-.6-1.3-.7l-.7-.1c-1.8-.3-1.9-1-2-1.3-.1-.5-.1-1.6 1.8-2 .8-.2 1.3 0 1.5-.1.2 0 .2-.2.3-.3l.3-.1.4 1.7-.4.1zm6.3 3.2l-3.5.3v-.2c.7-.1.9-.2.9-.8l-.4-4.3c-.7.1-1.7.2-1.7 1.5h-.3l-.1-1.6 5.8-.5.2 1.6h-.3c-.3-1.3-1.3-1.2-2-1.2l.4 4.3c.1.7.3.7 1 .7v.2zm8 0h-2l-2-2.6h-.3v1.6c0 .6.2.7.8.8v.2l-3.3-.1v-.2c.7-.1.9-.1.9-.7l.1-3.6c0-.7-.3-.7-.8-.8v-.2l3.1.1c.7 0 2.7.1 2.7 1.5 0 1-1 1.2-1.5 1.4l1.9 2.4c.1.2.3.2.4.2zm-4.2-2.9c1.3 0 1.8-.2 1.8-1.2 0-.8-.4-1.2-1.2-1.2-.5 0-.5.1-.6.3v2.1zm10.6 3.7l-3.1-.4v-.2c.6 0 .8 0 .8-.2s-.2-.9-.3-1.1l-2.2-.3c-.4.5-.5.9-.5 1 0 .3.4.4.7.4v.2l-2-.3v-.2c.5 0 .7-.3 1.1-.8l2.7-4.2h.3l1.6 4.5c.3.9.4 1.2.9 1.3v.3zm-2.7-2.3l-.7-2.1-1.2 1.9 1.9.2zm8.4 3.4l-5.5-1v-.2c.5 0 .8.1.9-.4l.7-3.9c.1-.5-.3-.6-.7-.7v-.2l3.3.6v.2c-.7-.1-1-.1-1.1.6l-.7 3.8c-.1.4.1.5.8.6 1.4.3 2.1-.3 2.7-1.1l.3.1-.7 1.6zm3.6.9l-3.3-.7v-.2c.5.1.9.1 1-.4l.8-3.9c.1-.5-.3-.6-.8-.8v-.2l3.3.7v.2c-.4-.1-.9-.2-1 .4l-.8 3.9c-.1.5.3.6.8.8v.2zm6.8.8l-3.1-.3v-.2c.6 0 .8 0 .8-.2s-.2-.9-.3-1.1l-2.2-.2c-.3.5-.5.9-.5 1 0 .3.4.4.8.4v.2l-2-.2v-.2c.5 0 .7-.3 1-.9l2.6-4.2h.3l1.7 4.5c.4.9.5 1.2.9 1.2v.2zm-2.8-2.2l-.8-2.1-1.1 1.9 1.9.2zm-22.1-63.6c0-2-1.1-.1-1.7-1.8-.4 1.4-1.8.2-1.8 1.7 0 .6.2.9.4 1.1v.6c0 .2.1.3.3.3h2.1c.2 0 .3-.1.3-.3v-.6c.3-.2.4-.5.4-1zm-1.7.4c-.6 0-1.3.4-1.3-.3 0-1 .6-.7 1.2-.7s1.5-.2 1.5.7c0 .7-.8.3-1.4.3zm18.8 23.7c.5 0 .9-.4.9-.8s-.4-.8-.9-.8-.9.4-.9.8.4.8.9.8zm-4.3-29s-.4.7-.4.8c0 .3.2.5.4.5s.4-.2.4-.5c.1 0-.4-.8-.4-.8zm-28.7 0s-.4.7-.4.8c0 .3.2.5.4.5s.4-.2.4-.5l-.4-.8zm7.2 0s-.4.7-.4.8c0 .3.2.5.4.5s.4-.2.4-.5l-.4-.8zm7.2 0s-.4.7-.4.8c0 .3.2.5.4.5s.4-.2.4-.5l-.4-.8zm7.2 0s-.4.7-.4.8c0 .3.2.5.4.5s.4-.2.4-.5l-.4-.8zm-21.6 9.9s.4.7.4.8c0 .3-.2.5-.4.5s-.4-.2-.4-.5l.4-.8zm0 9.5s.4.7.4.8c0 .3-.2.5-.4.5s-.4-.2-.4-.5c0 .1.4-.8.4-.8zm1.2 7.6s.4.7.4.8c0 .3-.2.5-.4.5s-.4-.2-.4-.5c-.1.1.4-.8.4-.8zm6 4.1s.4.7.4.8c0 .3-.2.5-.4.5s-.4-.2-.4-.5l.4-.8zm21.9-21.2s-.4.7-.4.8c0 .3.2.5.4.5s.4-.2.4-.5c.1 0-.4-.8-.4-.8zm0 9.5s-.4.7-.4.8c0 .3.2.5.4.5s.4-.2.4-.5c.1.1-.4-.8-.4-.8zm-1.1 7.6s-.4.7-.4.8c0 .3.2.5.4.5s.4-.2.4-.5c0 .1-.4-.8-.4-.8zm-6.1 4.1s-.4.7-.4.8c0 .3.2.5.4.5s.4-.2.4-.5c.1 0-.4-.8-.4-.8zm-7.3 4.2s-.4.7-.4.8c0 .3.2.5.4.5s.4-.2.4-.5c0 .1-.4-.8-.4-.8zm11.7-14.3c.1.1.3.2.6.1l.3-.8c0-.1-.3-.4-.5-.3-.8.2-1.6.3-2 1 0 .5.4 1 .7 1.2.3-.1.3.2.5.3 0 .2-.1.4-.3.4-.5-.5-1.5.2-1.9-.5.2-.7.5-1.5 0-2.1 0-.1.3-.3.1-.4-.2-.6-.9-.1-1.3-.1-.7-.1-1.2.3-1.6.8 0 .2.1.4.4.7.2 0 .3 0 .3.2l-.4.3c.1.1.1.3.2.5-.3.1-.6-.3-.8-.5 0-.4 0-1-.4-1.1-.1 0-.4.1-.4.1-.1.1-.2.4-.2.8 0 .3.2.8.2.8s1.4 1 1.7 1.7c-.4.8-.4 2-1.3 2.4-.3.2-.3.4-.3.7l.2.2c.6-.3 1.7-.4 1.6-1.4.2-.4.4-.9.9-1.2.4-.1.9.1 1 .5-.1.7-.6 1.1-1.2 1.4-.1.1 0 .2 0 .4.2.3.7.2 1 .1.8-.5 1.1-1.4 1.8-1.7.1.4-.9.6-.3 1.1.4-.1 1 0 1.2-.5-.3-.8 1.1-1.1.2-1.8l.7-1.7c-.3-.7-1.1-.7-1.3-1.4-.1-.4.3-.3.6-.2zm-33 8.3c.5 0 .9-.4.9-.8s-.4-.8-.9-.8-.9.4-.9.8c0 .5.4.8.9.8zm-46.7 27.3c.5 0 .9-.4.9-.8 0-.5-.4-.8-.9-.8s-.9.4-.9.8.4.8.9.8zm29.7 6.6l-.1-.1c0 .1 0 .1.1.1h-.2v-.1l.2.1c0-.1-.1-.1 0 0zm.1-.1c0 .1 0 .1-.1.1v-.1s0 .1.1 0c-.1.1-.1 0-.1 0h.1zm.3-.1l-.1.2v-.1l-.1.1-.1-.1h.1v.1-.1l.2-.1zm0 .2c0-.1 0-.2.1-.2l-.1.2zm.2-.1c.1.1 0 .1 0 0zm54.3-64.3h-33.2v25.4c0 2.6 1.1 4.8 2.6 5.5l12.8 8.1c.3.3.7.5 1.2.5.4 0 .8-.2 1-.4l13-8.2c1.5-.7 2.6-2.9 2.6-5.5v-25.4zm-1 25.7c-.2 1.9-.8 3.5-2.1 4.4l-12.5 8h-.1c-.3.2-.6.3-1 .3s-.7-.1-1-.4l-12.5-8c-1.3-.9-2-2.5-2.1-4.4v-24.7h31.3v24.8zm-11.2 11.3l.4-.2-.4.2zm-25 34.7l-3.1.4v-.2c.6-.1.8-.1.7-.4 0-.2-.4-.8-.6-1l-2.2.3c-.2.6-.3 1-.3 1.1 0 .3.5.3.8.3v.2l-2 .2v-.2c.5-.1.6-.4.8-1.1l1.6-4.7h.3l2.6 4c.5.8.7 1.1 1.2 1l.2.1zm-3.2-1.6l-1.2-1.9-.7 2.1 1.9-.2zm58.1-10.3c-.6-1.5-1.8-2.5-3.2-3-1.5-.3-3.1-.1-4.1 1.1-1.7 1.4-.5 3.7-.5 5.6 0 .4.1.7-.3.9-6.9-.6-13.3-2.3-20.2-3.1-1.6-.3-3.2-.2-4.6-.5l-1.9-.2c-6 .2-11.9.5-17.5 2l-3.7.9c-.9-.1-1.6.5-2.4.2l-1.6.4h-.5c-.8-2 1.5-3.2.8-5.1-.6-1.1-1.9-2.1-3.3-2-1.6-.2-3 .7-3.8 2-1.1 2.4.3 4.9.7 7.2-.1.8.8 1.6 0 2.2-1.5-1.1-3.5-1.6-5.4-1.1-.6.3-1.6-.1-1.9.6 2.1 1.1 4.7 1 7 .9.3-.1.5-.1.7.1.2 1.3-.2 2.9.5 4 .9 1.2 2.3 1.4 3.7 1.6 4.4-.1 8.3-1.4 12.3-2.4.6 0 1.1-.4 1.8-.4 2.1-.5 4.5-.9 6.8-.9-1 1.3-1.6 2.7-2 4.3-.6 1.3 1 1.5 1.5 2.2-1.5.4-2.5 1.4-3.9 2-3-.1-5.6 1.1-8.5 1.4 0 .6 1 .4 1.1 1.1-.1.4-.6.5-.9.7-.1.3 0 .3.3.4l1.2-.4c1 0 1.8-.3 2.7-.3.8-.3 1.7-.4 2.4-1l2.6-1.3c1.4 0 2.7-.5 4-.6v.3c-1.1 1.8-2.2 3.6-3.4 5.3-.2.3 0 .7.3.8.7.2 1.3 0 1.9-.3 1-1.7 1.9-3.4 2.7-5.1.3-1.6 1.5-2.5 2.7-3.6.2-.1.5-.4.7-.1-1 1.1-1.6 2.2-2.3 3.4-.4 1.3-.5 3.1.7 4.2.6.5 1.4.3 2.2.4 1.9-1 4.2.6 5.7-1.3.9-.1 1 .9 1.5 1.3.8.2 1.7 1.1 2.5.5-.1-.5-.6-1-.9-1.5-.6-1-1.3-1.8-1.8-2.7-.2-.7-.7-1.1-.8-1.8.9.3 1.6.9 2.6 1 .8.3 1.8.3 2.6.8.6.8 1.6 1.3 2.4 1.8 1.2.6 2.5.7 3.8 1.2.5 0 1.2.4 1.5 0-.2-.2-.4-.4-.7-.5-.1-.6.9-.3 1.2-.8-.1-.2-.3-.3-.5-.4-.7-.4-2.4-.5-2.8-.7-.6-.1-1.1-.3-1.7-.5-2.9 0-4.4-2.6-6.7-3.6.5-.5 1.3-.9 1.7-1.6s.6-1.8.1-2.5c-.4-1.5-2.3-1.3-3.4-2.1l.1-.1c1.9-.1 3.5.3 5.1.7 4.6.6 8.8 2.3 13.6 2.4 2.6 0 5.9.1 7.2-2.4.2-1.5.5-3 .8-4.5.2-2.7 1.8-4.9 1.5-7.5zm-51.4 21.8l-.7-.6c.3-.4 1.1-.2 1.6-.5 1.2-.4 2.7-.9 4-.6-1.4 1.2-3.2 1.4-4.9 1.7zm29.7-.7c1.1.5 3.4 1 5.1 1.2-.2.6-1.3 0-1.2 1-1.5-.6-3.2-.9-4.3-2 .2-.1.3-.3.4-.2zm-44.6-20.4c.1-.9.3-1.8 1.1-2.4 1.2-.6 2.7-.5 3.8.2.3.2.6.5.8.9.2.8-.2 1.7-.7 2.2h-.6c0-.8 0-1.5.3-2.2 0-.6-.5-.6-.9-.9-.8-.2-1.5.1-2.1.5-.5.6-.9 1.3-.6 2.1.3.5 0 1.3.2 1.8l-.1.2c-.6-.6-1.4-1.3-1.2-2.4zm2.2 1.4c.7.5 1.7.3 2.6.4.1.5.1 1.2-.2 1.6-.8-.2-1.9-.1-2.3-.9.1-.3-.2-.7-.1-1.1zm-.1-1.6c.1-.4 0-1 .5-1.1.3-.1.9-.1.9.3 0 .6-.1 1.2-.2 1.7-.7 0-1-.4-1.2-.9zm22.3 15.4c-.2-1.7.4-3.1 1.5-4.3.7-.1 1.4-.3 2.1.1-1.2.3-2.8.6-3.1 2.2 0 .6-.2 1 .1 1.5.5.9 1.7.5 2.4 1.3 0 .2-.2.5-.4.6-.9-.6-1.8-.8-2.6-1.4zm-1.7 3.3c1.2-.5 2.3-1.5 3.6-1.1-.9.7-2.4 1-3.6 1.1zm4.5.4c-.7 1.5-1.4 3-2.3 4.5-.1.2-.5.3-.8.3 0-.7.7-1.2 1-1.8 1-1.3 1.3-2.7 2.4-3.9.3.4-.3.6-.3.9zm1.2-2.7v.2h-.1l.1-.2c.1-.1 0-.1 0 0zm-.4-1.3c-.8-.1-1.6-.3-2.3-.6-.5-.5 0-1 0-1.5.7-1.1 2.6-1.6 3.5-.6-.2 1-.6 1.9-1.2 2.7zm1 0c.1-.6.4-1.4.8-2-.1.6-.4 1.4-.8 2zm.5-3.9c-.6-.1-1-.9-1.6-.9.6-.2 1.1-.1 1.8 0 .3.3-.1.6-.2.9zm.6 1.4l-.1-.5h.1v.5zm.1 2.2c-.1-.2.1-.4.1-.7.2-.2.5.2.6.3-.2.3-.5.5-.7.4zm.7-2.9c.2-.7.3-1.3.7-1.8.5 0 .9 0 1.3.2.1 1 1.3 2.2 0 3.1-.4.2-1.1.6-1.5.2-.7-.6-.8-1.1-.5-1.7zm3.5-1.4c-.1-.4.4-.1.6-.3l1.5.1c-.8-.1-1.8 1.7-2.1.2zm2.3.6c-.6.2-1 .9-1.6 1 .3-.5 1.1-1 1.6-1zm-2 3zm.1 2.9c0 .1.1.2-.1.3l-1.1-.9c.6 0 .9.2 1.2.6zm-1.3-1.5c.1-.1.3-.1.4 0h-.4zm-.6-.7c.2-.3.4-.7.8-.7 0 0 0 .1.1.1-.3.3-.6.5-.9.6zm-1.1-.1h-.2l.3-.3c.1.1-.1.2-.1.3zm.1 1.8c.6-.7 1.2.4 1.4.9.7 1.1 2.6 2 1.9 3.5-.9.8-2.3.1-3.3.7-.5-.1-1.4.1-1.7-.4.5-1.6.9-3.3 1.7-4.7zm-1.3 1l.2-.4c-.4 1.2-1 2.3-1.6 3.5-.2-1.2 1-2.1 1.4-3.1zm2.1 5.7c-.9.1-2.3.6-3.1-.2 0-.4-.4-.6-.3-1 .8-.3 1.4.6 2.1-.1 1.1.1 2.2-.1 3.3.1.5.1 1.3-.9 1.4.1-.4 1.7-2.3.6-3.4 1.1zm2.7-6.9v-.2h.1l-.1.2zm.3 3c.1.5.5.7.2 1.1 0-.2-.3-.6-.2-1.1zm1.4 2.9l-.2.1c-.2-.2-.1-.7-.1-1 .2.2.4.5.3.9zm2.3 1.1c0 .1-.3.1-.4 0-1.4-1.8-2.1-3.7-3-5.8h.2c1.2 1.9 2.1 4 3.2 5.8zm1.8-4.4c-.1 0-.1.1-.1.2-1.4.1-2.3-.8-3.3-1.5l-.1-.2c1.3.1 2.4.9 3.5 1.5zm-1.2-6.4c.6.1.6.8.7 1.3-.1 1.1-.6 2-1.6 2.3-.5.3-1.3.4-1.9.2 1.1 0 2.4-.5 2.9-1.6l-.1-2.2zm-1.1-.2c.2.7.7 1.3.4 2.1-.5.9-1.4.9-2.3 1.1-.4.1-.8-.1-1.1-.3 0-.2 0-.3-.2-.5.1-.6-1.1-1.3-.2-1.8.8-.7 2.6-2.3 3.4-.6zm24.2-3.5c-.4.5 0 1.3-.5 1.7 0 .9-.7 1.3-1.3 1.6-5.7 1.3-11.2-.7-16.7-1.6-7.7-1.7-16.6-2.1-24.4-.4-3.7.7-7.2 1.5-10.8 2.5-2.2.3-4.6.6-6.7 0-1.7-.8-1-3-1.5-4.6.1-1.2-.3-2.1-.4-3.3-.1-.4-.2-.9-.2-1.3.7.1 1.4.6 2.2.8 4 .8 7.6-.5 11.3-1.2 3.6-.8 7.2-1.4 11-1.7 4.3 0 8.7-.3 12.8.4 1.3 0 2.5.4 3.8.5 2.7.3 5.1 1.1 7.9 1.3l1.4.2c4.3.7 9.1 1.9 13.2 0-.1 1.9-.9 3.4-1.1 5.1zm-1.3-5.8c0 .8-.7.6-1.1.9h-1.2c-.2-.4-.1-1-.1-1.3.8 0 1.7 0 2.4.4zm-.6-1.2c.5-.5-.1-3.6 1.3-1.6 0 .4.1 1-.3 1.3-.2.1-.6.5-1 .3zm3.9-.5c-.4.9-1.1 1.5-2.1 1.6 0-1.2 1.1-2 .7-3.3-.6-.9-1.9-1.2-3-1-.4.3-.2.8-.4 1.2l-.2 1.6c-1 0-1-.9-1.3-1.5 0-1 .5-2 1.5-2.5.8-.4 2-.3 2.8.1.6.1 1.3.4 1.6 1 .7.7.6 1.9.4 2.8z"/></g><path fill="#333" d="M422.9 129.6l-1.6 18.3c-.1.9-.1 1.4-.1 1.7 0 .4.1.8.2 1 .2.3.5.5.8.7s.9.2 1.7.2l-.2.6h-8.5l.2-.6h.4c.7 0 1.2-.2 1.7-.5.3-.2.5-.5.7-1 .1-.3.2-1.1.3-2.4l.3-2.8h-6.2l-2.2 3c-.5.7-.8 1.2-.9 1.5s-.2.6-.2.8c0 .3.1.6.4.9.3.2.7.4 1.4.4l-.2.6h-6.4l.2-.6c.8 0 1.5-.3 2.1-.8s1.5-1.6 2.7-3.2l12.9-17.8h.5zm-3.2 5.4l-6.2 8.7h5.4l.8-8.7zm21.1 2.8l-2.8 9.6c-.4 1.4-.6 2.3-.6 2.7 0 .2 0 .3.1.4s.2.1.3.1c.2 0 .4-.1.6-.3s.8-.8 1.6-2l.5.4c-.8 1.3-1.7 2.3-2.6 3-.6.4-1.1.6-1.7.6-.4 0-.7-.1-1-.4-.2-.2-.3-.5-.3-.9s.1-.9.2-1.5c.2-.8.7-2.5 1.4-5.2-1.8 3-3.3 5.1-4.5 6.2-1.2 1.1-2.3 1.7-3.4 1.7-.5 0-.9-.2-1.2-.5-.3-.3-.5-.8-.5-1.3 0-.8.2-2.1.7-3.7l1.4-5c.3-1.2.5-1.9.5-2.2 0-.1 0-.2-.1-.3s-.2-.1-.3-.1c-.2 0-.4.1-.7.2-.2.2-.7.8-1.5 1.8l-.5-.4c.8-1.3 1.6-2.2 2.5-2.8.7-.5 1.3-.7 1.9-.7.4 0 .7.1 1 .4s.4.6.4 1c0 .6-.2 1.6-.6 3.1l-1.5 5.2c-.4 1.4-.6 2.3-.6 2.7 0 .2.1.4.2.5s.3.2.5.2c.3 0 .8-.2 1.4-.5.6-.4 1.3-1.1 2.2-2.4.9-1.2 1.7-2.4 2.3-3.4.6-1.1 1.3-2.8 1.9-5.1l.3-1.2 2.5.1zm12.2-.4l-1 5h-.6c-.1-1.4-.4-2.5-.9-3.2-.6-.7-1.2-1-2-1-.7 0-1.2.2-1.6.6-.4.4-.6.8-.6 1.3 0 .4.1.7.2 1 .2.3.5.8 1 1.4 1.4 1.5 2.3 2.7 2.7 3.5.4.8.6 1.5.6 2.2 0 1.1-.5 2.1-1.4 3s-2.1 1.3-3.5 1.3c-.8 0-1.6-.2-2.6-.6-.3-.1-.6-.2-.8-.2-.5 0-.8.2-1.1.7h-.4l1-5.2h.6c.1 1.6.4 2.8 1 3.5s1.4 1 2.5 1c.8 0 1.4-.2 1.9-.7s.7-1 .7-1.7c0-.4-.1-.8-.3-1.2-.3-.6-.9-1.5-1.9-2.7-.9-1.1-1.6-2-1.8-2.6-.3-.6-.4-1.1-.4-1.7 0-1 .4-1.9 1.1-2.7.7-.7 1.7-1.1 2.9-1.1.3 0 .6 0 .9.1.1 0 .5.2 1 .4s.9.3 1.1.3c.5 0 .8-.3 1.1-.8l.6.1zm8.9-4l-1.2 4.4h2.5l-.3 1h-2.5l-2.7 9.6c-.3 1-.4 1.7-.4 2 0 .2 0 .3.1.4.1.1.2.1.3.1.3 0 .6-.2 1-.6.3-.2.8-.9 1.7-2l.5.4c-1 1.4-1.9 2.5-2.8 3.1-.6.4-1.2.6-1.8.6-.5 0-.8-.1-1.1-.4-.3-.3-.4-.7-.4-1.1 0-.6.2-1.5.5-2.7l2.6-9.4h-2.4l.2-.6c1.2-.3 2.1-.8 2.9-1.4.8-.6 1.6-1.8 2.6-3.3h.7v-.1zm1.8 4.9l5.5-.9-2.3 7.9c1.9-3.2 3.5-5.5 5-6.8.9-.7 1.6-1.1 2.1-1.1.3 0 .6.1.8.3.2.2.3.5.3.9 0 .7-.2 1.4-.5 2-.3.5-.6.7-1.1.7-.2 0-.5-.1-.6-.2-.2-.2-.3-.4-.3-.7 0-.2-.1-.3-.1-.4-.1-.1-.2-.1-.3-.1-.2 0-.3 0-.5.1-.3.2-.7.6-1.3 1.3-.9 1.1-1.8 2.4-2.9 4.1-.4.7-.8 1.5-1.1 2.4-.4 1.2-.7 2-.8 2.2l-.5 2h-2.4l2.9-10.1c.3-1.2.5-2 .5-2.5 0-.2-.1-.4-.2-.5-.2-.2-.5-.3-.8-.3-.2 0-.6 0-1.2.1l-.2-.4zm25.7-.9l-3.1 11-.3 1.5v.4c0 .2.1.3.2.5.1.1.2.1.3.1.1 0 .3-.1.5-.3.4-.3 1-1 1.7-1.9l.5.4c-.7 1.1-1.5 2-2.3 2.6s-1.5.9-2.1.9c-.5 0-.8-.1-1-.3s-.3-.6-.3-1c0-.5.1-1.2.3-2.1l.3-1.2c-1.4 1.8-2.7 3.1-3.8 3.9-.8.5-1.7.8-2.5.8s-1.4-.3-2-1-.8-1.6-.8-2.7c0-1.7.5-3.5 1.5-5.4s2.3-3.4 3.8-4.6c1.2-.9 2.4-1.4 3.4-1.4.6 0 1.2.2 1.6.5s.8.9 1 1.7l.6-1.8 2.5-.6zm-5.7.8c-.7 0-1.4.3-2.2 1-1.1.9-2 2.3-2.9 4.1s-1.3 3.4-1.3 4.9c0 .7.2 1.3.5 1.7.4.4.8.6 1.2.6 1.2 0 2.4-.9 3.8-2.6 1.8-2.3 2.7-4.7 2.7-7.1 0-.9-.2-1.6-.5-2-.2-.4-.7-.6-1.3-.6zm15.8-9.2l-5.4 19.3c-.3 1-.4 1.5-.4 1.8 0 .2 0 .3.2.4.1.1.2.2.4.2s.4-.1.7-.3c.5-.4 1.1-1.1 1.7-2.1l.5.5c-1 1.4-1.9 2.5-2.8 3-.6.4-1.2.6-1.8.6-.4 0-.7-.1-1-.4s-.4-.6-.4-1 .2-1.2.5-2.4l4.3-15.2c.3-1.2.5-2 .5-2.1 0-.3-.1-.5-.3-.6-.2-.2-.5-.3-.9-.3-.2 0-.6 0-1.1.1v-.6l5.3-.9zm6.4 8.4l-3.1 11.3c-.2.8-.3 1.2-.3 1.4s0 .3.2.4c.1.1.2.2.4.2s.3-.1.6-.3c.6-.5 1.2-1.2 1.8-2.1l.6.4c-.7 1.1-1.6 2.1-2.5 2.8-.7.6-1.4.9-2.1.9-.4 0-.8-.1-1.1-.4-.3-.3-.4-.6-.4-1s.1-1.1.4-2l2.1-7.3c.3-1.2.5-1.9.5-2.2 0-.2-.1-.4-.2-.6s-.4-.2-.7-.2c-.2 0-.7.1-1.4.2v-.6l5.2-.9zm-.2-6.4c.4 0 .8.2 1.1.5.3.3.5.7.5 1.1 0 .4-.2.8-.5 1.1s-.7.5-1.1.5-.8-.2-1.1-.5c-.3-.3-.5-.7-.5-1.1 0-.5.2-.8.5-1.1.3-.4.6-.5 1.1-.5zm16.5 6.4l-3.1 11-.3 1.5v.4c0 .2.1.3.2.5.1.1.2.1.3.1s.3-.1.5-.3c.4-.3 1-1 1.7-1.9l.5.4c-.7 1.1-1.5 2-2.3 2.6s-1.5.9-2.1.9c-.5 0-.8-.1-1-.3s-.3-.6-.3-1c0-.5.1-1.2.3-2.1l.3-1.2c-1.4 1.8-2.7 3.1-3.8 3.9-.8.5-1.7.8-2.5.8s-1.4-.3-2-1-.8-1.6-.8-2.7c0-1.7.5-3.5 1.5-5.4s2.3-3.4 3.8-4.6c1.2-.9 2.4-1.4 3.4-1.4.6 0 1.2.2 1.6.5s.8.9 1 1.7l.6-1.8 2.5-.6zm-5.7.8c-.7 0-1.4.3-2.2 1-1.1.9-2 2.3-2.9 4.1s-1.3 3.4-1.3 4.9c0 .7.2 1.3.5 1.7.4.4.8.6 1.2.6 1.2 0 2.4-.9 3.8-2.6 1.8-2.3 2.7-4.7 2.7-7.1 0-.9-.2-1.6-.5-2-.2-.4-.6-.6-1.3-.6zm12.6-2.1c.8-.4 1.4-.8 1.9-1.4.4-.4.6-.8.6-1.2 0-.2 0-.4-.1-.6 0-.1-.2-.3-.4-.5s-.4-.4-.4-.5c-.1-.2-.1-.4-.1-.6 0-.5.2-.9.5-1.2s.7-.5 1.1-.5c.4 0 .8.2 1.2.5.3.4.5.8.5 1.3 0 1-.4 1.9-1.1 2.9s-1.8 1.7-3.2 2.3l-.5-.5zm11.5 1.3l-1 5h-.6c-.1-1.4-.4-2.5-.9-3.2s-1.2-1-2-1c-.7 0-1.2.2-1.6.6-.4.4-.6.8-.6 1.3 0 .4.1.7.2 1 .2.3.5.8 1 1.4 1.4 1.5 2.3 2.7 2.7 3.5s.6 1.5.6 2.2c0 1.1-.5 2.1-1.4 3s-2.1 1.3-3.5 1.3c-.8 0-1.6-.2-2.6-.6-.3-.1-.6-.2-.8-.2-.5 0-.8.2-1.1.7h-.6l1-5.2h.6c.1 1.6.4 2.8 1 3.5s1.4 1 2.5 1c.8 0 1.4-.2 1.9-.7s.7-1 .7-1.7c0-.4-.1-.8-.3-1.2-.3-.6-.9-1.5-1.9-2.7-.9-1.1-1.6-2-1.8-2.6-.3-.6-.4-1.1-.4-1.7 0-1 .4-1.9 1.1-2.7.7-.7 1.7-1.1 2.9-1.1.3 0 .6 0 .9.1.1 0 .5.2 1 .4s.9.3 1.1.3c.5 0 .8-.3 1.1-.8l.8.1zm18.6-6.2l-2.5 8.7h2.8c1.3 0 2.2-.2 2.8-.6.6-.4 1.3-1.3 1.9-2.6h.6l-2.2 8h-.6c.2-.6.2-1.2.2-1.6 0-.7-.2-1.2-.6-1.5s-1.2-.5-2.4-.5h-2.9l-1.9 6.6c-.3 1.2-.5 2-.5 2.3 0 .4.1.7.4.9s1 .4 2.1.4l-.2.6h-8.5l.2-.6c.8 0 1.4-.1 1.7-.2.4-.2.7-.4.9-.7.3-.4.6-1.4 1-2.7l3.8-13.2c.3-1.1.5-1.9.5-2.5 0-.3-.1-.5-.2-.7-.1-.2-.3-.3-.6-.4-.3-.1-.8-.1-1.6-.1l.2-.6h16.7l-1.6 5.6h-.6c.1-.7.2-1.2.2-1.7 0-.7-.2-1.3-.6-1.7-.4-.4-.9-.7-1.5-.9-.4-.1-1.4-.2-2.8-.2h-4.2v-.1zm12.7 14.7c-.1.5-.1 1-.1 1.3 0 1 .3 1.8 1 2.5s1.5 1 2.4 1c.8 0 1.5-.2 2.2-.5s1.7-1 3.1-2.1l.3.5c-2.5 2.5-4.9 3.8-7.2 3.8-1.5 0-2.7-.5-3.5-1.5s-1.2-2.1-1.2-3.3c0-1.6.5-3.3 1.5-4.9 1-1.7 2.2-3 3.7-3.9s3-1.4 4.5-1.4c1.1 0 2 .2 2.5.7s.8 1 .8 1.7c0 .9-.3 1.8-1 2.6-.9 1.1-2.3 1.9-4.1 2.6-1.1.3-2.8.7-4.9.9zm.1-.8c1.6-.2 2.8-.5 3.8-.9 1.3-.6 2.3-1.3 2.9-2.1.7-.8 1-1.6 1-2.4 0-.5-.1-.8-.4-1.1-.3-.3-.7-.4-1.2-.4-1.1 0-2.2.6-3.4 1.8-1.2 1.1-2.1 2.8-2.7 5.1zm27.5-16.1l-5.5 19.1c-.3 1-.4 1.7-.4 2 0 .1 0 .2.1.3s.2.1.3.1.3-.1.5-.2c.4-.3 1-.9 1.8-1.9l.5.3c-.8 1.1-1.5 2-2.3 2.6-.8.7-1.5 1-2.2 1-.4 0-.7-.1-.9-.4-.2-.3-.3-.6-.3-1.1 0-.6.2-1.4.5-2.5l.6-2c-1.5 2.4-2.9 4.1-4.2 5-.9.6-1.7 1-2.5 1s-1.5-.4-2.1-1.1c-.6-.7-.9-1.7-.9-3 0-1.6.5-3.3 1.5-5.1s2.3-3.3 4-4.5c1.3-.9 2.5-1.4 3.6-1.4.6 0 1.1.1 1.5.4.4.2.8.6 1.2 1.2l1.6-5.6c.1-.4.2-.7.3-1 .1-.4.2-.8.2-1.1 0-.2-.1-.4-.2-.6-.2-.2-.5-.3-.9-.3-.2 0-.6 0-1.2.1v-.6l5.4-.7zm-5.9 11.5c0-.7-.2-1.2-.6-1.7s-.9-.6-1.5-.6c-1.3 0-2.7 1.1-4.2 3.4-1.4 2.2-2.2 4.4-2.2 6.4 0 .8.2 1.4.5 1.9.3.4.8.6 1.3.6 1.1 0 2.5-1.2 4.1-3.6 1.8-2.5 2.6-4.6 2.6-6.4zm8 5.4c-.1.5-.1 1-.1 1.3 0 1 .3 1.8 1 2.5s1.5 1 2.4 1c.8 0 1.5-.2 2.2-.5s1.7-1 3.1-2.1l.3.5c-2.5 2.5-4.9 3.8-7.2 3.8-1.5 0-2.7-.5-3.5-1.5s-1.2-2.1-1.2-3.3c0-1.6.5-3.3 1.5-4.9 1-1.7 2.2-3 3.7-3.9s3-1.4 4.5-1.4c1.1 0 2 .2 2.5.7s.8 1 .8 1.7c0 .9-.3 1.8-1 2.6-.9 1.1-2.3 1.9-4.1 2.6-1.1.3-2.8.7-4.9.9zm.1-.8c1.6-.2 2.8-.5 3.8-.9 1.3-.6 2.3-1.3 2.9-2.1.7-.8 1-1.6 1-2.4 0-.5-.1-.8-.4-1.1-.3-.3-.7-.4-1.2-.4-1.1 0-2.2.6-3.4 1.8-1.3 1.1-2.1 2.8-2.7 5.1zm11.6-6.8l5.5-.9-2.3 7.9c1.9-3.2 3.5-5.5 5-6.8.9-.7 1.6-1.1 2.1-1.1.3 0 .6.1.8.3s.3.5.3.9c0 .7-.2 1.4-.5 2-.3.5-.6.7-1.1.7-.2 0-.5-.1-.6-.2-.2-.2-.3-.4-.3-.7 0-.2-.1-.3-.1-.4-.1-.1-.2-.1-.3-.1-.2 0-.3 0-.5.1-.3.2-.7.6-1.3 1.3-.9 1.1-1.8 2.4-2.9 4.1-.4.7-.8 1.5-1.1 2.4-.4 1.2-.7 2-.8 2.2l-.5 2h-2.4l2.9-10.1c.3-1.2.5-2 .5-2.5 0-.2-.1-.4-.2-.5-.2-.2-.5-.3-.8-.3-.2 0-.6 0-1.2.1l-.2-.4zm25.7-.9l-3.1 11-.3 1.5v.4c0 .2.1.3.2.5.1.1.2.1.3.1s.3-.1.5-.3c.4-.3 1-1 1.7-1.9l.5.4c-.7 1.1-1.5 2-2.3 2.6s-1.5.9-2.1.9c-.5 0-.8-.1-1-.3s-.3-.6-.3-1c0-.5.1-1.2.3-2.1l.3-1.2c-1.4 1.8-2.7 3.1-3.8 3.9-.8.5-1.7.8-2.5.8s-1.4-.3-2-1-.8-1.6-.8-2.7c0-1.7.5-3.5 1.5-5.4s2.3-3.4 3.8-4.6c1.2-.9 2.4-1.4 3.4-1.4.6 0 1.2.2 1.6.5s.8.9 1 1.7l.6-1.8 2.5-.6zm-5.6.8c-.7 0-1.4.3-2.2 1-1.1.9-2 2.3-2.9 4.1s-1.3 3.4-1.3 4.9c0 .7.2 1.3.5 1.7.4.4.8.6 1.2.6 1.2 0 2.4-.9 3.8-2.6 1.8-2.3 2.7-4.7 2.7-7.1 0-.9-.2-1.6-.5-2-.2-.4-.7-.6-1.3-.6zm15.8-9.2l-5.4 19.3c-.3 1-.4 1.5-.4 1.8 0 .2 0 .3.2.4.1.1.2.2.4.2s.4-.1.7-.3c.5-.4 1.1-1.1 1.7-2.1l.5.5c-1 1.4-1.9 2.5-2.8 3-.6.4-1.2.6-1.8.6-.4 0-.7-.1-1-.4s-.4-.6-.4-1 .2-1.2.5-2.4l4.3-15.2c.3-1.2.5-2 .5-2.1 0-.3-.1-.5-.3-.6-.2-.2-.5-.3-.9-.3-.2 0-.6 0-1.1.1v-.6l5.3-.9zm11.6 1.1h8.5c2.2 0 3.9.5 5 1.5s1.6 2.2 1.6 3.6c0 1.1-.3 2.2-1 3.2s-1.7 1.9-3.1 2.5c-1.4.7-2.9 1-4.5 1-1 0-2.3-.2-3.8-.5l-1.7 6c-.4 1.4-.6 2.4-.6 2.8 0 .3.1.6.4.9.3.2 1 .4 2 .4l-.2.6h-8.4l.2-.6c1.1 0 1.9-.2 2.3-.6.4-.4.9-1.5 1.4-3.3l3.6-12.5c.4-1.5.6-2.5.6-3 0-.4-.2-.7-.5-.9s-1-.4-2-.5l.2-.6zm3 10.2c1.2.3 2.2.5 2.9.5 1.2 0 2.2-.2 3.1-.7.9-.5 1.7-1.2 2.2-2.2s.8-2 .8-3c0-1.1-.3-2-1-2.6s-1.7-1-3-1c-.7 0-1.6.1-2.6.3l-2.4 8.7zm13-2l5.5-.9-2.3 7.9c1.9-3.2 3.5-5.5 5-6.8.9-.7 1.6-1.1 2.1-1.1.3 0 .6.1.8.3s.3.5.3.9c0 .7-.2 1.4-.5 2-.3.5-.6.7-1.1.7-.2 0-.5-.1-.6-.2-.2-.2-.3-.4-.3-.7 0-.2-.1-.3-.1-.4-.1-.1-.2-.1-.3-.1-.2 0-.3 0-.5.1-.3.2-.7.6-1.3 1.3-.9 1.1-1.8 2.4-2.9 4.1-.4.7-.8 1.5-1.1 2.4-.4 1.2-.7 2-.8 2.2l-.5 2h-2.4l2.9-10.1c.3-1.2.5-2 .5-2.5 0-.2-.1-.4-.2-.5-.2-.2-.5-.3-.8-.3-.2 0-.6 0-1.2.1l-.2-.4zm24.3 4.1c0 1.6-.4 3.2-1.3 4.8-.8 1.6-2 2.8-3.5 3.8-1.5.9-3 1.4-4.4 1.4s-2.6-.5-3.5-1.4-1.4-2.2-1.4-3.7c0-1.6.4-3.2 1.3-4.8.9-1.6 2.1-2.9 3.6-3.8 1.5-.9 2.9-1.4 4.3-1.4s2.5.5 3.5 1.4c.9 1 1.4 2.2 1.4 3.7zm-2.7-1.1c0-1-.2-1.8-.7-2.3s-1.1-.8-1.9-.8c-1.6 0-3 1.1-4.3 3.4-1.3 2.3-2 4.5-2 6.8 0 1 .3 1.8.8 2.4.5.6 1.1.8 1.9.8 1.5 0 2.9-1.1 4.2-3.4 1.4-2.2 2-4.5 2-6.9zm15.2-3.9l-1 5h-.6c-.1-1.4-.4-2.5-.9-3.2s-1.2-1-2-1c-.7 0-1.2.2-1.6.6-.4.4-.6.8-.6 1.3 0 .4.1.7.2 1 .2.3.5.8 1 1.4 1.4 1.5 2.3 2.7 2.7 3.5s.6 1.5.6 2.2c0 1.1-.5 2.1-1.4 3s-2.1 1.3-3.5 1.3c-.8 0-1.6-.2-2.6-.6-.3-.1-.6-.2-.8-.2-.5 0-.8.2-1.1.7h-.6l1-5.2h.6c.1 1.6.4 2.8 1 3.5s1.4 1 2.5 1c.8 0 1.4-.2 1.9-.7s.7-1 .7-1.7c0-.4-.1-.8-.3-1.2-.3-.6-.9-1.5-1.9-2.7-.9-1.1-1.6-2-1.8-2.6-.3-.6-.4-1.1-.4-1.7 0-1 .4-1.9 1.1-2.7.7-.7 1.7-1.1 2.9-1.1.3 0 .6 0 .9.1.1 0 .5.2 1 .4s.9.3 1.1.3c.5 0 .8-.3 1.1-.8l.8.1zm4.2 8.5c-.1.5-.1 1-.1 1.3 0 1 .3 1.8 1 2.5s1.5 1 2.4 1c.8 0 1.5-.2 2.2-.5s1.7-1 3.1-2.1l.3.5c-2.5 2.5-4.9 3.8-7.2 3.8-1.5 0-2.7-.5-3.5-1.5s-1.2-2.1-1.2-3.3c0-1.6.5-3.3 1.5-4.9 1-1.7 2.2-3 3.7-3.9s3-1.4 4.5-1.4c1.1 0 2 .2 2.5.7s.8 1 .8 1.7c0 .9-.3 1.8-1 2.6-.9 1.1-2.3 1.9-4.1 2.6-1 .3-2.7.7-4.9.9zm.1-.8c1.6-.2 2.8-.5 3.8-.9 1.3-.6 2.3-1.3 2.9-2.1.7-.8 1-1.6 1-2.4 0-.5-.1-.8-.4-1.1-.3-.3-.7-.4-1.2-.4-1.1 0-2.2.6-3.4 1.8-1.2 1.1-2.1 2.8-2.7 5.1zm22.6 3.4c-1.1 1.3-2.2 2.3-3.3 3-1.1.6-2.3.9-3.6.9-1.5 0-2.7-.4-3.5-1.3-.8-.9-1.3-2-1.3-3.5 0-1.7.5-3.3 1.4-4.9s2.1-2.9 3.6-3.9 3-1.5 4.5-1.5c1.2 0 2 .2 2.6.7s.9 1.1.9 1.8-.2 1.2-.6 1.7c-.3.4-.7.5-1.1.5-.3 0-.6-.1-.8-.3s-.3-.5-.3-.8c0-.2 0-.4.1-.6.1-.2.2-.4.5-.6l.5-.5c.1-.1.1-.2.1-.3 0-.2-.1-.4-.3-.6-.3-.2-.7-.3-1.3-.3-1 0-2.1.4-3.1 1.1-1 .7-1.9 1.8-2.6 3.2-.9 1.7-1.3 3.3-1.3 5 0 1.1.3 2 .9 2.6.6.6 1.4 1 2.5 1 .8 0 1.6-.2 2.4-.6.8-.4 1.7-1.2 2.7-2.3l.4.5zm16.6-10.7l-2.8 9.6c-.4 1.4-.6 2.3-.6 2.7 0 .2 0 .3.1.4s.2.1.3.1c.2 0 .4-.1.6-.3.2-.2.8-.8 1.6-2l.5.4c-.8 1.3-1.7 2.3-2.6 3-.6.4-1.1.6-1.7.6-.4 0-.7-.1-1-.4-.2-.2-.3-.5-.3-.9s.1-.9.2-1.5c.2-.8.7-2.5 1.4-5.2-1.8 3-3.3 5.1-4.5 6.2-1.2 1.1-2.3 1.7-3.4 1.7-.5 0-.9-.2-1.2-.5s-.5-.8-.5-1.3c0-.8.2-2.1.7-3.7l1.4-5c.3-1.2.5-1.9.5-2.2 0-.1 0-.2-.1-.3s-.2-.1-.3-.1c-.2 0-.4.1-.7.2-.2.2-.7.8-1.5 1.8l-.5-.4c.8-1.3 1.6-2.2 2.5-2.8.7-.5 1.3-.7 1.9-.7.4 0 .7.1 1 .4.2.3.4.6.4 1 0 .6-.2 1.6-.6 3.1l-1.5 5.2c-.4 1.4-.6 2.3-.6 2.7 0 .2.1.4.2.5.1.1.3.2.5.2.3 0 .8-.2 1.4-.5.6-.4 1.3-1.1 2.2-2.4.9-1.2 1.7-2.4 2.3-3.4.6-1.1 1.3-2.8 1.9-5.1l.3-1.2 2.5.1zm8.9-4.4l-1.2 4.4h2.5l-.3 1h-2.5l-2.7 9.6c-.3 1-.4 1.7-.4 2 0 .2 0 .3.1.4.1.1.2.1.3.1.3 0 .6-.2 1-.6.3-.2.8-.9 1.7-2l.5.4c-1 1.4-1.9 2.5-2.8 3.1-.6.4-1.2.6-1.8.6-.5 0-.8-.1-1.1-.4-.3-.3-.4-.7-.4-1.1 0-.6.2-1.5.5-2.7l2.6-9.4h-2.4l.2-.6c1.2-.3 2.1-.8 2.9-1.4.8-.6 1.6-1.8 2.6-3.3h.7v-.1zm7.6 4l-3.1 11.3c-.2.8-.3 1.2-.3 1.4s0 .3.2.4c.1.1.2.2.4.2s.3-.1.6-.3c.6-.5 1.2-1.2 1.8-2.1l.6.4c-.7 1.1-1.6 2.1-2.5 2.8-.7.6-1.4.9-2.1.9-.4 0-.8-.1-1.1-.4-.3-.3-.4-.6-.4-1s.1-1.1.4-2l2.1-7.3c.3-1.2.5-1.9.5-2.2 0-.2-.1-.4-.2-.6s-.4-.2-.7-.2c-.2 0-.7.1-1.4.2v-.6l5.2-.9zm-.2-6.4c.4 0 .8.2 1.1.5s.5.7.5 1.1c0 .4-.2.8-.5 1.1s-.7.5-1.1.5-.8-.2-1.1-.5-.5-.7-.5-1.1c0-.5.2-.8.5-1.1.3-.4.7-.5 1.1-.5zm16.3 11.4c0 1.6-.4 3.2-1.3 4.8-.8 1.6-2 2.8-3.5 3.8-1.5.9-3 1.4-4.4 1.4s-2.6-.5-3.5-1.4-1.4-2.2-1.4-3.7c0-1.6.4-3.2 1.3-4.8.9-1.6 2.1-2.9 3.6-3.8 1.5-.9 2.9-1.4 4.3-1.4s2.5.5 3.5 1.4c.9 1 1.4 2.2 1.4 3.7zm-2.6-1.1c0-1-.2-1.8-.7-2.3s-1.1-.8-1.9-.8c-1.6 0-3 1.1-4.3 3.4-1.3 2.3-2 4.5-2 6.8 0 1 .3 1.8.8 2.4.5.6 1.1.8 1.9.8 1.5 0 2.9-1.1 4.2-3.4 1.3-2.2 2-4.5 2-6.9zm10.5-3.9l-2.1 7.4c2-3 3.5-5 4.5-5.9 1.1-.9 2.1-1.4 3-1.4.5 0 1 .2 1.3.5.3.4.5.8.5 1.4 0 .6-.2 1.5-.5 2.6l-1.9 6.8c-.2.8-.3 1.3-.3 1.4 0 .2 0 .3.1.4.1.1.2.2.3.2s.3-.1.5-.2c.6-.5 1.2-1.1 1.8-2.1l.5.3c-1 1.4-1.9 2.5-2.8 3.1-.6.4-1.2.6-1.7.6-.4 0-.7-.1-.9-.4-.2-.2-.3-.6-.3-1 0-.5.2-1.4.5-2.7l1.8-6.5c.2-.8.3-1.4.3-1.9 0-.2-.1-.4-.2-.5-.1-.1-.3-.2-.5-.2-.3 0-.7.1-1.1.4-.8.5-1.6 1.3-2.4 2.4-.8 1.1-1.7 2.5-2.7 4.3-.5.9-.9 1.9-1.2 3l-.8 2.7h-2.4l2.9-10.1c.3-1.2.5-2 .5-2.2s-.1-.4-.3-.6c-.2-.2-.4-.3-.7-.3-.1 0-.3 0-.7.1l-.6.1-.1-.6 5.7-1.1zm16.5 15.1l1.8-8.1h.5c-.1.8-.1 1.4-.1 2 0 1.5.5 2.7 1.4 3.6.9.9 2.1 1.4 3.6 1.4 1.4 0 2.4-.4 3.2-1.3.7-.9 1.1-1.9 1.1-3 0-.7-.2-1.4-.5-2-.5-.9-1.8-2.5-4-4.7-1-1.1-1.7-1.9-2-2.4-.5-.9-.7-1.8-.7-2.8 0-1.5.6-2.8 1.7-3.9s2.6-1.6 4.3-1.6c.6 0 1.2.1 1.7.2l1.8.6c.6.2 1 .4 1 .4h.5c.3 0 .6-.1.8-.2.2-.2.5-.5.8-1h.6l-1.6 7.3h-.5c0-.6.1-1.2.1-1.6 0-1.3-.4-2.4-1.3-3.2-.8-.8-2-1.2-3.3-1.2-1.1 0-2 .3-2.7 1s-1 1.4-1 2.3c0 .8.2 1.5.7 2.2.4.7 1.4 1.8 3 3.4 1.6 1.5 2.6 2.8 3.1 3.6.5.9.7 1.8.7 2.8 0 1.1-.3 2.2-.9 3.2-.6 1-1.4 1.8-2.5 2.4-1.1.6-2.3.9-3.5.9-.6 0-1.2-.1-1.8-.2-.6-.1-1.4-.4-2.6-.9-.4-.2-.8-.2-1-.2-.6 0-1.1.4-1.5 1.3h-.9v-.3zm19.4-6.6c-.1.5-.1 1-.1 1.3 0 1 .3 1.8 1 2.5s1.5 1 2.4 1c.8 0 1.5-.2 2.2-.5s1.7-1 3.1-2.1l.3.5c-2.5 2.5-4.9 3.8-7.2 3.8-1.5 0-2.7-.5-3.5-1.5s-1.2-2.1-1.2-3.3c0-1.6.5-3.3 1.5-4.9 1-1.7 2.2-3 3.7-3.9s3-1.4 4.5-1.4c1.1 0 2 .2 2.5.7s.8 1 .8 1.7c0 .9-.3 1.8-1 2.6-.9 1.1-2.3 1.9-4.1 2.6-1.1.3-2.8.7-4.9.9zm.1-.8c1.6-.2 2.8-.5 3.8-.9 1.3-.6 2.3-1.3 2.9-2.1.7-.8 1-1.6 1-2.4 0-.5-.1-.8-.4-1.1-.3-.3-.7-.4-1.2-.4-1.1 0-2.2.6-3.4 1.8-1.3 1.1-2.2 2.8-2.7 5.1zm11.6-6.8l5.5-.9-2.3 7.9c1.9-3.2 3.5-5.5 5-6.8.9-.7 1.6-1.1 2.1-1.1.3 0 .6.1.8.3s.3.5.3.9c0 .7-.2 1.4-.5 2-.3.5-.6.7-1.1.7-.2 0-.5-.1-.6-.2-.2-.2-.3-.4-.3-.7 0-.2-.1-.3-.1-.4-.1-.1-.2-.1-.3-.1-.2 0-.3 0-.5.1-.3.2-.7.6-1.3 1.3-.9 1.1-1.8 2.4-2.9 4.1-.4.7-.8 1.5-1.1 2.4-.4 1.2-.7 2-.8 2.2l-.5 2h-2.4l2.9-10.1c.3-1.2.5-2 .5-2.5 0-.2-.1-.4-.2-.5-.2-.2-.5-.3-.8-.3-.2 0-.6 0-1.2.1l-.2-.4zm11.2.1l4.6-1c.3.8.6 1.6.8 2.4.3 1.2.5 2.7.7 4.3.1.8.2 2.6.3 5.3 1.3-1.5 2.1-2.4 2.4-2.8 1.4-1.9 2.2-3.1 2.4-3.4.3-.6.6-1.1.7-1.5.1-.3.2-.6.2-.9 0-.3-.2-.6-.7-1s-.7-.8-.7-1.2c0-.3.1-.7.4-.9.3-.3.6-.4 1-.4s.8.2 1.2.6c.3.4.5.8.5 1.4 0 .5-.1 1.1-.3 1.6-.3.8-.8 1.8-1.5 3s-2 2.8-3.6 4.8c-.2.2-1.4 1.5-3.5 3.8h-.6c-.3-6.8-.8-11.1-1.6-12.8-.3-.6-.7-.8-1.3-.8-.3 0-.6 0-1.1.1l-.3-.6zm20.7-1l-3.1 11.3c-.2.8-.3 1.2-.3 1.4s0 .3.2.4c.1.1.2.2.4.2s.3-.1.6-.3c.6-.5 1.2-1.2 1.8-2.1l.6.4c-.7 1.1-1.6 2.1-2.5 2.8-.7.6-1.4.9-2.1.9-.4 0-.8-.1-1.1-.4-.3-.3-.4-.6-.4-1s.1-1.1.4-2l2.1-7.3c.3-1.2.5-1.9.5-2.2 0-.2-.1-.4-.2-.6s-.4-.2-.7-.2c-.2 0-.7.1-1.4.2v-.6l5.2-.9zm-.2-6.4c.4 0 .8.2 1.1.5s.5.7.5 1.1c0 .4-.2.8-.5 1.1s-.7.5-1.1.5-.8-.2-1.1-.5-.5-.7-.5-1.1c0-.5.2-.8.5-1.1.3-.4.6-.5 1.1-.5zm13.8 17.5c-1.1 1.3-2.2 2.3-3.3 3-1.1.6-2.3.9-3.6.9-1.5 0-2.7-.4-3.5-1.3-.8-.9-1.3-2-1.3-3.5 0-1.7.5-3.3 1.4-4.9s2.1-2.9 3.6-3.9 3-1.5 4.5-1.5c1.2 0 2 .2 2.6.7s.9 1.1.9 1.8-.2 1.2-.6 1.7c-.3.4-.7.5-1.1.5-.3 0-.6-.1-.8-.3s-.3-.5-.3-.8c0-.2 0-.4.1-.6.1-.2.2-.4.5-.6l.5-.5c.1-.1.1-.2.1-.3 0-.2-.1-.4-.3-.6-.3-.2-.7-.3-1.3-.3-1 0-2.1.4-3.1 1.1-1 .7-1.9 1.8-2.6 3.2-.9 1.7-1.3 3.3-1.3 5 0 1.1.3 2 .9 2.6.6.6 1.4 1 2.5 1 .8 0 1.6-.2 2.4-.6.8-.4 1.7-1.2 2.7-2.3l.4.5zm5.3-2.6c-.1.5-.1 1-.1 1.3 0 1 .3 1.8 1 2.5s1.5 1 2.4 1c.8 0 1.5-.2 2.2-.5s1.7-1 3.1-2.1l.3.5c-2.5 2.5-4.9 3.8-7.2 3.8-1.5 0-2.7-.5-3.5-1.5s-1.2-2.1-1.2-3.3c0-1.6.5-3.3 1.5-4.9 1-1.7 2.2-3 3.7-3.9s3-1.4 4.5-1.4c1.1 0 2 .2 2.5.7s.8 1 .8 1.7c0 .9-.3 1.8-1 2.6-.9 1.1-2.3 1.9-4.1 2.6-1.1.3-2.8.7-4.9.9zm.1-.8c1.6-.2 2.8-.5 3.8-.9 1.3-.6 2.3-1.3 2.9-2.1.7-.8 1-1.6 1-2.4 0-.5-.1-.8-.4-1.1-.3-.3-.7-.4-1.2-.4-1.1 0-2.2.6-3.4 1.8-1.3 1.1-2.2 2.8-2.7 5.1z"/><path fill="#343434" d="M15.1 146.4h-8.3l-1 2.3c-.3.8-.5 1.4-.5 1.9 0 .7.3 1.1.8 1.4.3.2 1.1.3 2.3.4v.6h-7.7v-.6c.8-.1 1.5-.5 2.1-1 .5-.6 1.2-1.7 2-3.5l8.3-18.6h.3l8.4 19.1c.8 1.8 1.5 2.9 2 3.4.4.4.9.6 1.6.6v.6h-11.2v-.6h.5c.9 0 1.5-.1 1.9-.4.3-.2.4-.4.4-.8 0-.2 0-.4-.1-.6 0-.1-.2-.5-.5-1.3l-1.3-2.9zm-.6-1.3l-3.5-8-3.6 8h7.1zm26.6-8.1v12.6c0 1.2.1 2 .3 2.3s.7.5 1.4.6v.6h-6.5v-2.1c-.8.9-1.5 1.6-2.3 2s-1.6.6-2.6.6c-.9 0-1.7-.3-2.4-.8-.7-.6-1.2-1.2-1.4-1.9-.2-.7-.4-2-.4-3.9v-6.4c0-1.2-.1-2-.3-2.3-.2-.3-.7-.5-1.4-.6v-.7h6.5v11c0 1.1.1 1.9.2 2.2s.3.6.5.8.5.3.8.3c.4 0 .8-.1 1.1-.3.5-.3 1-.9 1.6-1.8v-8.6c0-1.2-.1-2-.3-2.3s-.7-.5-1.4-.6v-.7h6.6zm12.8-.5l.3 5.5h-.6c-.7-1.6-1.4-2.7-2.2-3.3-.7-.6-1.5-.9-2.2-.9-.5 0-.9.2-1.2.5s-.5.7-.5 1.1c0 .3.1.6.3.9.4.5 1.4 1.3 3.1 2.4 1.7 1.1 2.8 2.1 3.3 2.9.5.8.8 1.7.8 2.7 0 .9-.2 1.8-.7 2.6s-1.1 1.5-1.9 2c-.8.5-1.7.7-2.7.7-.8 0-1.8-.2-3.1-.7-.3-.1-.6-.2-.7-.2-.4 0-.7.3-.9.9h-.6l-.3-5.8h.6c.5 1.5 1.2 2.6 2.1 3.4.9.8 1.7 1.1 2.5 1.1.5 0 1-.2 1.3-.5s.5-.7.5-1.2-.2-1-.5-1.4-1.1-1-2.3-1.8c-1.8-1.2-2.9-2.1-3.4-2.8-.8-.9-1.1-2-1.1-3.1 0-1.2.4-2.4 1.3-3.4s2.1-1.5 3.7-1.5c.9 0 1.7.2 2.5.6.3.2.6.3.8.3s.4 0 .5-.1.3-.3.6-.7h.7v-.2zm8.5-5.4v5.9h3.8v1.7h-3.8v9.9c0 .9 0 1.5.1 1.8s.2.5.5.7c.2.2.4.2.6.2.7 0 1.4-.6 2.1-1.7l.5.4c-.9 2.2-2.4 3.3-4.5 3.3-1 0-1.9-.3-2.6-.8-.7-.6-1.2-1.2-1.3-1.9-.1-.4-.2-1.4-.2-3.2v-8.7h-2.1v-.6c1.4-1 2.7-2.1 3.7-3.2s1.9-2.4 2.7-3.8h.5zm10.6 5.9v3.6c1.1-1.7 2-2.8 2.8-3.3s1.6-.8 2.3-.8c.6 0 1.2.2 1.5.6.4.4.6 1 .6 1.7 0 .8-.2 1.4-.6 1.8-.4.4-.8.6-1.3.6-.6 0-1.1-.2-1.6-.6s-.7-.6-.8-.7c-.1-.1-.2-.1-.4-.1-.3 0-.6.1-.9.4-.5.4-.8.9-1.1 1.7-.4 1.1-.5 2.3-.5 3.7v4.7c0 .7 0 1.1.1 1.3.1.3.3.5.6.7.3.1.7.2 1.4.3v.6h-8.7v-.6c.7-.1 1.2-.2 1.4-.6.2-.3.4-1.2.4-2.6v-8.9c0-.9 0-1.5-.1-1.8s-.3-.6-.5-.7c-.2-.1-.6-.3-1.1-.3v-.7h6.5zm16.4 13.6c-2 1.7-3.7 2.6-5.3 2.6-.9 0-1.7-.3-2.3-.9-.6-.6-.9-1.4-.9-2.3 0-1.2.5-2.3 1.6-3.3s3.3-2.3 6.9-3.9v-1.6c0-1.2-.1-2-.2-2.3s-.4-.6-.7-.8-.8-.4-1.2-.4c-.7 0-1.4.2-1.8.5-.3.2-.4.4-.4.7 0 .2.2.5.5.9.4.5.7 1 .7 1.4 0 .6-.2 1-.6 1.4s-1 .6-1.6.6c-.7 0-1.3-.2-1.8-.7-.5-.4-.7-.9-.7-1.5 0-.8.3-1.6 1-2.4s1.6-1.3 2.7-1.7 2.4-.6 3.6-.6c1.5 0 2.7.3 3.6 1s1.5 1.3 1.7 2.1c.2.5.2 1.6.2 3.3v6.2c0 .7 0 1.2.1 1.4s.1.3.3.4c.1.1.2.1.4.1.3 0 .6-.2.9-.6l.5.4c-.6.8-1.2 1.5-1.8 1.8-.6.4-1.3.6-2.1.6-.9 0-1.6-.2-2.1-.6-.8-.2-1.1-.9-1.2-1.8zm0-1.2v-5.4c-1.4.8-2.4 1.7-3.1 2.6-.4.6-.7 1.2-.7 1.9 0 .5.2 1 .6 1.4.3.3.7.5 1.2.5.5-.1 1.2-.4 2-1zm13.6-19.7v19.9c0 1.1.1 1.9.4 2.2s.8.5 1.5.5v.6h-8.7v-.6c.7 0 1.2-.2 1.6-.6.2-.3.3-1 .3-2.1v-16.6c0-1.1-.1-1.8-.4-2.2-.3-.3-.8-.5-1.5-.5v-.6h6.8zm8.3 7.3v12.7c0 1.1.1 1.9.4 2.2s.8.5 1.5.5v.6h-8.7v-.6c.7 0 1.2-.2 1.6-.6.2-.3.3-1 .3-2.1v-9.4c0-1.1-.1-1.9-.4-2.2s-.8-.5-1.5-.5v-.6h6.8zm-2.4-7.8c.7 0 1.4.3 1.9.8s.8 1.1.8 1.9c0 .7-.3 1.4-.8 1.9s-1.1.8-1.9.8c-.7 0-1.4-.3-1.9-.8s-.8-1.1-.8-1.9c0-.7.3-1.4.8-1.9.5-.6 1.2-.8 1.9-.8zm13.4 21.4c-2 1.7-3.7 2.6-5.3 2.6-.9 0-1.7-.3-2.3-.9-.6-.6-.9-1.4-.9-2.3 0-1.2.5-2.3 1.6-3.3s3.3-2.3 6.9-3.9v-1.6c0-1.2-.1-2-.2-2.3s-.4-.6-.7-.8-.8-.4-1.2-.4c-.7 0-1.4.2-1.8.5-.3.2-.4.4-.4.7 0 .2.2.5.5.9.4.5.7 1 .7 1.4 0 .6-.2 1-.6 1.4s-1 .6-1.6.6c-.7 0-1.3-.2-1.8-.7-.5-.4-.7-.9-.7-1.5 0-.8.3-1.6 1-2.4s1.6-1.3 2.7-1.7 2.4-.6 3.6-.6c1.5 0 2.7.3 3.6 1s1.5 1.3 1.7 2.1c.2.5.2 1.6.2 3.3v6.2c0 .7 0 1.2.1 1.4s.1.3.3.4c.1.1.2.1.4.1.3 0 .6-.2.9-.6l.5.4c-.6.8-1.2 1.5-1.8 1.8-.6.4-1.3.6-2.1.6-.9 0-1.6-.2-2.1-.6-.8-.2-1.1-.9-1.2-1.8zm0-1.2v-5.4c-1.4.8-2.4 1.7-3.1 2.6-.4.6-.7 1.2-.7 1.9 0 .5.2 1 .6 1.4.3.3.7.5 1.2.5.5-.1 1.2-.4 2-1zm13.8-12.4v2.1c.8-.9 1.6-1.5 2.4-1.9.8-.4 1.6-.6 2.4-.6 1 0 1.9.3 2.6.9.7.6 1.1 1.3 1.4 2.2.2.7.3 1.9.3 3.8v6.2c0 1.2.1 2 .3 2.3s.7.5 1.4.6v.6h-8.1v-.6c.6-.1 1-.3 1.3-.8.2-.3.3-1 .3-2.1v-7.1c0-1.3-.1-2.1-.2-2.5-.1-.3-.3-.6-.5-.8s-.5-.3-.8-.3c-1 0-1.9.7-2.7 2.1v8.6c0 1.2.1 2 .3 2.3s.6.5 1.2.6v.6h-8.1v-.6c.7-.1 1.2-.3 1.4-.7.2-.3.3-1 .3-2.2v-9.1c0-1.2-.1-2-.3-2.3s-.7-.5-1.4-.6v-.7h6.5zm42.1-7.8v8.2h-.6c-.8-2.2-1.9-3.9-3.4-5.1-1.5-1.2-3.2-1.8-5-1.8-1.7 0-3.2.5-4.3 1.5-1.2 1-2 2.3-2.5 4.1s-.7 3.5-.7 5.4c0 2.2.3 4.2.8 5.9s1.4 2.9 2.5 3.7 2.6 1.2 4.2 1.2c.6 0 1.1-.1 1.7-.2s1.2-.3 1.8-.5v-4.8c0-.9-.1-1.5-.2-1.8-.1-.3-.4-.5-.8-.7-.4-.2-.9-.3-1.4-.3h-.6v-.6h11.3v.6c-.9.1-1.5.2-1.8.4s-.6.5-.8.9c-.1.2-.2.7-.2 1.6v4.8c-1.5.7-3 1.2-4.6 1.5s-3.3.5-5 .5c-2.2 0-4-.3-5.5-.9-1.5-.6-2.7-1.4-3.9-2.4-1.1-1-2-2.1-2.6-3.3-.8-1.6-1.2-3.3-1.2-5.3 0-3.5 1.2-6.5 3.7-8.9s5.6-3.6 9.3-3.6c1.2 0 2.2.1 3.1.3.5.1 1.3.4 2.4.8 1.1.4 1.8.6 2 .6.3 0 .6-.1.9-.4s.5-.7.8-1.3l.6-.1zm10.4 7.3c1.4 0 2.7.4 3.9 1.1 1.2.7 2.1 1.7 2.7 3.1s.9 2.8.9 4.4c0 2.3-.6 4.2-1.7 5.7-1.4 1.9-3.3 2.8-5.8 2.8-2.4 0-4.3-.8-5.6-2.5s-2-3.7-2-5.9c0-2.3.7-4.3 2-6 1.4-1.9 3.3-2.7 5.6-2.7zm.1 1.2c-.6 0-1.1.2-1.5.7s-.7 1.3-.8 2.6-.2 3.1-.2 5.4c0 1.2.1 2.4.2 3.4.1.8.4 1.4.8 1.9.4.4.9.6 1.4.6s.9-.1 1.3-.4c.4-.4.7-.9.9-1.6.2-1.1.3-3.3.3-6.6 0-1.9-.1-3.3-.3-4s-.5-1.3-1-1.6c-.3-.3-.7-.4-1.1-.4zm15.7 15.8l-5.4-12.5c-.7-1.5-1.2-2.4-1.5-2.8-.3-.3-.7-.5-1.2-.6v-.6h8.5v.6c-.5 0-.9.1-1.1.3-.3.3-.4.5-.4.9s.3 1.2.8 2.4l2.6 6 2.1-5.2c.6-1.5.9-2.5.9-3.2 0-.4-.1-.6-.4-.9-.3-.2-.7-.3-1.4-.4v-.5h5.3v.6c-.5.1-.9.3-1.2.6s-.8 1.2-1.4 2.7l-5.4 12.6h-.8zm22.6-9.1h-8.8c.1 2.1.7 3.8 1.7 5 .8 1 1.7 1.4 2.8 1.4.7 0 1.3-.2 1.9-.6.6-.4 1.2-1.1 1.8-2.1l.6.4c-.9 1.8-1.8 3-2.9 3.8-1.1.7-2.3 1.1-3.7 1.1-2.4 0-4.2-.9-5.4-2.7-1-1.5-1.5-3.3-1.5-5.5 0-2.7.7-4.8 2.2-6.4s3.1-2.4 5.1-2.4c1.6 0 3 .7 4.2 2s1.9 3.4 2 6zm-4.3-1.1c0-1.8-.1-3.1-.3-3.8s-.5-1.2-.9-1.6c-.2-.2-.6-.3-1-.3-.6 0-1.1.3-1.5.9-.7 1-1 2.4-1 4.2v.6h4.7zm11.5-6.3v3.6c1.1-1.7 2-2.8 2.8-3.3s1.6-.8 2.3-.8c.6 0 1.2.2 1.5.6.4.4.6 1 .6 1.7 0 .8-.2 1.4-.6 1.8-.4.4-.8.6-1.3.6-.6 0-1.1-.2-1.6-.6s-.7-.6-.8-.7c-.1-.1-.2-.1-.4-.1-.3 0-.6.1-.9.4-.5.4-.8.9-1.1 1.7-.4 1.1-.5 2.3-.5 3.7v4.7c0 .7 0 1.1.1 1.3.1.3.3.5.6.7.3.1.7.2 1.4.3v.6h-8.7v-.6c.7-.1 1.2-.2 1.4-.6.2-.3.4-1.2.4-2.6v-8.9c0-.9 0-1.5-.1-1.8s-.3-.6-.5-.7c-.2-.1-.6-.3-1.1-.3v-.7h6.5zm14.1 0v2.1c.8-.9 1.6-1.5 2.4-1.9.8-.4 1.6-.6 2.4-.6 1 0 1.9.3 2.6.9.7.6 1.1 1.3 1.4 2.2.2.7.3 1.9.3 3.8v6.2c0 1.2.1 2 .3 2.3.2.3.7.5 1.4.6v.6h-8.1v-.6c.6-.1 1-.3 1.3-.8.2-.3.3-1 .3-2.1v-7.1c0-1.3-.1-2.1-.2-2.5-.1-.3-.3-.6-.5-.8s-.5-.3-.8-.3c-1 0-1.9.7-2.7 2.1v8.6c0 1.2.1 2 .3 2.3s.6.5 1.2.6v.6h-8.1v-.6c.7-.1 1.2-.3 1.4-.7.2-.3.3-1 .3-2.2v-9.1c0-1.2-.1-2-.3-2.3s-.7-.5-1.4-.6v-.7h6.5zm18.3 0v2.1c.9-1 1.7-1.6 2.4-2 .7-.4 1.6-.6 2.5-.6 1 0 1.9.2 2.6.7s1.2 1.2 1.6 2.2c.9-1 1.8-1.8 2.6-2.2.8-.5 1.7-.7 2.6-.7 1.1 0 2 .3 2.7.8s1.1 1.2 1.4 1.9c.3.8.4 2 .4 3.8v6.6c0 1.2.1 2 .3 2.3s.7.5 1.4.6v.6h-8.3v-.6c.7-.1 1.1-.3 1.4-.8.2-.3.3-1 .3-2.1v-6.9c0-1.4-.1-2.3-.2-2.7s-.3-.7-.5-.9-.5-.3-.9-.3c-.5 0-1 .2-1.5.5-.5.4-1 .9-1.5 1.6v8.6c0 1.2.1 1.9.3 2.2.3.4.8.7 1.5.7v.6h-8.3v-.6c.4 0 .8-.1 1.1-.3s.4-.4.5-.7.1-.9.1-1.8v-6.9c0-1.5-.1-2.4-.2-2.7-.1-.4-.3-.7-.6-.9-.3-.2-.6-.3-.9-.3-.5 0-.9.1-1.3.4-.5.4-1.1 1-1.7 1.8v8.6c0 1.1.1 1.9.3 2.2s.7.6 1.4.6v.6h-8.1v-.6c.7-.1 1.2-.3 1.4-.7.2-.3.3-1 .3-2.2v-9.1c0-1.2-.1-2-.3-2.3-.2-.3-.7-.5-1.4-.6v-.5h6.6zm34.8 7.4h-8.8c.1 2.1.7 3.8 1.7 5 .8 1 1.7 1.4 2.8 1.4.7 0 1.3-.2 1.9-.6.6-.4 1.2-1.1 1.8-2.1l.6.4c-.9 1.8-1.8 3-2.9 3.8-1.1.7-2.3 1.1-3.7 1.1-2.4 0-4.2-.9-5.4-2.7-1-1.5-1.5-3.3-1.5-5.5 0-2.7.7-4.8 2.2-6.4s3.1-2.4 5.1-2.4c1.6 0 3 .7 4.2 2s1.9 3.4 2 6zm-4.3-1.1c0-1.8-.1-3.1-.3-3.8-.2-.7-.5-1.2-.9-1.6-.2-.2-.6-.3-1-.3-.6 0-1.1.3-1.5.9-.7 1-1 2.4-1 4.2v.6h4.7zm11.4-6.3v2.1c.8-.9 1.6-1.5 2.4-1.9s1.6-.6 2.4-.6c1 0 1.9.3 2.6.9.7.6 1.1 1.3 1.4 2.2.2.7.3 1.9.3 3.8v6.2c0 1.2.1 2 .3 2.3.2.3.7.5 1.4.6v.6h-8.1v-.6c.6-.1 1-.3 1.3-.8.2-.3.3-1 .3-2.1v-7.1c0-1.3-.1-2.1-.2-2.5-.1-.3-.3-.6-.5-.8s-.5-.3-.8-.3c-1 0-1.9.7-2.7 2.1v8.6c0 1.2.1 2 .3 2.3s.6.5 1.2.6v.6h-8.1v-.6c.7-.1 1.2-.3 1.4-.7.2-.3.3-1 .3-2.2v-9.1c0-1.2-.1-2-.3-2.3-.2-.3-.7-.5-1.4-.6v-.7h6.5zm18-5.9v5.9h3.8v1.7h-3.8v9.9c0 .9 0 1.5.1 1.8s.2.5.5.7c.2.2.4.2.6.2.7 0 1.4-.6 2.1-1.7l.5.4c-.9 2.2-2.4 3.3-4.5 3.3-1 0-1.9-.3-2.6-.8-.7-.6-1.2-1.2-1.3-1.9-.1-.4-.2-1.4-.2-3.2v-8.7h-2.1v-.6c1.4-1 2.7-2.1 3.7-3.2s1.9-2.4 2.7-3.8h.5zM362.6 0h2v122.4h-2z"/></svg>