<!-- This SVG sprite is currently not automated -->
<svg aria-hidden="true" style="position: absolute; width: 0; height: 0; overflow: hidden;" version="1.1" xmlns="http://www.w3.org/2000/svg" xmlns:xlink="http://www.w3.org/1999/xlink">
<defs>

<symbol id="advice" viewBox="0 0 37 32">
<path d="M11.008 21.568c-0.001 0-0.003 0-0.004 0-0.169 0-0.323-0.066-0.438-0.173l0 0-8.051-7.405c-0.065-0.063-0.119-0.137-0.158-0.219l-0.002-0.005c-1.378-1.271-2.253-3.069-2.304-5.073l-0-0.009c0-4.621 5.069-8.378 11.277-8.378s11.277 3.757 11.277 8.378c0 0.353-0.287 0.64-0.64 0.64s-0.64-0.287-0.64-0.64v0c0-3.91-4.48-7.085-9.99-7.085s-9.99 3.174-9.99 7.085c0.052 1.775 0.885 3.347 2.165 4.388l0.011 0.008c0.067 0.062 0.12 0.136 0.158 0.22l0.002 0.004 6.682 6.15v-2.912c-0.008-0.038-0.012-0.083-0.012-0.128s0.004-0.090 0.013-0.132l-0.001 0.004c0.054-0.304 0.316-0.531 0.631-0.531 0.003 0 0.007 0 0.010 0h0.159c0.165 0.011 0.359 0.017 0.554 0.017s0.388-0.006 0.58-0.018l-0.026 0.001c0.012-0.001 0.027-0.001 0.042-0.001 0.354 0 0.641 0.287 0.641 0.641 0 0.34-0.264 0.617-0.598 0.64l-0.002 0c-0.23 0-0.454 0-0.685 0v3.84c-0 0.263-0.159 0.489-0.386 0.587l-0.004 0.002c-0.075 0.036-0.163 0.058-0.255 0.058-0 0-0 0-0.001 0h0z"></path>
<path d="M26.47 26.918v2.842l6.682-6.144c0.039-0.088 0.093-0.162 0.16-0.224l0-0c1.291-1.053 2.123-2.626 2.176-4.395l0-0.009c0-3.91-4.48-7.085-9.984-7.085s-9.99 3.2-9.99 7.085 4.48 7.085 9.99 7.085h0.339c0.003-0 0.007-0 0.010-0 0.313 0 0.573 0.224 0.629 0.521l0.001 0.004c0.015 0.050 0.024 0.107 0.024 0.166s-0.009 0.117-0.025 0.171l0.001-0.004zM25.843 31.885c-0.001 0-0.003 0-0.005 0-0.091 0-0.178-0.021-0.255-0.059l0.003 0.002c-0.231-0.1-0.39-0.326-0.39-0.589v-3.84c-6.067-0.128-10.957-3.84-10.957-8.371s5.062-8.378 11.283-8.378 11.277 3.757 11.277 8.378c-0.051 2.012-0.926 3.811-2.299 5.077l-0.005 0.004c-0.039 0.088-0.093 0.162-0.16 0.224l-0 0-8.096 7.366c-0.114 0.107-0.267 0.172-0.435 0.173h-0z"></path>
<path d="M11.373 11.373c0.527 0 0.954 0.427 0.954 0.954s-0.427 0.954-0.954 0.954c-0.527 0-0.954-0.427-0.954-0.954 0-0.002 0-0.005 0-0.007v0c0.007-0.522 0.431-0.944 0.953-0.947h0zM11.43 4.691c1.485 0 2.944 0.685 2.944 2.317 0 1.51-1.728 2.093-2.099 2.637-0.275 0.403-0.186 0.973-0.954 0.973-0 0-0 0-0.001 0-0.41 0-0.742-0.332-0.742-0.742 0-0.011 0-0.022 0.001-0.034l-0 0.002c0-1.382 2.035-1.696 2.035-2.835 0-0.64-0.422-0.992-1.114-0.992-1.485 0-0.909 1.53-2.035 1.53-0.017 0.002-0.038 0.002-0.058 0.002-0.382 0-0.691-0.309-0.691-0.691 0-0.008 0-0.015 0-0.023l-0 0.001c0-1.133 1.28-2.144 2.714-2.144z"></path>
<path d="M27.117 23.501h-2.56c-0.353 0-0.64-0.287-0.64-0.64s0.287-0.64 0.64-0.64v0h0.64v-3.2h-0.64c-0.353 0-0.64-0.287-0.64-0.64s0.287-0.64 0.64-0.64v0h1.28c0.353 0 0.64 0.287 0.64 0.64v0 3.84h0.64c0.353 0 0.64 0.287 0.64 0.64s-0.287 0.64-0.64 0.64v0z"></path>
<path d="M26.47 16.090c0 0.534-0.433 0.966-0.966 0.966s-0.966-0.433-0.966-0.966c0-0.534 0.433-0.966 0.966-0.966 0.002 0 0.005 0 0.007 0h-0c0.531 0.004 0.96 0.435 0.96 0.966 0 0 0 0 0 0v0z"></path>
</symbol>

<symbol id="arrow-right" viewBox="0 0 39 32">
<path d="M38.957 16c-0.038-0.453-0.233-0.854-0.529-1.155l0 0-14.776-14.317c-0.35-0.305-0.811-0.492-1.315-0.492s-0.965 0.186-1.317 0.494l0.002-0.002c-0.332 0.297-0.54 0.727-0.54 1.205 0 0.401 0.147 0.769 0.389 1.051l-0.002-0.002 11.91 11.478h-30.929c-0.021-0.001-0.045-0.001-0.070-0.001-0.969 0-1.758 0.774-1.78 1.738l-0 0.002c0.052 0.941 0.828 1.685 1.778 1.685 0.025 0 0.051-0.001 0.076-0.002l-0.004 0h30.957l-11.937 11.534c-0.291 0.298-0.47 0.706-0.47 1.156 0 0.484 0.208 0.919 0.539 1.222l0.001 0.001c0.345 0.295 0.796 0.474 1.289 0.474 0.558 0 1.062-0.23 1.423-0.599l0-0 14.776-14.317c0.324-0.257 0.53-0.651 0.53-1.093 0-0.022-0.001-0.044-0.002-0.065l0 0.003z"></path>
</symbol>

<symbol id="arrow-left" viewBox="0 0 28 23">
  <path d="M.38,12.33,11,22.62a1.43,1.43,0,0,0,1.95.09l0,0A1.19,1.19,0,0,0,13,21L4.42,12.71H26.67A1.28,1.28,0,0,0,28,11.5v0a1.28,1.28,0,0,0-1.33-1.23H4.44L13,2A1.16,1.16,0,0,0,12.89.38,1.44,1.44,0,0,0,11,.38L.38,10.67A1.36,1.36,0,0,0,0,11.5,1,1,0,0,0,.38,12.33Z"/>
</symbol>

<symbol id="bag" viewBox="0 0 33 32">
<path d="M13.714 12.408h5.225c0.721 0 1.306-0.585 1.306-1.306v0-1.306c0-0.721-0.585-1.306-1.306-1.306v0h-5.224c-0.721 0-1.306 0.585-1.306 1.306v0 1.306c0 0.721 0.585 1.306 1.306 1.306v0zM13.714 9.796h5.225v1.306h-5.224z"></path>
<path d="M31.386 4.852h-9.287v-3.546c0-0.721-0.585-1.306-1.306-1.306v0h-8.3c-0.721 0-1.306 0.585-1.306 1.306v0 3.546h-9.267c-1.058 0.022-1.909 0.88-1.92 1.939v23.25c0 0 0 0 0 0 0 1.068 0.855 1.937 1.918 1.959l0.002 0h29.466c1.065-0.022 1.92-0.891 1.92-1.959 0-0 0-0 0-0v0-23.249c0-0 0-0 0-0 0-1.068-0.855-1.937-1.918-1.959l-0.002-0zM12.493 1.306h8.327v3.546h-8.327zM1.92 6.139h29.466c0.361 0 0.653 0.292 0.653 0.653v0 8.398h-4.82v-1.959c0-0.721-0.585-1.306-1.306-1.306v0h-1.894c-0.721 0-1.306 0.585-1.306 1.306v0 1.959h-12.147v-1.959c0-0.721-0.585-1.306-1.306-1.306v0h-1.894c-0.721 0-1.306 0.585-1.306 1.306v0 1.959h-4.754v-8.398c0-0.361 0.292-0.653 0.653-0.653v0zM24.020 13.251h1.92v5.172h-1.92zM7.367 13.251h1.92v5.172h-1.92zM1.306 30.041v-13.558h4.78v1.959c0 0.721 0.585 1.306 1.306 1.306v0h1.92c0.721 0 1.306-0.585 1.306-1.306v0-1.959h5.44v14.211h-14.139c-0.361 0-0.653-0.292-0.653-0.653v0zM31.412 30.694h-14.119v-14.211h5.447v1.959c0 0.721 0.585 1.306 1.306 1.306v0h1.92c0.721 0 1.306-0.585 1.306-1.306v0-1.959h4.728v13.558c0 0.361-0.292 0.653-0.653 0.653v0z"></path>
</symbol>

<symbol id="cctv" viewBox="0 0 33 32">
<path d="M32.229 12.112l-1.351-0.637 0.274-0.555c0.092-0.207 0.145-0.448 0.145-0.701 0-0.166-0.023-0.326-0.065-0.478l0.003 0.012c-0.158-0.381-0.458-0.676-0.831-0.825l-0.010-0.004-18.92-8.727c-0.189-0.082-0.409-0.13-0.64-0.13-0.172 0-0.338 0.027-0.494 0.076l0.012-0.003c-0.363 0.166-0.644 0.461-0.787 0.825l-0.004 0.010-3.187 7.229c-0.078 0.183-0.124 0.395-0.124 0.619 0 0.623 0.355 1.163 0.873 1.43l0.009 0.004 5.144 2.333c-0.021 0.115-0.034 0.246-0.034 0.381 0 0.855 0.495 1.594 1.213 1.946l0.013 0.006 1.677 0.778-3.219 8.006h-5.361v-6.668c0.001-0.012 0.001-0.025 0.001-0.039 0-0.285-0.231-0.516-0.516-0.516-0.010 0-0.019 0-0.028 0.001l0.001-0h-5.386c-0.008-0-0.017-0.001-0.027-0.001-0.285 0-0.516 0.231-0.516 0.516 0 0.014 0.001 0.027 0.002 0.041l-0-0.002v14.343c-0.001 0.012-0.001 0.025-0.001 0.039 0 0.285 0.231 0.516 0.516 0.516 0.009 0 0.019-0 0.028-0.001l-0.001 0h5.418c0.008 0 0.017 0.001 0.027 0.001 0.285 0 0.516-0.231 0.516-0.516 0-0.014-0.001-0.027-0.002-0.041l0 0.002v-6.617h5.686c0.010 0.001 0.022 0.001 0.034 0.001 0.211 0 0.389-0.138 0.45-0.329l0.001-0.003 3.41-8.338 1.409 0.637c0.256 0.107 0.554 0.17 0.866 0.172h0.001c0.276-0.001 0.537-0.065 0.769-0.177l-0.011 0.005c0.348-0.142 0.639-0.359 0.864-0.634l0.003-0.004 5.96 2.722c0.145 0.071 0.316 0.112 0.497 0.112 0.034 0 0.067-0.001 0.1-0.004l-0.004 0c0.198-0.012 0.382-0.051 0.556-0.113l-0.014 0.004c0.373-0.162 0.663-0.457 0.812-0.825l0.004-0.010 0.268-0.555 1.358 0.637c0.050 0.037 0.113 0.059 0.181 0.059 0.012 0 0.025-0.001 0.037-0.002l-0.001 0c0.003 0 0.007 0 0.010 0 0.074 0 0.143-0.021 0.201-0.058l-0.002 0.001c0.126-0.081 0.235-0.173 0.33-0.279l0.001-0.001 2.218-5.055c0.007-0.035 0.012-0.074 0.012-0.115 0-0.231-0.136-0.43-0.333-0.521l-0.004-0.001zM5.482 30.827h-4.335v-13.233h4.335zM18.805 15.764c-0.121 0.051-0.261 0.081-0.408 0.081s-0.287-0.030-0.415-0.084l0.007 0.003-4.061-1.912c-0.264-0.124-0.461-0.352-0.54-0.63l-0.002-0.007c-0.033-0.053-0.053-0.118-0.053-0.187 0-0.013 0.001-0.025 0.002-0.038l-0 0.002 5.686 2.614c-0.108 0.057-0.166 0.115-0.217 0.115zM27.034 17.677c-0.043 0.099-0.119 0.177-0.214 0.222l-0.003 0.001c-0.047 0.027-0.103 0.043-0.163 0.043s-0.116-0.016-0.164-0.043l0.002 0.001-18.9-8.701c-0.152-0.062-0.257-0.208-0.257-0.379 0-0.064 0.015-0.124 0.041-0.178l-0.001 0.002 3.143-7.222c0.040-0.101 0.117-0.181 0.214-0.222l0.003-0.001c0.047-0.027 0.103-0.043 0.163-0.043s0.116 0.016 0.164 0.043l-0.002-0.001 18.9 8.669c0.098 0.046 0.174 0.124 0.216 0.22l0.001 0.003c0.024 0.048 0.038 0.105 0.038 0.166s-0.014 0.117-0.039 0.168l0.001-0.002zM29.527 16.899l-0.841-0.414 1.727-4.061 0.822 0.389z"></path>
<path d="M6.024 32h-5.386c-0.008 0-0.018 0.001-0.028 0.001-0.32 0-0.58-0.26-0.58-0.58 0-0.020 0.001-0.041 0.003-0.061l-0 0.003v-14.323c-0.002-0.018-0.003-0.039-0.003-0.061 0-0.32 0.26-0.58 0.58-0.58 0.021 0 0.042 0.001 0.063 0.003l-0.003-0h5.418c0.018-0.002 0.039-0.003 0.061-0.003 0.32 0 0.58 0.26 0.58 0.58 0 0.021-0.001 0.042-0.003 0.063l0-0.003v6.604h5.253l3.187-7.911-1.619-0.746c-0.754-0.369-1.264-1.13-1.264-2.011 0-0.123 0.010-0.243 0.029-0.361l-0.002 0.013-5.1-2.314c-0.572-0.27-0.96-0.841-0.96-1.504 0-0.228 0.046-0.445 0.129-0.643l-0.004 0.011 3.111-7.229c0.158-0.391 0.457-0.698 0.831-0.863l0.010-0.004c0.156-0.053 0.335-0.084 0.522-0.084 0.243 0 0.473 0.052 0.681 0.146l-0.010-0.004 18.9 8.727c0.376 0.173 0.665 0.479 0.812 0.856l0.004 0.011c0.069 0.181 0.108 0.39 0.108 0.609s-0.040 0.428-0.112 0.621l0.004-0.012-0.242 0.497 1.275 0.586c0.221 0.103 0.371 0.324 0.371 0.579 0 0.048-0.005 0.094-0.015 0.139l0.001-0.004-2.257 5.1c-0.093 0.106-0.2 0.197-0.319 0.271l-0.006 0.003c-0.066 0.040-0.145 0.064-0.23 0.064-0.004 0-0.009-0-0.013-0h0.001c-0.011 0.001-0.023 0.002-0.036 0.002-0.082 0-0.159-0.027-0.22-0.073l0.001 0.001-1.275-0.58-0.242 0.504c-0.161 0.389-0.462 0.694-0.838 0.857l-0.010 0.004c-0.167 0.062-0.361 0.103-0.562 0.114l-0.005 0c-0.032 0.003-0.070 0.005-0.107 0.005-0.193 0-0.375-0.044-0.538-0.123l0.007 0.003-5.909-2.703c-0.228 0.276-0.516 0.493-0.846 0.632l-0.014 0.005c-0.23 0.105-0.499 0.168-0.783 0.172h-0.001c-0.32-0.002-0.624-0.065-0.902-0.178l0.016 0.006-1.351-0.637-3.391 8.287c-0.069 0.217-0.269 0.371-0.505 0.371-0.013 0-0.026-0-0.039-0.001l0.002 0h-5.622v6.527c0.001 0.012 0.001 0.025 0.001 0.039 0 0.32-0.26 0.58-0.58 0.58-0.009 0-0.019-0-0.028-0.001l0.001 0zM0.637 16.574c-0.008-0.001-0.018-0.001-0.027-0.001-0.25 0-0.453 0.203-0.453 0.453 0 0.014 0.001 0.027 0.002 0.041l-0-0.002v14.343c-0 0.004-0 0.009-0 0.013 0 0.25 0.203 0.453 0.453 0.453 0.009 0 0.018-0 0.027-0.001l-0.001 0h5.418c0.008 0.001 0.018 0.001 0.027 0.001 0.25 0 0.453-0.203 0.453-0.453 0-0.014-0.001-0.027-0.002-0.041l0 0.002v-6.68h5.737c0.009 0.001 0.020 0.001 0.031 0.001 0.182 0 0.337-0.12 0.389-0.285l0.001-0.003 3.442-8.408 1.473 0.695c0.247 0.102 0.534 0.163 0.834 0.166h0.001c0.267-0.004 0.518-0.065 0.744-0.17l-0.011 0.005c0.339-0.142 0.622-0.36 0.838-0.633l0.003-0.004 0.032-0.045h0.045l5.96 2.722c0.139 0.067 0.301 0.106 0.473 0.106 0.033 0 0.066-0.001 0.098-0.004l-0.004 0c0.19-0.010 0.369-0.049 0.535-0.112l-0.012 0.004c0.356-0.154 0.632-0.436 0.774-0.787l0.003-0.010 0.3-0.637 1.428 0.637c0.041 0.025 0.090 0.040 0.142 0.040 0.010 0 0.021-0.001 0.031-0.002l-0.001 0c0.003 0 0.008 0 0.012 0 0.064 0 0.124-0.019 0.174-0.052l-0.001 0.001c0.112-0.072 0.208-0.154 0.292-0.247l0.001-0.001 2.212-4.998c0.003-0.020 0.004-0.042 0.004-0.066 0-0.205-0.12-0.381-0.294-0.462l-0.003-0.001-1.409-0.637 0.3-0.637c0.078-0.184 0.123-0.398 0.123-0.622 0-0.179-0.029-0.35-0.081-0.511l0.003 0.012c-0.145-0.357-0.419-0.637-0.762-0.787l-0.009-0.004-18.907-8.708c-0.183-0.080-0.396-0.127-0.62-0.127-0.173 0-0.339 0.028-0.494 0.079l0.011-0.003c-0.353 0.156-0.626 0.438-0.768 0.787l-0.004 0.010-3.143 7.229c-0.076 0.176-0.121 0.381-0.121 0.597 0 0.597 0.341 1.115 0.839 1.369l0.009 0.004 5.189 2.352v0.051c-0.022 0.114-0.035 0.246-0.035 0.381 0 0.826 0.48 1.539 1.176 1.877l0.012 0.005 1.734 0.803v0.057l-3.296 8.045h-5.463v-6.731c0-0.004 0-0.009 0-0.013 0-0.25-0.203-0.453-0.453-0.453-0.009 0-0.018 0-0.027 0.001l0.001-0zM5.546 30.891h-4.462v-13.386h4.462zM1.211 30.763h4.207v-13.106h-4.207zM26.658 17.976c-0.001 0-0.002 0-0.003 0-0.069 0-0.134-0.017-0.191-0.046l0.002 0.001-18.9-8.669c-0.172-0.077-0.289-0.246-0.289-0.443 0-0.070 0.015-0.137 0.042-0.197l-0.001 0.003 3.143-7.229c0.048-0.112 0.133-0.201 0.239-0.254l0.003-0.001c0.055-0.030 0.121-0.048 0.191-0.048s0.136 0.018 0.193 0.049l-0.002-0.001 18.875 8.669c0.114 0.050 0.202 0.14 0.247 0.252l0.001 0.003c0.030 0.056 0.048 0.123 0.048 0.194s-0.018 0.138-0.049 0.197l0.001-0.002-3.117 7.222c-0.050 0.111-0.134 0.2-0.239 0.254l-0.003 0.001c-0.055 0.028-0.12 0.045-0.189 0.045-0.001 0-0.002 0-0.003 0h0zM10.894 1.218c-0.050 0.001-0.096 0.015-0.135 0.039l0.001-0.001c-0.084 0.039-0.149 0.106-0.184 0.189l-0.001 0.002-3.143 7.222c-0.021 0.044-0.033 0.095-0.033 0.149 0 0.147 0.089 0.273 0.215 0.328l0.002 0.001 18.9 8.701c0.037 0.018 0.081 0.028 0.128 0.028s0.090-0.011 0.129-0.029l-0.002 0.001c0.081-0.042 0.145-0.108 0.184-0.189l0.001-0.002 3.136-7.229c0.022-0.040 0.036-0.089 0.036-0.14s-0.013-0.1-0.036-0.142l0.001 0.002c-0.040-0.085-0.107-0.151-0.189-0.19l-0.002-0.001-18.869-8.682c-0.039-0.029-0.087-0.049-0.139-0.057l-0.002-0zM29.559 16.956l-0.982-0.44v-0.057l1.759-4.118 0.988 0.44v0.057zM28.743 16.453l0.752 0.338 1.677-3.946-0.746-0.331zM18.397 15.936c-0.155-0.002-0.301-0.035-0.434-0.092l0.007 0.003-4.067-1.912c-0.271-0.123-0.475-0.351-0.565-0.63l-0.002-0.007c-0.041-0.061-0.066-0.136-0.066-0.216 0-0.014 0.001-0.027 0.002-0.040l-0 0.002v-0.102l5.89 2.703-0.115 0.064-0.096 0.057c-0.037 0.030-0.082 0.050-0.133 0.057l-0.001 0c-0.122 0.063-0.266 0.104-0.417 0.115l-0.004 0zM13.386 13.138c-0.004 0.011-0.006 0.025-0.006 0.038s0.002 0.027 0.006 0.039l-0-0.001c0.079 0.258 0.262 0.463 0.498 0.571l0.006 0.002 4.067 1.912c0.111 0.051 0.242 0.081 0.379 0.081s0.268-0.030 0.385-0.084l-0.006 0.002c0.029-0.013 0.054-0.028 0.077-0.045l-0.001 0.001z"></path>
</symbol>

<symbol id="chain" viewBox="0 0 32 32">
<path d="M1.936 20.685c-1.2 1.2-1.942 2.858-1.942 4.689 0 3.663 2.969 6.632 6.632 6.632 1.831 0 3.489-0.742 4.689-1.942v0l6.736-6.695c1.199-1.201 1.94-2.858 1.94-4.689s-0.741-3.488-1.94-4.689l0 0c-0.171-0.171-0.408-0.277-0.669-0.277-0.522 0-0.946 0.423-0.946 0.946 0 0.261 0.106 0.498 0.277 0.669v0c0.863 0.854 1.397 2.038 1.397 3.348s-0.534 2.494-1.397 3.347l-0 0-6.736 6.695c-0.856 0.853-2.037 1.381-3.342 1.381-2.615 0-4.734-2.12-4.734-4.734 0-1.304 0.528-2.486 1.381-3.342l6.695-6.695c0.174-0.172 0.283-0.409 0.287-0.672v-0.001c0-0.001 0-0.002 0-0.003 0-0.262-0.107-0.499-0.279-0.67l-0-0c-0.174-0.172-0.413-0.279-0.677-0.279-0.002 0-0.003 0-0.005 0h0c-0.262 0.001-0.497 0.111-0.664 0.287l-0 0-6.695 6.695zM13.99 8.632c-1.199 1.201-1.94 2.858-1.94 4.689s0.741 3.488 1.94 4.689l-0-0c0.171 0.175 0.409 0.285 0.672 0.287h0c0.513-0.004 0.928-0.422 0.928-0.935 0-0.009-0-0.017-0-0.026l0 0.001c0-0.001 0-0.003 0-0.004 0-0.26-0.11-0.495-0.287-0.66l-0.001-0c-0.863-0.854-1.397-2.038-1.397-3.348s0.534-2.494 1.397-3.347l0-0 6.72-6.695c0.867-0.929 2.098-1.508 3.465-1.508 2.615 0 4.734 2.12 4.734 4.734 0 1.365-0.577 2.595-1.501 3.458l-0.003 0.002-6.695 6.695c-0.172 0.169-0.279 0.403-0.279 0.663 0 0.003 0 0.007 0 0.010v-0.001c-0 0.008-0 0.018-0 0.028 0 0.253 0.104 0.481 0.271 0.645l0 0c0.174 0.172 0.413 0.279 0.677 0.279 0.002 0 0.003 0 0.005 0h-0c0.264-0.002 0.502-0.112 0.673-0.287l6.696-6.696c1.149-1.19 1.856-2.813 1.856-4.601 0-3.662-2.968-6.63-6.63-6.63-1.79 0-3.414 0.709-4.607 1.862l0.002-0.002-6.695 6.695z"></path>
</symbol>

<symbol id="fraud-detection" viewBox="0 0 32 32">
<path d="M2.963 11.852h1.185v1.185h-1.185v-1.185z"></path>
<path d="M4.741 11.852h1.185v1.185h-1.185v-1.185z"></path>
<path d="M7.111 11.852h1.185v1.185h-1.185v-1.185z"></path>
<path d="M8.889 11.852h1.185v1.185h-1.185v-1.185z"></path>
<path d="M11.852 11.852h1.185v1.185h-1.185v-1.185z"></path>
<path d="M2.963 14.222h7.111v1.185h-7.111v-1.185z"></path>
<path d="M11.259 14.222h1.778v1.185h-1.778v-1.185z"></path>
<path d="M26.074 2.963h1.185v1.185h-1.185v-1.185z"></path>
<path d="M6.044 8.415h0.948v1.067h1.896v-1.067h-0.948v-1.067h0.948v-1.067h-0.948v-1.067h0.948v-1.067h-1.896v1.067h-0.948v-1.067h-1.896v1.067h0.948v1.067h-0.948v1.067h0.948v1.067h-0.948v1.067h1.896zM6.993 6.281v1.067h-0.948v-1.067z"></path>
<path d="M32 17.499c0-0.003 0-0.007 0-0.010 0-2.144-0.753-4.112-2.010-5.653l0.013 0.016v-10.85c0-0.553-0.448-1.001-1.001-1.001v0h-28c-0.553 0-1.001 0.448-1.001 1.001v0 16c0 0.553 0.448 1.001 1.001 1.001v0h13.037c0.227 4.040 3.099 7.35 6.902 8.237l0.061 0.012v5.748h1.001v-3.502h1.997v3.502h1.001v-5.748c4.029-0.945 6.985-4.502 6.998-8.751v-0.002zM1.001 1.001h28v9.801c-1.582-1.432-3.69-2.308-6.003-2.308-4.789 0-8.7 3.757-8.948 8.484l-0.001 0.022h-13.037zM24 27.502h-1.997v-1.055c0.249 0.035 0.537 0.056 0.83 0.056 0.058 0 0.116-0.001 0.174-0.002l-0.009 0c0.050 0.001 0.108 0.002 0.166 0.002 0.294 0 0.584-0.020 0.868-0.059l-0.033 0.004zM22.999 25.481c-0.002 0-0.005 0-0.008 0-4.227 0-7.684-3.298-7.938-7.462l-0.001-0.022h0.996c0.268 3.638 3.286 6.489 6.969 6.489 3.859 0 6.986-3.128 6.987-6.986v-0.498h-1.001v0.498c0 0.011 0 0.025 0 0.038 0 3.306-2.68 5.985-5.985 5.985-3.144 0-5.722-2.424-5.966-5.505l-0.001-0.021h4.45v-0.996h-4.45c0.274-3.070 2.814-5.464 5.922-5.505l0.004-0v-0.996c-0.002 0-0.005 0-0.008 0-3.688 0-6.706 2.87-6.942 6.498l-0.001 0.021h-0.972c0.245-4.204 3.706-7.522 7.945-7.538h0.002c0.011-0 0.024-0 0.037-0 2.383 0 4.518 1.062 5.957 2.739l0.009 0.011v3.769h1.001v-2.37c0.626 1.098 0.996 2.412 0.996 3.813 0 0.014-0 0.027-0 0.041v-0.002c-0.013 4.413-3.587 7.987-7.999 8h-0.001z"></path>
<path d="M10.074 4.148h1.185v1.185h-1.185v-1.185z"></path>
<path d="M22.519 17.185h1.185v1.185h-1.185v-1.185z"></path>
<path d="M24.296 17.185h1.185v1.185h-1.185v-1.185z"></path>
</symbol>

<symbol id="gavel" viewBox="0 0 31 32">
<path d="M30.759 28.56h-0.388c-0.089-0.992-0.911-1.765-1.916-1.776h-7.127c-0.004-0-0.010-0-0.015-0-1.016 0-1.851 0.776-1.944 1.769l-0.001 0.008h-0.508c-0.004-0-0.010-0-0.015-0-0.288 0-0.522 0.234-0.522 0.522 0 0.010 0 0.020 0.001 0.030l-0-0.001v2.347c-0 0.009-0.001 0.019-0.001 0.029 0 0.284 0.23 0.515 0.515 0.515 0.008 0 0.015-0 0.023-0l-0.001 0h11.898c0.007 0 0.014 0 0.022 0 0.284 0 0.515-0.23 0.515-0.515 0-0.010-0-0.020-0.001-0.030l0 0.001v-2.347c0-0.009 0.001-0.018 0.001-0.028 0-0.288-0.234-0.522-0.522-0.522-0.005 0-0.010 0-0.016 0l0.001-0zM20.476 28.56c0.093-0.396 0.437-0.689 0.851-0.705l0.002-0h7.084c0.424 0.004 0.777 0.301 0.866 0.699l0.001 0.006zM19.404 30.865v-1.262h10.812v1.255z"></path>
<path d="M21.343 14.992c-0.236 0.277-0.379 0.639-0.379 1.034 0 0.347 0.11 0.668 0.298 0.93l-0.003-0.005c0.257 0.309 0.613 0.528 1.018 0.611l0.012 0.002h0.204c0.014 0 0.031 0.001 0.047 0.001 0.336 0 0.644-0.117 0.886-0.313l-0.003 0.002 7.274-5.582c0.372-0.296 0.609-0.748 0.609-1.256 0-0.345-0.109-0.665-0.295-0.927l0.003 0.005c-0.253-0.304-0.6-0.523-0.996-0.611l-0.012-0.002c-0.059-0.009-0.128-0.014-0.198-0.014-0.245 0-0.476 0.063-0.677 0.173l0.007-0.004-4.934-6.471c0.197-0.215 0.326-0.496 0.352-0.806l0-0.005c0.006-0.050 0.009-0.108 0.009-0.166 0-0.376-0.137-0.72-0.363-0.985l0.002 0.002c-0.293-0.369-0.742-0.603-1.245-0.603-0.345 0-0.664 0.11-0.924 0.297l0.005-0.003-7.239 5.582c-0.302 0.26-0.52 0.611-0.611 1.009l-0.002 0.013c-0.009 0.061-0.014 0.132-0.014 0.204 0 0.361 0.125 0.693 0.333 0.956l-0.002-0.003c0.259 0.309 0.613 0.53 1.017 0.618l0.012 0.002h0.204c0.257-0.003 0.499-0.065 0.714-0.173l-0.009 0.004 1.649 2.213-16.987 11.722c-0.549 0.387-0.937 0.971-1.062 1.648l-0.002 0.016c-0.026 0.133-0.040 0.286-0.040 0.442 0 0.563 0.19 1.081 0.51 1.495l-0.004-0.006c0.398 0.568 1.021 0.954 1.738 1.028l0.010 0.001h0.296c0.618-0.003 1.182-0.229 1.617-0.602l-0.003 0.003 15.965-13.075zM19.44 12.511l-15.979 13.138c-0.244 0.206-0.562 0.332-0.909 0.332-0.052 0-0.104-0.003-0.155-0.008l0.006 0.001c-0.405-0.051-0.754-0.256-0.992-0.554l-0.002-0.003c-0.194-0.227-0.312-0.524-0.312-0.849 0-0.086 0.008-0.17 0.024-0.252l-0.001 0.008c0.071-0.394 0.283-0.728 0.581-0.956l0.004-0.003 17.050-11.771zM22.174 15.633l7.267-5.568c0.078-0.058 0.175-0.095 0.281-0.099l0.001-0h0.063c0.123 0.027 0.227 0.092 0.302 0.182l0.001 0.001c0.063 0.077 0.102 0.177 0.102 0.285 0 0.153-0.076 0.288-0.192 0.369l-0.001 0.001-7.267 5.575c-0.099 0.057-0.218 0.093-0.344 0.099l-0.002 0c-0.123-0.027-0.227-0.092-0.302-0.182l-0.001-0.001c-0.064-0.078-0.102-0.179-0.102-0.288 0-0.154 0.076-0.29 0.192-0.373l0.001-0.001zM23.345 3.235l4.849 6.407-6.090 4.638-4.814-6.407zM23.471 1.607c-0.028 0.126-0.096 0.232-0.189 0.309l-0.001 0.001-7.26 5.568c-0.066 0.047-0.147 0.075-0.236 0.075-0.034 0-0.067-0.004-0.098-0.012l0.003 0.001c-0.127-0.026-0.237-0.091-0.317-0.183l-0.001-0.001c-0.059-0.097-0.097-0.212-0.106-0.336l-0-0.002c0.027-0.131 0.095-0.242 0.19-0.324l0.001-0.001 7.267-5.533c0.079-0.055 0.176-0.088 0.281-0.092l0.001-0c0.007-0 0.015-0.001 0.023-0.001 0.141 0 0.266 0.069 0.343 0.176l0.001 0.001c0.061 0.101 0.097 0.222 0.099 0.352v0z"></path>
</symbol>

<symbol id="gavel-2" viewBox="0 0 34 32">
<path d="M32.557 19.437v0c-1.408-0.813-2.854-1.606-4.115-2.214l-8.102-3.898c0.13-0.31 0.205-0.67 0.205-1.047 0-0.014-0-0.028-0-0.043l0 0.002c-0.008-0.671-0.395-1.249-0.956-1.531l-0.010-0.005c-0.278-0.117-0.601-0.184-0.939-0.184-0.399 0-0.776 0.094-1.11 0.261l0.014-0.007c-0.245 0.109-0.455 0.233-0.649 0.378l0.009-0.007c-0.184-0.344-0.452-0.622-0.778-0.814l-0.010-0.005c-0.172-0.098-0.371-0.176-0.581-0.221l-0.014-0.003 0.083-0.141c0.093-0.158 0.148-0.349 0.148-0.552 0-0.412-0.225-0.771-0.558-0.962l-0.005-0.003-0.672-0.378 0.845-1.19 0.23 0.134c0.164 0.096 0.361 0.153 0.571 0.153 0.427 0 0.799-0.235 0.994-0.583l0.003-0.006 0.858-1.536c0.095-0.17 0.151-0.373 0.151-0.589 0-0.435-0.227-0.817-0.569-1.033l-0.005-0.003-5.434-3.251c-0.165-0.105-0.366-0.168-0.581-0.168-0.112 0-0.221 0.017-0.323 0.049l0.008-0.002c-0.304 0.082-0.552 0.278-0.701 0.538l-0.003 0.006-0.851 1.549c-0.096 0.17-0.153 0.373-0.153 0.59 0 0.432 0.225 0.811 0.564 1.026l0.005 0.003 0.070 0.045-0.64 0.922 1.107 0.538 0.576-0.838 3.066 1.83-0.864 1.216-3.648-2.061c-0.16-0.090-0.351-0.143-0.555-0.143-0.098 0-0.194 0.012-0.285 0.035l0.008-0.002c-0.294 0.077-0.537 0.261-0.688 0.507l-0.003 0.005-2.867 4.781c-0.092 0.158-0.146 0.347-0.146 0.55 0 0.414 0.227 0.774 0.563 0.964l0.005 0.003 0.192 0.109-0.486 0.704-0.563-0.339c-0.162-0.099-0.359-0.157-0.569-0.157-0.107 0-0.211 0.015-0.31 0.044l0.008-0.002c-0.303 0.083-0.55 0.282-0.695 0.545l-0.003 0.006-0.838 1.536c-0.095 0.17-0.151 0.373-0.151 0.589 0 0.435 0.227 0.817 0.569 1.033l0.005 0.003 5.446 3.251c0.164 0.097 0.362 0.155 0.573 0.155 0.425 0 0.796-0.233 0.992-0.578l0.003-0.006 0.858-1.542c0.095-0.17 0.151-0.374 0.151-0.59 0-0.433-0.224-0.814-0.562-1.032l-0.005-0.003-3.84-2.291 0.486-0.736 2.982 1.67-0.512 0.742 1.107 0.538 0.467-0.678 0.096 0.051c0.167 0.097 0.367 0.155 0.58 0.155 0.419 0 0.786-0.221 0.991-0.553l0.003-0.005 0.64-1.133c0.148 0.174 0.321 0.321 0.515 0.436l0.009 0.005c0.303 0.175 0.667 0.278 1.055 0.278 0.109 0 0.216-0.008 0.32-0.024l-0.012 0.001c0.079 0.563 0.426 1.030 0.906 1.276l0.010 0.004c0.271 0.125 0.589 0.197 0.923 0.197 0.197 0 0.389-0.025 0.571-0.073l-0.016 0.003c0.041 0.102 0.107 0.187 0.19 0.248l0.002 0.001 3.987 2.931 0.992 0.736c0.091 0.074 0.207 0.119 0.335 0.119 0.19 0 0.358-0.1 0.451-0.251l0.001-0.002c0.063-0.092 0.1-0.206 0.1-0.329 0-0.2-0.1-0.377-0.252-0.483l-0.002-0.001-0.986-0.742-3.712-2.733c0.364-0.246 0.674-0.536 0.934-0.868l0.007-0.009 8.198 3.962c1.222 0.589 2.65 1.376 4.038 2.176 0.502 0.311 0.832 0.86 0.832 1.485 0 0.323-0.088 0.626-0.241 0.885l0.004-0.008c-0.246 0.521-0.767 0.875-1.37 0.875-0.265 0-0.514-0.068-0.73-0.188l0.008 0.004q-2.042-1.229-3.974-2.65v0c-0.094-0.071-0.213-0.114-0.341-0.114-0.026 0-0.052 0.002-0.078 0.005l0.003-0c-0.154 0.028-0.283 0.118-0.363 0.241l-0.001 0.002c-0.061 0.096-0.097 0.213-0.097 0.339 0 0.034 0.003 0.068 0.008 0.1l-0-0.004c0.029 0.156 0.115 0.288 0.235 0.376l0.002 0.001c1.28 0.954 2.643 1.85 4.026 2.682v0h0.045c0.352 0.188 0.77 0.299 1.213 0.299 1.034 0 1.928-0.602 2.351-1.474l0.007-0.016c0.214-0.4 0.34-0.875 0.34-1.38 0-1.027-0.522-1.933-1.315-2.466l-0.011-0.007zM11.373 3.123l-0.672-0.397 0.851-1.536s0 0 0 0l5.453 3.251-0.858 1.536-4.237-2.528 0.032-0.045zM8.96 18.394s0 0 0 0l-5.427-3.251 0.858-1.536 5.453 3.251zM11.77 14.176v0 0l0.173-0.25-1.107-0.538-0.134 0.186-4.301-2.432 2.842-4.787 5.402 3.034-0.512 0.851c-0.4 0.19-0.724 0.487-0.942 0.854l-0.005 0.010c-0.179 0.31-0.285 0.682-0.285 1.079 0 0.044 0.001 0.087 0.004 0.131l-0-0.006zM14.56 12.973c-0.21-0.122-0.366-0.317-0.434-0.55l-0.002-0.007 0.672-1.126c0.084-0.028 0.181-0.044 0.281-0.044 0.476 0 0.868 0.358 0.922 0.82l0 0.004-0.058 0.064c-0.171 0.247-0.318 0.53-0.427 0.832l-0.008 0.026c-0.128 0.073-0.281 0.116-0.444 0.116-0.177 0-0.341-0.050-0.481-0.138l0.004 0.002zM16.89 14.586c-0.147-0.070-0.275-0.243-0.294-0.595 0.004-0.143 0.021-0.28 0.047-0.412l-0.003 0.016c0.094-0.099 0.177-0.21 0.245-0.331l0.004-0.008c0.104-0.185 0.184-0.399 0.228-0.626l0.002-0.014c0.275-0.351 0.614-0.639 1.001-0.849l0.017-0.008c0.125-0.079 0.277-0.126 0.44-0.126 0.114 0 0.222 0.023 0.321 0.064l-0.006-0.002c0.147 0.070 0.275 0.243 0.288 0.589 0 0.012 0 0.027 0 0.041 0 0.237-0.047 0.462-0.133 0.668l0.004-0.012c-0.151 0.079-0.259 0.223-0.288 0.394l-0 0.003c-0.005 0.026-0.007 0.056-0.007 0.086s0.003 0.060 0.008 0.089l-0-0.003c-0.276 0.407-0.645 0.731-1.078 0.946l-0.016 0.007c-0.134 0.082-0.295 0.13-0.468 0.13-0.103 0-0.201-0.017-0.294-0.048l0.006 0.002z"></path>
<path d="M9.408 30.771h-1.766c-0.165 0.002-0.315 0.070-0.422 0.179l-0 0c-0.106 0.114-0.171 0.267-0.171 0.435s0.065 0.321 0.171 0.436l-0-0c0.108 0.109 0.257 0.177 0.422 0.179h1.767c0.166-0 0.315-0.069 0.422-0.179l0-0c0.106-0.114 0.171-0.267 0.171-0.435s-0.065-0.321-0.171-0.436l0 0c-0.107-0.11-0.257-0.179-0.422-0.179h-0z"></path>
<path d="M14.72 27.699h-1.376c-0.176-1.094-1.114-1.92-2.245-1.92-0.005 0-0.010 0-0.015 0h-6.911c-0.006-0-0.014-0-0.021-0-1.122 0-2.050 0.829-2.205 1.908l-0.001 0.012h-1.357c-0.327 0.006-0.59 0.273-0.59 0.602 0 0.014 0 0.027 0.001 0.040l-0-0.002v3.021c-0.001 0.012-0.001 0.025-0.001 0.038 0 0.328 0.263 0.595 0.589 0.601h5.293c0.165-0.002 0.315-0.070 0.422-0.179l0-0c0.106-0.114 0.171-0.267 0.171-0.435s-0.065-0.321-0.171-0.436l0 0c-0.108-0.109-0.257-0.177-0.422-0.179h-4.704v-1.843h0.864c0.109 0.121 0.267 0.196 0.442 0.196s0.332-0.075 0.441-0.196l0-0h9.434c0.11 0.121 0.269 0.197 0.445 0.197s0.334-0.076 0.444-0.196l0-0h0.864v1.843h-2.938c-0.001 0-0.001 0-0.002 0-0.165 0-0.314 0.069-0.42 0.179l-0 0c-0.106 0.114-0.171 0.267-0.171 0.435s0.065 0.321 0.171 0.436l-0-0c0.106 0.111 0.255 0.179 0.42 0.179 0.001 0 0.002 0 0.002 0h3.545c0.327-0.006 0.59-0.273 0.59-0.602 0-0.014-0-0.027-0.001-0.040l0 0.002v-3.072c-0.007-0.322-0.266-0.582-0.588-0.589h-0.001zM4.205 26.88h6.88c0.508 0.006 0.936 0.346 1.073 0.811l0.002 0.008h-9.050c0.138-0.477 0.571-0.819 1.084-0.819 0.004 0 0.008 0 0.011 0h-0.001z"></path>
<path d="M24.845 19.584c-0.017-0.002-0.036-0.003-0.055-0.003-0.265 0-0.48 0.215-0.48 0.48s0.215 0.48 0.48 0.48c0.020 0 0.039-0.001 0.058-0.003l-0.002 0c0.132-0.002 0.252-0.055 0.339-0.141l-0 0c0.083-0.089 0.134-0.208 0.134-0.339v-0c0-0.001 0-0.003 0-0.005 0-0.128-0.051-0.244-0.134-0.328l0 0c-0.087-0.086-0.207-0.139-0.339-0.141h-0z"></path>
</symbol>

<symbol id="helping-hands" viewBox="0 0 31 32">
<path d="M30.419 20.666c-0.915-1.466-3.802-5.562-3.981-5.811-0.265-0.411-0.691-0.698-1.187-0.773l-0.009-0.001c-0.109-0.021-0.234-0.033-0.362-0.033-0.446 0-0.858 0.144-1.192 0.389l0.006-0.004c-0.549 0.373-0.906 0.995-0.906 1.7 0 0.402 0.116 0.776 0.315 1.093l-0.005-0.008 0.64 1.318-3.418-1.389-3.68-7.744 2.080 1.069c0.357 0.231 0.793 0.368 1.261 0.368 0.854 0 1.6-0.456 2.010-1.139l0.006-0.011c0.235-0.362 0.375-0.805 0.375-1.281 0-0.19-0.022-0.376-0.065-0.553l0.003 0.016c-0.145-0.645-0.527-1.184-1.047-1.53l-0.009-0.006c-0.314-0.218-5.76-3.923-7.68-5.12-1.263-0.768-2.79-1.223-4.424-1.223-1.414 0-2.748 0.341-3.926 0.944l0.049-0.023c-2.164 1.045-3.824 2.848-4.657 5.057l-0.021 0.063c-0.378 0.974-0.596 2.101-0.596 3.28 0 1.312 0.271 2.56 0.76 3.693l-0.023-0.060 4.384 9.453c0.387 0.827 1.212 1.389 2.168 1.389 0.005 0 0.010 0 0.015-0h-0.001c0.004 0 0.009 0 0.014 0 0.362 0 0.707-0.073 1.021-0.205l-0.017 0.006c0.437-0.197 0.788-0.518 1.018-0.917l0.006-0.011 0.563 1.21c0.257 0.602 0.747 1.062 1.354 1.275l0.016 0.005c0.227 0.089 0.49 0.141 0.764 0.141 0.017 0 0.034-0 0.051-0.001l-0.002 0c0.331-0.008 0.644-0.073 0.934-0.186l-0.019 0.006 0.422 0.147c-0.26 0.2-0.472 0.45-0.621 0.737l-0.006 0.012c-0.109 0.236-0.173 0.512-0.173 0.803s0.064 0.567 0.178 0.815l-0.005-0.012c0.19 0.482 0.569 0.855 1.044 1.033l0.012 0.004 7.36 2.918c0.694 0.266 1.496 0.423 2.334 0.429h0.002c3.143-0.049 5.836-1.931 7.058-4.623l0.020-0.049c0.464-0.914 0.736-1.992 0.736-3.135 0-1.299-0.352-2.516-0.966-3.561l0.018 0.033zM11.616 24.090c-0.33-0.12-0.591-0.362-0.733-0.67l-0.003-0.008-1.376-2.931c-0.004-0.028-0.018-0.053-0.038-0.070l-0-0-2.925-6.33c-0.081-0.182-0.261-0.307-0.469-0.307-0.086 0-0.167 0.021-0.238 0.058l0.003-0.001c-0.181 0.083-0.305 0.263-0.305 0.472 0 0.090 0.023 0.174 0.063 0.247l-0.001-0.003 2.918 6.272c0.083 0.169 0.132 0.368 0.132 0.578 0 0.532-0.312 0.991-0.764 1.205l-0.008 0.003c-0.169 0.088-0.369 0.14-0.582 0.14-0.526 0-0.978-0.318-1.175-0.772l-0.003-0.008-4.39-9.459c-0.419-0.95-0.662-2.057-0.662-3.221 0-3.227 1.872-6.017 4.588-7.343l0.048-0.021c0.995-0.505 2.17-0.8 3.413-0.8 1.429 0 2.766 0.39 3.912 1.069l-0.036-0.019c1.92 1.178 7.642 5.062 7.68 5.12 0.297 0.193 0.512 0.492 0.593 0.842l0.002 0.009c0.019 0.092 0.030 0.197 0.030 0.305 0 0.258-0.063 0.501-0.175 0.715l0.004-0.008c-0.19 0.301-0.487 0.52-0.835 0.606l-0.009 0.002c-0.101 0.024-0.216 0.039-0.335 0.039-0.272 0-0.528-0.074-0.747-0.202l0.007 0.004c-0 0-0 0-0.001 0-0.018 0-0.032-0.014-0.032-0.032 0-0.002 0-0.004 0.001-0.007l-0 0-3.84-1.997c-0.073-0.040-0.159-0.063-0.251-0.063-0.117 0-0.226 0.038-0.314 0.102l0.002-0.001c-0.851 0.566-1.896 0.904-3.020 0.904-1.412 0-2.7-0.532-3.673-1.407l0.005 0.004c-0.099-0.1-0.236-0.162-0.387-0.162s-0.288 0.062-0.387 0.162l-0 0c-0.097 0.101-0.157 0.239-0.157 0.39s0.060 0.289 0.157 0.391l-0-0c1.171 1.074 2.738 1.732 4.459 1.732 1.209 0 2.342-0.325 3.316-0.892l-0.032 0.017 3.699 7.84-1.235-0.602c-0.214-0.084-0.461-0.133-0.721-0.133-0.4 0-0.773 0.116-1.086 0.317l0.008-0.005-1.632-3.584c-0.076-0.184-0.255-0.312-0.463-0.312-0.089 0-0.172 0.023-0.244 0.063l0.003-0.001c-0.182 0.083-0.307 0.264-0.307 0.473 0 0.087 0.021 0.168 0.059 0.24l-0.001-0.003 1.83 3.923c-0.032 0.032-0.032 0.070-0.070 0.141-0.111 0.239-0.175 0.518-0.175 0.812 0 0.066 0.003 0.13 0.009 0.194l-0.001-0.008-0.531-0.218c-0.216-0.085-0.465-0.134-0.726-0.134-0.353 0-0.685 0.090-0.974 0.249l0.011-0.005-1.158-2.496c-0.081-0.182-0.261-0.307-0.469-0.307-0.086 0-0.167 0.021-0.238 0.058l0.003-0.001c-0.183 0.085-0.307 0.267-0.307 0.478 0 0.087 0.021 0.17 0.059 0.242l-0.001-0.003 1.28 2.816c-0.039 0.070-0.076 0.153-0.105 0.238l-0.003 0.011c-0.118 0.245-0.187 0.532-0.187 0.836 0 0.276 0.057 0.539 0.16 0.777l-0.005-0.013c0.17 0.391 0.449 0.709 0.798 0.923l0.009 0.005c-0.249 0.214-0.45 0.476-0.589 0.773l-0.006 0.014c-0.123 0.246-0.194 0.535-0.194 0.842 0 0.274 0.057 0.535 0.161 0.77l-0.005-0.012 0.109 0.218c-0.109-0.038-0.141-0.070-0.211-0.070zM29.677 26.88c-1.44 3.2-4.998 4.813-8.096 3.706l-7.36-2.918c-0.211-0.089-0.375-0.255-0.459-0.462l-0.002-0.006c-0.038-0.098-0.060-0.212-0.060-0.331 0-0.152 0.037-0.296 0.101-0.424l-0.002 0.005c0.162-0.371 0.525-0.625 0.947-0.625 0.119 0 0.234 0.020 0.34 0.057l-0.007-0.002 4.896 1.958c0.057 0.023 0.124 0.036 0.194 0.036 0.233 0 0.431-0.146 0.509-0.352l0.001-0.004c0.022-0.057 0.034-0.123 0.034-0.192 0-0.235-0.145-0.435-0.35-0.517l-0.004-0.001-4.89-1.92h-0.070l-2.47-0.998c-0.126-0.089-0.223-0.211-0.28-0.353l-0.002-0.005c-0.038-0.098-0.060-0.212-0.060-0.331 0-0.152 0.037-0.296 0.101-0.424l-0.002 0.005c0.113-0.264 0.325-0.468 0.588-0.567l0.007-0.002c0.218-0.070 5.568 1.958 5.568 1.958 0.057 0.023 0.124 0.036 0.194 0.036 0.233 0 0.431-0.146 0.509-0.352l0.001-0.004c0.022-0.057 0.034-0.123 0.034-0.192 0-0.235-0.145-0.435-0.35-0.517l-0.004-0.001-6.298-2.496c-0.211-0.089-0.375-0.255-0.459-0.462l-0.002-0.006c-0.038-0.098-0.060-0.212-0.060-0.331 0-0.152 0.037-0.296 0.101-0.424l-0.002 0.005c0.102-0.201 0.245-0.369 0.419-0.497l0.004-0.003c0.154-0.097 0.341-0.154 0.542-0.154 0.108 0 0.212 0.017 0.31 0.047l-0.007-0.002 7.341 2.874c0.058 0.024 0.126 0.038 0.197 0.038 0.232 0 0.43-0.147 0.505-0.354l0.001-0.004c0.023-0.059 0.037-0.127 0.037-0.198 0-0.232-0.143-0.43-0.347-0.511l-0.004-0.001-5.12-2.067c-0.227-0.092-0.403-0.271-0.491-0.493l-0.002-0.006c-0.041-0.1-0.065-0.217-0.065-0.339s0.024-0.239 0.067-0.345l-0.002 0.006c0.082-0.174 0.201-0.318 0.349-0.427l0.003-0.002c0.155-0.131 0.356-0.21 0.576-0.21 0.125 0 0.243 0.025 0.351 0.071l-0.006-0.002 7.565 3.2c0.059 0.025 0.128 0.039 0.201 0.039 0.159 0 0.302-0.069 0.401-0.179l0-0c0.080-0.097 0.129-0.222 0.129-0.358 0-0.091-0.022-0.177-0.060-0.253l0.001 0.003s-1.472-2.662-1.472-2.701c-0.086-0.142-0.137-0.313-0.137-0.497 0-0.345 0.181-0.648 0.453-0.819l0.004-0.002c0.175-0.116 0.39-0.186 0.621-0.186 0.043 0 0.085 0.002 0.126 0.007l-0.005-0c0.219 0.053 0.401 0.182 0.523 0.356l0.002 0.003c0.038 0.038 3.027 4.314 3.942 5.76 0.522 0.859 0.831 1.898 0.831 3.009 0 0.956-0.229 1.859-0.635 2.657l0.015-0.033z"></path>
</symbol>

<symbol id="laptop" viewBox="0 0 43 32">
<path d="M42.779 26.442c-0.129-0.16-0.325-0.261-0.545-0.261-0.001 0-0.002 0-0.003 0h-2.998c0.085-0.212 0.135-0.458 0.135-0.716 0-0.003 0-0.006-0-0.008v0-23.276c0-0.005 0-0.011 0-0.017 0-1.189-0.959-2.155-2.147-2.164h-31.496c-1.188 0.009-2.147 0.975-2.147 2.164 0 0.006 0 0.012 0 0.018v-0.001 23.276c0 0.002-0 0.005-0 0.008 0 0.258 0.049 0.504 0.139 0.729l-0.005-0.013h-2.998c-0.001 0-0.002 0-0.003 0-0.22 0-0.416 0.101-0.544 0.26l-0.001 0.001c-0.105 0.127-0.169 0.292-0.169 0.472 0 0.042 0.003 0.082 0.010 0.122l-0.001-0.004 0.716 4.362c0.058 0.344 0.352 0.603 0.707 0.606h40.085c0.355-0.004 0.649-0.263 0.707-0.602l0.001-0.004 0.724-4.362c0.005-0.033 0.008-0.071 0.008-0.109 0-0.184-0.067-0.352-0.177-0.481l0.001 0.001zM5.053 2.181c-0-0.002-0-0.005-0-0.008 0-0.395 0.32-0.716 0.716-0.716 0 0 0 0 0 0h31.453c0.001 0 0.001 0 0.002 0 0.197 0 0.375 0.081 0.503 0.21l0 0c0.13 0.131 0.211 0.311 0.211 0.51 0 0.001 0 0.002 0 0.003v-0 23.276c0 0.001 0 0.002 0 0.003 0 0.199-0.080 0.38-0.211 0.511l0-0c-0.128 0.13-0.307 0.211-0.504 0.211-0.001 0-0.001 0-0.002 0h-31.495c-0.378-0.027-0.674-0.34-0.674-0.722 0-0.001 0-0.001 0-0.002v0zM40.909 30.543h-38.872l-0.48-2.905h39.832z"></path>
<path d="M6.737 30.316h2.526v-2.526h-6.737v2.526h4.211z"></path>
<path d="M37.053 27.789h2.526v2.526h-2.526v-2.526z"></path>
<path d="M22.282 15.84c0.767-0.326 1.295-1.073 1.295-1.943 0-1.163-0.943-2.105-2.105-2.105s-2.105 0.943-2.105 2.105c0 0.581 0.236 1.107 0.616 1.488v0c0.382 0.38 0.909 0.615 1.491 0.615 0.292 0 0.569-0.059 0.822-0.166l-0.014 0.005zM20.977 13.398c0.127-0.128 0.303-0.207 0.497-0.207 0.386 0 0.699 0.313 0.699 0.699 0 0.002 0 0.004-0 0.006v-0c0 0.003 0 0.005 0 0.008 0 0.381-0.309 0.691-0.691 0.691-0.003 0-0.006-0-0.009-0h0c-0.002 0-0.003 0-0.005 0-0.386 0-0.699-0.313-0.699-0.699 0-0.194 0.079-0.37 0.207-0.497l0-0z"></path>
<path d="M29.861 15.84c0.767-0.326 1.295-1.073 1.295-1.943 0-1.163-0.943-2.105-2.105-2.105s-2.105 0.943-2.105 2.105c0 0.581 0.236 1.107 0.616 1.488v0c0.382 0.38 0.909 0.615 1.491 0.615 0.292 0 0.569-0.059 0.822-0.166l-0.014 0.005zM28.556 13.398c0.127-0.128 0.303-0.207 0.497-0.207 0.386 0 0.699 0.313 0.699 0.699 0 0.002 0 0.004-0 0.006v-0c0 0.003 0 0.005 0 0.008 0 0.381-0.309 0.691-0.691 0.691-0.003 0-0.006-0-0.009-0h0c-0.002 0-0.003 0-0.005 0-0.386 0-0.699-0.313-0.699-0.699 0-0.194 0.079-0.37 0.207-0.497l0-0z"></path>
<path d="M14.703 15.84c0.767-0.326 1.295-1.073 1.295-1.943 0-1.163-0.943-2.105-2.105-2.105s-2.105 0.943-2.105 2.105c0 0.581 0.236 1.107 0.616 1.488v0c0.382 0.38 0.909 0.615 1.491 0.615 0.292 0 0.569-0.059 0.822-0.166l-0.014 0.005zM13.398 13.398c0.127-0.128 0.303-0.207 0.497-0.207 0.386 0 0.699 0.313 0.699 0.699 0 0.002 0 0.004-0 0.006v-0c0 0.003 0 0.005 0 0.008 0 0.381-0.309 0.691-0.691 0.691-0.003 0-0.006-0-0.009-0h0c-0.002 0-0.003 0-0.005 0-0.386 0-0.699-0.313-0.699-0.699 0-0.194 0.079-0.37 0.207-0.497l0-0z"></path>
</symbol>

<symbol id="mobile-security" viewBox="0 0 37 32">
<path d="M32 18.939c-0.002-0-0.004-0-0.006-0-0.163 0-0.311 0.065-0.419 0.17l0-0c-1.044 1.056-2.493 1.71-4.095 1.711h-0c-0.002-0-0.004-0-0.006-0-0.287 0-0.526 0.211-0.568 0.487l-0 0.003c-0.549 4.101 0.653 6.655 1.998 8.131 0.783 0.862 1.775 1.519 2.897 1.893l0.048 0.014c0.045 0.012 0.097 0.020 0.15 0.020s0.105-0.007 0.154-0.020l-0.004 0.001c1.166-0.383 2.156-1.034 2.934-1.882l0.005-0.005c1.371-1.476 2.547-4.029 1.998-8.131-0.046-0.279-0.285-0.49-0.574-0.49-0.003 0-0.005 0-0.008 0h0c-0.001 0-0.002 0-0.003 0-1.597 0-3.043-0.652-4.084-1.704l-0-0c-0.102-0.118-0.251-0.192-0.417-0.196h-0.001zM32 20.284c1.076 0.922 2.449 1.526 3.959 1.651l0.025 0.002c0.379 3.553-0.653 5.558-1.75 6.746-0.591 0.671-1.343 1.185-2.197 1.484l-0.037 0.011c-0.888-0.311-1.638-0.826-2.222-1.49l-0.005-0.006c-1.104-1.189-2.129-3.213-1.75-6.766 1.534-0.098 2.911-0.7 3.985-1.639l-0.008 0.007z"></path>
<path d="M1.718 0c-0.951 0.011-1.718 0.785-1.718 1.737 0 0.002 0 0.005 0 0.007v-0 27.86c0 0.002 0 0.004 0 0.007 0 0.953 0.767 1.726 1.717 1.737h15.426v-1.162h-15.425c-0.002 0-0.004 0-0.007 0-0.314 0-0.568-0.254-0.568-0.568 0-0.005 0-0.009 0-0.014v0.001-27.86c-0-0.004-0-0.008-0-0.013 0-0.314 0.254-0.568 0.568-0.568 0.002 0 0.005 0 0.007 0h19.428c0.002-0 0.004-0 0.007-0 0.31 0 0.562 0.251 0.562 0.562 0 0.007-0 0.014-0 0.021l0-0.001v6.387h1.143v-6.387c0-0.002 0-0.004 0-0.007 0-0.95-0.763-1.722-1.71-1.737l-0.001-0z"></path>
<path d="M11.429 25.469c-0.902 0-1.633 0.731-1.633 1.633s0.731 1.633 1.633 1.633c0.902 0 1.633-0.731 1.633-1.633v0c-0.004-0.9-0.732-1.629-1.632-1.633h-0zM11.429 26.56c0.299 0 0.542 0.243 0.542 0.542s-0.243 0.542-0.542 0.542c-0.299 0-0.542-0.243-0.542-0.542v0c-0-0.002-0-0.004-0-0.007 0-0.296 0.24-0.535 0.536-0.535 0.002 0 0.005 0 0.007 0h-0z"></path>
<path d="M9.731 2.612c-0 0-0 0-0 0-0.166 0-0.315 0.073-0.417 0.189l-0.001 0.001c-0.105 0.124-0.17 0.286-0.17 0.464s0.064 0.339 0.171 0.465l-0.001-0.001c0.102 0.116 0.251 0.189 0.418 0.189 0 0 0 0 0 0h4.049c0 0 0 0 0 0 0.166 0 0.315-0.073 0.417-0.189l0.001-0.001c0.105-0.124 0.17-0.286 0.17-0.464s-0.064-0.339-0.171-0.465l0.001 0.001c-0.102-0.116-0.251-0.189-0.418-0.189-0 0-0 0-0 0h0z"></path>
<path d="M20.617 9.796c-0.932 0.025-1.679 0.787-1.679 1.723 0 0.012 0 0.023 0 0.035l-0-0.002v18.691c-0 0.008-0 0.017-0 0.027 0 0.938 0.745 1.701 1.676 1.73l0.003 0h7.837v-1.169h-7.837c-0.312-0.007-0.562-0.262-0.562-0.575 0-0.005 0-0.009 0-0.014v0.001-18.691c-0-0.004-0-0.009-0-0.013 0-0.313 0.25-0.567 0.561-0.575h8.399c0.312 0.007 0.562 0.262 0.562 0.575 0 0.005-0 0.009-0 0.014v-0.001 7.589h1.117v-7.589c0-0.008 0-0.017 0-0.027 0-0.938-0.745-1.701-1.676-1.73l-0.003-0z"></path>
<path d="M25.469 29.388c0 0.001 0 0.002 0 0.004 0 0.179-0.072 0.342-0.189 0.46l0-0c-0.118 0.119-0.282 0.193-0.464 0.193-0.361 0-0.653-0.292-0.653-0.653 0-0.001 0-0.003 0-0.004v0c0-0.001 0-0.002 0-0.004 0-0.179 0.072-0.342 0.189-0.46l-0 0c0.118-0.119 0.282-0.193 0.464-0.193s0.345 0.074 0.464 0.193l0 0c0.117 0.118 0.189 0.28 0.189 0.46 0 0.001 0 0.003 0 0.004v-0z"></path>
<path d="M23.386 11.755c-0.152 0.003-0.286 0.076-0.371 0.188l-0.001 0.001c-0.098 0.127-0.157 0.289-0.157 0.464s0.059 0.337 0.158 0.465l-0.001-0.002c0.086 0.113 0.22 0.187 0.372 0.189h1.555c0.152-0.003 0.286-0.076 0.371-0.188l0.001-0.001c0.098-0.127 0.157-0.288 0.157-0.464s-0.059-0.337-0.158-0.465l0.001 0.002c-0.086-0.113-0.22-0.187-0.372-0.189h-0z"></path>
</symbol>

<symbol id="money" viewBox="0 0 29 32">
<path d="M29.019 24.511l-5.012-7.25h-0.040l-0.989 0.664 5.052 7.303c0.069 0.095 0.11 0.215 0.11 0.344 0 0.103-0.026 0.199-0.072 0.283l0.002-0.003c-0.101 0.194-0.301 0.325-0.531 0.325h-25.733c-0.23-0-0.43-0.131-0.53-0.322l-0.002-0.003c-0.041-0.078-0.065-0.171-0.065-0.27 0-0.134 0.044-0.257 0.119-0.356l-0.001 0.002 5.039-7.303-0.989-0.664-5.052 7.303c-0.182 0.277-0.291 0.617-0.291 0.983 0 0.985 0.789 1.786 1.77 1.805l0.002 0h25.733c0 0 0.001 0 0.001 0 0.997 0 1.806-0.808 1.806-1.806 0-0.388-0.122-0.747-0.33-1.041l0.004 0.006z"></path>
<path d="M2.656 28.548h24.033v1.461h-24.033v-1.461z"></path>
<path d="M4.647 30.539h20.714v1.461h-20.714v-1.461z"></path>
<path d="M16.392 19.539c-0.65 0.384-1.433 0.61-2.268 0.61-0.619 0-1.208-0.124-1.745-0.349l0.030 0.011c-1.311-0.602-2.286-1.744-2.648-3.134l-0.007-0.033v-0.060l-1.149 0.332v0.066c0.464 1.784 1.681 3.218 3.283 3.968l0.037 0.015c0.586 0.263 1.268 0.423 1.986 0.438l0.006 0v2.656h1.461v-2.815c0.587-0.146 1.102-0.348 1.582-0.608l-0.035 0.017c1.119-0.657 1.934-1.73 2.237-3.002l0.006-0.032c0.129-0.423 0.203-0.909 0.203-1.412 0-0.882-0.228-1.711-0.628-2.431l0.013 0.026c-1.016-1.64-2.934-2.118-4.647-2.536h-0.033c-0.544-0.139-1.056-0.266-1.52-0.425-0.885-0.29-1.576-0.953-1.898-1.798l-0.007-0.021c-0.060-0.226-0.095-0.486-0.095-0.754 0-0.758 0.277-1.452 0.735-1.985l-0.003 0.004c0.609-0.95 1.611-1.601 2.772-1.725l0.016-0.001c0.057-0.002 0.124-0.003 0.192-0.003 1.63 0 3.098 0.698 4.12 1.812l0.004 0.004 0.046 0.046 0.817-0.876v-0.046c-1.012-1.042-2.327-1.784-3.803-2.083l-0.047-0.008v-3.406h-1.461v3.353c-1.523 0.175-2.82 1.012-3.613 2.212l-0.012 0.019c-0.574 0.714-0.921 1.631-0.921 2.63 0 0.406 0.057 0.799 0.165 1.171l-0.007-0.030c0.443 1.232 1.41 2.181 2.626 2.587l0.030 0.009c0.538 0.186 1.129 0.332 1.66 0.465 1.54 0.385 3.134 0.783 3.89 1.992 0.27 0.508 0.429 1.11 0.429 1.749 0 0.392-0.060 0.77-0.17 1.126l0.007-0.027c-0.217 0.974-0.811 1.781-1.618 2.275l-0.016 0.009z"></path>
</symbol>

<symbol id="security" viewBox="0 0 29 32">
<path d="M26.936 3.889h1.725v13.774c-0.074 7.627-6.275 13.782-13.912 13.782-0.049 0-0.098-0-0.147-0.001l0.007 0c-0.042 0-0.091 0.001-0.14 0.001-7.638 0-13.838-6.154-13.912-13.775l-0-0.007v-13.774h1.725c4.345-0.003 8.421-1.148 11.946-3.151l-0.12 0.063 0.431-0.223h0.139l0.403 0.223c3.411 1.943 7.494 3.089 11.845 3.089 0.003 0 0.006 0 0.009 0h-0zM26.748 5.767c-4.447-0.030-8.624-1.162-12.278-3.136l0.139 0.069c-3.515 1.906-7.692 3.038-12.13 3.068l-0.009 0v11.896c0.078 6.587 5.436 11.896 12.034 11.896 0.037 0 0.074-0 0.111-0l-0.006 0c0.031 0 0.068 0 0.105 0 6.598 0 11.956-5.309 12.034-11.889l0-0.007z"></path>
<path d="M15.214 22.038v1.753h-1.906v-1.753c-0.945-0.355-1.608-1.246-1.621-2.294v-0.002c0-1.422 1.152-2.574 2.574-2.574s2.574 1.152 2.574 2.574v0c-0.015 1.049-0.677 1.939-1.604 2.29l-0.017 0.006zM14.261 20.383c0.336-0.026 0.598-0.305 0.598-0.645 0-0.357-0.29-0.647-0.647-0.647s-0.647 0.29-0.647 0.647c0 0.002 0 0.004 0 0.005v-0c0.030 0.36 0.329 0.64 0.693 0.64 0.001 0 0.002 0 0.002 0h-0z"></path>
<path d="M8.438 11.325v0-0.139c0-3.216 2.607-5.823 5.823-5.823s5.823 2.607 5.823 5.823v0 2.456c0.953 0.379 1.615 1.29 1.621 2.357v8.029c-0.008 1.408-1.151 2.546-2.56 2.546-0.005 0-0.010 0-0.015-0h-9.738c-0.004 0-0.009 0-0.014 0-1.409 0-2.552-1.138-2.56-2.545v-8.029c0.010-1.066 0.671-1.976 1.604-2.352l0.017-0.006zM19.805 24.028v-8.028c-0.019-0.369-0.323-0.661-0.695-0.661-0 0-0.001 0-0.001 0h-9.739c-0 0-0.001 0-0.001 0-0.372 0-0.676 0.292-0.695 0.659l-0 0.002v8.028c0 0.384 0.311 0.696 0.696 0.696v0h9.739c0.384 0 0.696-0.311 0.696-0.696v0zM10.344 13.454h7.833v-2.268c0-2.163-1.753-3.917-3.917-3.917s-3.917 1.754-3.917 3.917v0z"></path>
</symbol>

<symbol id="trade" viewBox="0 0 32 32">
<path d="M31.423 10.161h-7.72l-6.321-2.955c-0.077-0.039-0.167-0.061-0.263-0.061-0.030 0-0.059 0.002-0.088 0.006l0.003-0c-0.059 0.011-0.112 0.030-0.161 0.057l0.003-0.001-6.060 2.955h-8.446c2.314-5.344 7.542-9.015 13.627-9.015 0.001 0 0.002 0 0.002 0h-0c0.020-0 0.044-0 0.068-0 4.188 0 7.975 1.721 10.691 4.493l0.003 0.003h-1.738c-0.157 0.001-0.299 0.064-0.403 0.166l0-0c-0.107 0.104-0.173 0.25-0.174 0.411v0c0 0.001 0 0.002 0 0.004 0 0.157 0.067 0.299 0.174 0.399l0 0c0.106 0.104 0.25 0.17 0.41 0.174l0.001 0h3.010c0.315-0.004 0.569-0.261 0.569-0.577 0-0 0-0 0-0v0-3.002c0.001-0.015 0.002-0.032 0.002-0.049 0-0.155-0.064-0.294-0.168-0.394l-0-0c-0.099-0.096-0.235-0.155-0.384-0.155-0.026 0-0.052 0.002-0.077 0.005l0.003-0c-0.287 0.037-0.506 0.279-0.506 0.572 0 0.004 0 0.009 0 0.013v-0.001 1.533c-2.921-2.929-6.961-4.741-11.424-4.741-0.020 0-0.040 0-0.060 0h0.003c-8.833 0.009-15.991 7.167-16 15.999v4.544c0.013 0.31 0.265 0.557 0.576 0.561h4.741c0.099 0.401 0.298 0.746 0.569 1.019l-0-0 0.134 0.103 0.119 0.079 0.284 0.205 0.648 0.482 0.379 0.277 2.031 1.454 3.366 2.37c0.308 0.226 0.695 0.362 1.114 0.362s0.806-0.136 1.119-0.366l-0.005 0.004c0.363 0.238 0.808 0.379 1.286 0.379 0.009 0 0.018-0 0.027-0h-0.001c1.669-0.179 3.195-0.604 4.607-1.239l-0.095 0.038c1.735-0.634 3.229-1.38 4.622-2.269l-0.095 0.056c0.546-0.301 0.916-0.863 0.94-1.514l0-0.003c-0-0.328-0.085-0.635-0.234-0.902l0.005 0.009c-0.125-0.218-0.261-0.407-0.414-0.581l0.003 0.004h4.172c-2.119 5.741-7.537 9.764-13.896 9.782h-0.002c-0.019 0-0.041 0-0.064 0-4.194 0-7.987-1.72-10.711-4.494l-0.002-0.002h1.754c0.157-0.002 0.298-0.065 0.403-0.166l-0 0c0.103-0.103 0.166-0.245 0.166-0.402 0-0.003-0-0.006-0-0.010v0c0-0.002 0-0.004 0-0.006 0-0.158-0.063-0.301-0.166-0.405l0 0c-0.11-0.096-0.253-0.157-0.409-0.166l-0.002-0h-3.018c-0.019-0.004-0.041-0.006-0.063-0.006s-0.044 0.002-0.065 0.006l0.002-0c-0.267 0.047-0.466 0.277-0.466 0.553 0 0.006 0 0.011 0 0.017l-0-0.001v3.010c-0 0.005-0 0.011-0 0.017 0 0.153 0.060 0.292 0.158 0.394l-0-0c0.104 0.094 0.243 0.151 0.395 0.151s0.291-0.057 0.396-0.151l-0.001 0c0.101-0.107 0.163-0.252 0.166-0.41v-1.51c2.921 2.929 6.961 4.741 11.424 4.741 0.014 0 0.029-0 0.043-0h-0.002c0.017 0 0.037 0 0.056 0 7.119 0 13.146-4.68 15.17-11.131l0.030-0.113c0.026-0.043 0.043-0.094 0.047-0.149l0-0.001c0.469-1.374 0.755-2.959 0.79-4.605l0-0.017v-5.27c-0.004-0.316-0.261-0.57-0.577-0.57-0.011 0-0.022 0-0.033 0.001l0.002-0zM15.257 24.304l0.063-0.055-0.253-0.119s-1.501-1.256-3.042-2.536l-0.869-0.711-1.312-1.082c-0.616-0.506-1.027-0.845-1.146-0.932-0.355-0.273-0.805-0.437-1.294-0.437-0.956 0-1.766 0.629-2.037 1.496l-0.004 0.015h-4.219v-3.951c0.007-1.682 0.296-3.295 0.821-4.796l-0.031 0.103h7.633c-0.080 0.195-0.126 0.421-0.126 0.659 0 0.005 0 0.009 0 0.014v-0.001c-0 0.013-0 0.027-0 0.042 0 1.024 0.802 1.861 1.813 1.917l0.005 0c0.167-0.004 0.327-0.029 0.479-0.074l-0.013 0.003 4.512-1.715 8.525 9.576c0.141 0.153 0.271 0.321 0.386 0.499l0.009 0.015c0.055 0.087 0.088 0.193 0.088 0.306 0 0.012-0 0.024-0.001 0.035l0-0.002c0 0.229 0 0.316-0.371 0.545l-0.063 0.040c-1.229 0.768-2.646 1.465-4.135 2.017l-0.164 0.053c-1.19 0.519-2.573 0.912-4.017 1.112l-0.084 0.010c-0.028 0.003-0.061 0.005-0.094 0.005-0.205 0-0.395-0.067-0.549-0.18l0.003 0.002c0.046-0.154 0.073-0.332 0.073-0.515 0-0.535-0.225-1.017-0.585-1.357l-0.001-0.001zM7.403 19.563c0.007-0 0.015-0 0.023-0 0.217 0 0.418 0.071 0.58 0.192l-0.003-0.002s0.506 0.411 1.106 0.917l0.79 0.664 1.367 1.122 3.034 2.513 0.055 0.055c0.15 0.109 0.255 0.273 0.284 0.462l0.001 0.004c0.004 0.026 0.006 0.057 0.006 0.088 0 0.162-0.056 0.31-0.149 0.427l0.001-0.001c-0.128 0.188-0.341 0.31-0.583 0.31-0.166 0-0.318-0.057-0.438-0.153l0.001 0.001-3.358-2.37-2.331-1.667-0.679-0.537-0.103-0.079-0.245-0.174-0.071-0.047c-0.171-0.178-0.277-0.421-0.277-0.689 0-0.005 0-0.010 0-0.015v0.001c-0-0.005-0-0.010-0-0.016 0-0.541 0.439-0.98 0.98-0.98 0.003 0 0.006 0 0.008 0h-0zM16.174 10.927l-4.741 1.794h-0.213c-0.373-0.083-0.651-0.401-0.671-0.788l-0-0.002c0-0 0-0.001 0-0.001 0-0.247 0.132-0.463 0.329-0.582l0.003-0.002 6.234-3.042 6.226 2.9c0.069 0.034 0.151 0.054 0.237 0.055h7.27v4.693c-0.014 1.414-0.233 2.771-0.627 4.051l0.027-0.101h-5.531l-7.909-8.841c-0.103-0.099-0.244-0.16-0.399-0.16-0.084 0-0.165 0.018-0.237 0.051l0.004-0.001z"></path>
</symbol>

<symbol id="trees" viewBox="0 0 32 32">
<path d="M8.591 4.717c-4.719 0.020-8.536 3.85-8.536 8.571 0 4.527 3.51 8.234 7.956 8.549l0.027 0.002v9.023h-0.876c-0.019-0.002-0.040-0.003-0.062-0.003-0.316 0-0.573 0.256-0.573 0.573s0.256 0.573 0.573 0.573c0.022 0 0.043-0.001 0.065-0.004l-0.003 0h2.857c0.019 0.002 0.040 0.003 0.062 0.003 0.316 0 0.573-0.256 0.573-0.573s-0.256-0.573-0.573-0.573c-0.022 0-0.043 0.001-0.065 0.004l0.003-0h-0.842v-9.036c4.47-0.317 7.976-4.021 7.976-8.544 0-4.729-3.833-8.563-8.562-8.564h-0zM9.178 20.686v-5.323l2.951-2.857c0.107-0.104 0.174-0.25 0.174-0.411 0-0.311-0.248-0.564-0.557-0.573l-0.001-0c-0.005-0-0.011-0-0.016-0-0.152 0-0.289 0.062-0.388 0.162l-0 0-2.143 2.082v-2.911c0.002-0.019 0.003-0.040 0.003-0.062 0-0.316-0.256-0.573-0.573-0.573s-0.573 0.256-0.573 0.573c0 0.022 0.001 0.043 0.004 0.065l-0-0.003v5.492l-2.197-2.116c-0.096-0.075-0.218-0.12-0.35-0.12-0.316 0-0.573 0.256-0.573 0.573 0 0.141 0.051 0.27 0.135 0.37l-0.001-0.001 2.965 2.884v2.749c-3.878-0.305-6.91-3.527-6.91-7.458 0-4.131 3.349-7.479 7.479-7.479s7.479 3.349 7.479 7.479c0 3.93-3.032 7.153-6.884 7.456l-0.026 0.002z"></path>
<path d="M31.845 20.215l-6.186-6.294v-2.945l5.391 5.485c0.102 0.097 0.241 0.157 0.394 0.157s0.292-0.060 0.394-0.157l-0 0c0.101-0.102 0.163-0.243 0.163-0.398s-0.062-0.295-0.163-0.398l0 0-6.186-6.294v-2.924l5.391 5.492c0.102 0.097 0.241 0.157 0.394 0.157s0.292-0.060 0.394-0.157l-0 0c0.101-0.102 0.163-0.243 0.163-0.398s-0.062-0.295-0.163-0.398l0 0-6.172-6.294v-2.924l5.391 5.485c0.101 0.102 0.242 0.166 0.398 0.166 0.309 0 0.56-0.251 0.56-0.56 0-0.154-0.062-0.293-0.162-0.394l0 0-6.347-6.462c-0.103-0.099-0.243-0.16-0.398-0.16s-0.295 0.061-0.398 0.161l0-0-6.347 6.455c-0.101 0.103-0.164 0.245-0.164 0.401s0.063 0.298 0.164 0.401l-0-0c0.1 0.099 0.238 0.161 0.391 0.162h0c0.001 0 0.001 0 0.002 0 0.153 0 0.291-0.065 0.388-0.168l0-0 5.391-5.485v2.924l-6.186 6.294c-0.099 0.103-0.16 0.243-0.16 0.398s0.061 0.295 0.161 0.398l-0-0c0.1 0.1 0.238 0.162 0.391 0.162 0.002 0 0.005-0 0.007-0h-0c0 0 0 0 0 0 0.156 0 0.297-0.065 0.397-0.168l0-0 5.391-5.485v2.924l-6.186 6.294c-0.099 0.103-0.16 0.243-0.16 0.398s0.061 0.295 0.161 0.398l-0-0c0.101 0.103 0.242 0.168 0.397 0.168h0c0.155-0.003 0.295-0.067 0.398-0.168l-0 0 5.391-5.485v2.918l-6.172 6.32c-0.102 0.102-0.165 0.242-0.165 0.398 0 0.311 0.252 0.562 0.562 0.562 0.155 0 0.296-0.063 0.398-0.165v0l5.391-5.485v15.35h-0.836c-0.285 0.032-0.504 0.272-0.504 0.563s0.219 0.53 0.502 0.562l0.003 0h2.79c0.285-0.032 0.504-0.272 0.504-0.563s-0.219-0.53-0.502-0.562l-0.003-0h-0.836v-15.377l5.391 5.485c0.103 0.099 0.243 0.16 0.398 0.16s0.295-0.061 0.398-0.161l-0 0c0.092-0.101 0.148-0.236 0.148-0.384s-0.056-0.283-0.148-0.385l0 0z"></path>
</symbol>

<symbol id="up-down-arrows" viewBox="0 0 32 32">
<path d="M16 32c-8.837 0-16-7.163-16-16s7.163-16 16-16c8.837 0 16 7.163 16 16v0c-0.011 8.832-7.168 15.989-15.999 16h-0.001zM16 1.745c-7.873 0-14.255 6.382-14.255 14.255s6.382 14.255 14.255 14.255c7.873 0 14.255-6.382 14.255-14.255v0c-0.011-7.868-6.386-14.244-14.254-14.255h-0.001z"></path>
<path d="M11.152 31.030c-0.001 0-0.003 0-0.005 0-0.501 0-0.914-0.381-0.964-0.869l-0-0.004v-22.497c0.079-0.48 0.478-0.846 0.967-0.873l0.003-0c0.001 0 0.003 0 0.005 0 0.501 0 0.914 0.381 0.964 0.869l0 0.004v22.497c-0.051 0.492-0.463 0.873-0.965 0.873-0.002 0-0.003 0-0.005 0h0z"></path>
<path d="M6.788 12.606c-0.251-0.021-0.482-0.090-0.689-0.199l0.010 0.005c-0.136-0.154-0.219-0.358-0.219-0.582s0.083-0.427 0.22-0.583l-0.001 0.001 4.364-4.17c0.132-0.181 0.343-0.298 0.582-0.298 0.034 0 0.068 0.002 0.101 0.007l-0.004-0c0.251 0.021 0.482 0.090 0.689 0.199l-0.010-0.005 4.364 4.17c0.136 0.154 0.219 0.358 0.219 0.582s-0.083 0.427-0.22 0.583l0.001-0.001c-0.168 0.145-0.389 0.233-0.63 0.233s-0.462-0.088-0.632-0.234l0.001 0.001-3.685-3.491-3.685 3.491c-0.221 0.145-0.483 0.248-0.765 0.29l-0.011 0.001z"></path>
<path d="M21.818 26.182c-0.001 0-0.003 0-0.005 0-0.501 0-0.914-0.381-0.965-0.869l-0-0.004v-22.497c0.079-0.48 0.478-0.846 0.967-0.873l0.003-0c0.001 0 0.003 0 0.005 0 0.501 0 0.914 0.381 0.965 0.869l0 0.004v22.497c-0.009 0.486-0.405 0.876-0.892 0.876-0.027 0-0.054-0.001-0.081-0.004l0.003 0z"></path>
<path d="M21.915 26.182c-0.251-0.021-0.482-0.090-0.689-0.199l0.010 0.005-4.461-4.17c-0.177-0.134-0.291-0.345-0.291-0.582s0.113-0.448 0.289-0.581l0.002-0.001c0.168-0.145 0.389-0.233 0.63-0.233s0.462 0.088 0.632 0.234l-0.001-0.001 3.782 3.491 3.782-3.491c0.168-0.145 0.389-0.233 0.63-0.233s0.462 0.088 0.632 0.234l-0.001-0.001c0.156 0.146 0.253 0.352 0.253 0.582s-0.097 0.436-0.253 0.581l-0 0-4.461 4.17c0 0.097-0.194 0.194-0.485 0.194z"></path>
</symbol>
</defs>
</svg>
